<svg viewBox="0 0 800 600" xmlns="http://www.w3.org/2000/svg">
  <rect width="800" height="600" fill="white"/>  <path
    d="M 441 152 L 439 173 L 439 190 L 445 213 L 454 224 L 463 232 L 474 240 L 486 247 L 497 251 L 505 252 L 515 253 L 525 253 L 536 253 L 549 252 L 556 249 L 565 247 L 579 239 L 587 231 L 594 223 M 523 184 L 524 184 L 535 184 L 551 184 L 560 184 L 567 184 L 571 184 L 575 184 L 577 184 L 580 184 L 583 184 L 584 184 L 586 184 M 535 185 L 535 186 L 535 189 L 535 191 L 534 191 L 534 190 L 534 187 L 534 188 L 534 189 L 534 191 L 534 192 L 534 194 M 455 178 L 456 178 L 463 179 L 473 182 L 481 183 L 485 183 L 487 183 L 489 183 L 490 183 L 492 184 L 494 184 L 497 184 L 500 184 M 485 182 L 485 184 L 485 185 L 485 188 L 485 190 L 485 191 L 485 187 L 485 184 L 485 185 L 485 187 L 485 188 M 518 236 L 518 235 L 521 230 L 526 224 L 530 221 L 533 218 L 534 217 L 537 216 L 539 215 L 542 214 L 545 213 L 547 213 L 548 213 L 550 213 L 552 214 L 554 216 L 554 217 M 521 236 L 523 235 L 530 231 L 539 225 L 545 222 L 548 219 L 550 218 L 550 217 L 551 217 M 529 226 L 530 226 L 531 229 L 531 230 M 537 219 L 539 219 L 539 221 M 504 254 L 503 254 L 501 258 L 500 263 M 537 255 L 536 256 L 536 261 L 535 267 L 534 268 M 456 381 L 452 380 L 440 380 L 425 380 L 417 380 L 413 380 L 407 382 L 404 383 L 402 384 L 400 387 L 400 390 L 400 391 L 400 393 L 400 395 M 400 395 L 401 395 L 403 395 L 409 395 L 419 395 L 430 395 L 436 395 L 438 395 L 439 395 L 441 395 L 442 395 L 444 395 L 445 395 L 447 395 L 449 395 L 450 395 M 477 370 L 475 370 L 474 370 L 468 366 L 464 364 L 458 361 L 456 359 L 453 359 M 450 357 L 449 357 L 448 358 L 448 359 L 447 362 L 446 365 L 446 367 M 448 371 L 449 371 L 450 371 L 454 375 L 456 376 L 457 377 M 484 373 L 485 373 L 487 374 L 500 383 L 511 392 L 514 393 L 514 394 L 515 395 M 488 260 L 491 260 L 500 266 L 511 274 L 516 277 L 517 277 L 520 279 M 491 254 L 491 252 L 489 252 L 486 251 L 483 251 L 482 251 L 479 252 L 476 257 L 475 259 L 473 263 L 471 266 L 471 267 L 470 270 L 468 271 L 467 272 L 466 272 L 466 274 M 466 274 L 466 276 L 475 283 L 484 289 L 491 293 L 496 295 L 502 299 L 504 299 L 506 300 L 507 301 L 508 302 L 509 302 M 516 289 L 516 290 L 516 291 L 514 299 L 512 306 L 511 309 M 541 261 L 541 260 L 544 259 L 547 256 L 549 256 L 550 256 L 551 260 L 552 265 L 552 270 L 553 272 M 534 280 L 536 281 L 540 284 L 546 289 L 550 293 L 552 294 L 554 295 L 555 297 M 552 274 L 557 276 L 562 282 L 567 284 L 569 284 M 569 286 L 568 287 L 565 289 L 563 292 M 545 278 L 545 277 L 547 279 L 553 284 L 557 288 M 571 280 L 576 284 L 591 306 M 641 398 L 645 408 L 645 409 M 515 385 L 515 384 L 517 384 L 521 391 L 522 397 L 522 406 L 522 413 L 520 420 L 518 423 L 517 425 L 516 427 L 515 429 M 522 388 L 524 388 M 559 379 L 559 391 M 466 272 L 465 274 L 464 275 L 454 285 L 443 294 L 433 302 L 429 306 L 426 308 M 426 306 L 426 308 L 422 318 L 413 342 L 405 365 L 404 371 L 403 374 L 403 375 L 403 376 L 402 377 L 402 378 L 402 379 M 466 315 L 466 316 L 463 332 L 457 351 L 456 359 M 514 432 L 515 432 L 545 435 L 592 442 M 521 382 L 522 382 L 526 382 L 547 382 L 572 382 L 597 384 L 603 385 L 605 385 M 572 357 L 579 368 L 584 378 L 585 381 L 586 384 L 586 385 L 587 385 M 528 433 L 528 434 L 534 434 L 550 436 L 572 437 L 585 437 L 589 437 L 591 437 L 592 437 M 593 437 L 594 437 L 595 437 L 602 437 L 616 432 L 619 431 L 623 430 L 625 428 L 626 428 M 617 429 L 618 431 L 620 431 L 626 431 L 636 431 M 644 414 L 644 416 L 644 418 L 642 424 L 642 429 L 641 432 L 641 433 M 400 397 L 399 399 L 392 439 L 383 479 L 380 505 L 378 514 L 378 519 M 378 520 L 378 522 L 387 526 L 395 529 L 403 532 L 409 533 L 414 534 L 418 534 L 421 534 L 426 533 M 445 404 L 444 407 L 443 424 L 433 458 L 428 490 L 425 515 L 423 522 L 421 527 M 558 437 L 558 439 L 559 442 L 560 448 L 560 450 M 560 450 L 560 453 L 558 462 L 554 474 L 552 478 M 558 460 L 558 462 L 559 467 L 561 474 L 563 477 L 564 478 L 565 478 L 565 479 L 566 480 L 567 480 M 568 484 L 568 487 L 568 490 L 568 493 M 432 484 L 432 485 L 435 490 L 443 495 L 451 499 L 461 503 L 469 504 L 477 506 L 484 508 L 489 509 L 499 510 L 509 511 L 515 511 L 522 511 L 527 511 L 531 511 L 535 509 L 540 508 L 545 506 L 549 504 L 554 501 L 558 499 L 560 498 L 561 497 M 378 527 L 378 529 L 378 534 L 376 539 L 376 540 L 375 541 M 371 542 L 370 541 L 367 541 L 366 540 L 363 540 L 361 540 L 360 540 L 359 540 L 357 540 L 355 540 L 353 540 L 353 543 L 355 546 L 359 556 L 362 561 L 364 564 L 367 566 L 368 568 M 371 573 L 374 574 L 380 577 L 386 578 L 391 578 L 396 578 M 417 540 L 417 541 L 415 550 L 408 564 L 404 570 M 518 296 L 519 297 L 520 297 L 523 299 M 544 296 L 543 296 L 541 296 L 538 296 L 533 297 L 532 297 L 531 298 L 529 298 L 528 298 L 527 298 M 527 301 L 528 301 L 532 307 L 534 311 L 535 313 M 542 295 L 543 295 L 545 295 L 546 295 L 546 296 L 547 299 L 547 304 L 547 308 L 547 310 L 547 311 L 547 312 L 547 313 M 539 314 L 540 314 L 543 313 L 545 312 L 546 312 M 549 291 L 548 291 L 548 293 L 548 294 M 544 235 L 545 235 L 546 233 L 548 233 M 538 319 L 538 321 L 536 337 L 530 362 L 526 373 L 525 377 L 524 380 M 548 310 L 548 312 L 548 313 L 550 330 L 556 361 L 556 373 L 556 376 L 556 377 L 557 378 L 557 379 L 557 380 M 514 430 L 514 431 L 512 435 L 511 441 L 510 443 L 510 445 M 510 445 L 510 447 L 512 452 L 517 467 L 519 474 L 521 477 L 521 478 L 521 482 L 522 483 L 523 484 M 527 482 L 528 482 L 531 479 L 542 467 L 550 459 L 551 456 L 551 455 L 552 454 M 552 439 L 552 438 L 554 440 L 556 446 L 556 450 M 557 446 L 556 448 L 554 455 L 554 457 M 515 294 L 516 294 L 518 295 L 523 298 L 522 298 L 518 295 L 519 295 L 520 295 M 545 280 L 545 281 L 546 284 L 547 288 L 548 291 L 548 289 L 547 284 L 547 285 L 548 288 L 549 292 L 549 293 M 534 298 L 534 299 L 534 302 L 534 303 L 534 304 M 539 297 L 539 298 L 539 301 L 539 305 L 538 307 L 538 308 L 538 309 L 538 311 L 538 312 L 538 313 M 544 300 L 544 301 L 544 302 L 542 308 L 541 313 L 541 314 L 541 315 M 544 314 L 544 316 L 542 323 L 539 332 L 538 337 L 537 339 M 546 322 L 546 323 L 544 334 L 541 344 L 538 354 L 536 358 L 534 361 L 534 362 L 534 364 L 534 365 L 534 367 M 548 337 L 548 338 L 546 347 L 543 356 L 538 365 L 536 371 L 535 373 L 534 376 L 534 377 L 533 379 L 533 380 L 532 381 L 532 382 M 550 348 L 549 350 L 548 355 L 545 368 L 542 374 L 541 378 L 540 380 L 540 381 M 552 360 L 552 362 L 549 377 L 547 380 M 521 433 L 520 432 L 518 437 L 514 447 L 513 450 M 526 435 L 526 436 L 525 440 L 518 453 L 514 460 L 513 462 L 513 463 M 533 438 L 532 438 L 527 445 L 522 457 L 519 464 L 517 466 M 537 438 L 537 440 L 534 450 L 529 460 L 526 465 L 525 468 L 524 471 L 523 472 L 522 474 L 522 475 L 522 476 M 545 437 L 545 439 L 544 443 L 539 453 L 534 465 L 533 469 L 532 472 L 530 475 L 530 476 L 529 478 M 551 441 L 550 441 L 546 450 L 540 464 L 538 468 L 538 470 M 504 418 L 505 418 L 507 418 L 509 418 L 510 418 L 511 418 L 512 418 L 513 418 L 514 418 M 463 399 L 466 404 L 471 410 L 473 413 L 475 414 L 477 415 L 478 416 L 480 417 L 480 418 L 481 418 L 482 419 L 483 419 M 483 419 L 484 419 L 485 419 L 493 419 L 499 419 L 503 419 L 507 419 L 508 419 L 510 418 M 447 395 L 448 395 L 449 395 L 454 395 L 456 395 L 457 395 L 458 395 M 458 394 L 458 395 L 462 399 L 465 403 L 466 405 M 559 477 L 559 478 L 554 482 L 545 491 L 541 496 M 439 468 L 440 468 L 442 469 L 448 475 L 455 479 L 458 483 L 461 485 M 445 402 L 443 407 L 433 432 L 422 465 L 417 482 L 417 485 M 557 502 L 558 500 L 564 494 L 566 491 L 568 490 L 569 490 M 569 482 L 570 483 L 570 485 L 570 487 M 559 490 L 560 493 L 574 541 L 594 600 M 440 496 L 439 497 L 437 516 L 429 564 L 424 600 M 485 529 L 481 545 L 472 598 L 471 600 M 483 540 L 483 541 L 485 541 L 493 542 L 503 542 L 513 542 L 516 542 L 517 542 L 521 542 L 523 542 L 526 541 L 531 540 L 535 539 L 536 539 M 538 539 L 540 547 L 551 585 L 554 600 M 424 160 L 424 165 L 424 193 L 418 244 L 399 308 L 386 352 L 380 371 L 377 384 L 376 390 L 375 395 L 374 398 M 374 399 L 376 399 L 380 398 L 384 398 M 440 214 L 440 217 L 438 234 L 428 274 L 417 316 L 411 333 M 601 162 L 600 164 L 597 191 L 595 267 L 597 336 L 601 370 L 601 374 M 623 164 L 623 166 L 618 195 L 613 295 L 611 351 M 602 374 L 604 374 L 608 374 L 610 374 M 566 304 L 566 305 L 566 308 L 570 318 L 572 325 L 574 332 L 574 336 M 574 338 L 574 340 L 571 351 L 565 366 L 560 381 L 558 384 L 558 385 M 446 411 L 446 412 L 446 423 L 446 431 L 446 434 M 429 147 L 428 147 L 424 147 L 416 146 L 400 138 L 383 126 L 378 122 L 378 120 L 378 119 L 378 118 L 381 115 L 391 111 L 411 109 L 444 109 L 467 109 L 490 109 L 506 111 L 522 115 L 541 121 L 551 124 L 558 125 L 566 130 L 573 132 L 582 136 L 589 139 L 596 142 L 603 146 M 444 151 L 443 150 L 443 149 L 447 146 L 466 140 L 486 138 L 506 135 L 521 134 L 531 134 L 547 135 L 556 137 L 567 139 L 575 141 L 580 143 L 584 144 L 585 144 L 589 145 L 594 148 L 599 150 L 603 152 M 613 94 L 613 99 M 618 109 L 618 108 L 624 114 L 631 125 L 634 130 L 635 132 M 637 138 L 637 140 L 633 154 L 631 166 M 455 76 L 453 76 L 452 81 L 449 93 L 445 101 L 444 105 L 444 107 L 443 109 M 457 81 L 457 80 L 461 77 L 478 69 L 499 62 L 514 59 L 526 59 L 543 60 L 560 66 L 566 68 L 573 73 L 580 77 L 588 82 L 595 87 L 598 89 L 599 91 L 602 92 L 603 94 L 606 95 M 596 147 L 597 147 L 607 154 L 611 159 L 614 163 L 617 166 M 610 97 L 610 98 L 610 108 L 610 126 L 609 135 L 609 138 L 608 140 M 467 171 L 468 171 L 469 171 L 474 173 L 479 174 L 482 175 L 484 175 L 485 176 L 486 176 M 536 179 L 540 178 L 555 174 L 570 171 L 577 169 M 629 168 L 629 169 L 629 182 L 629 208 L 629 239 L 629 262 L 629 284 L 629 309 L 629 324 L 629 334 L 629 342 L 629 348 L 629 352 M 469 231 L 469 233 L 464 253 L 457 274 L 455 282 L 454 287 L 453 290 L 453 292 M 634 431 L 634 432 L 631 440 L 621 465 L 614 480 L 609 488 M 568 495 L 569 495 L 581 495 L 592 495 L 602 495 L 606 495 M 611 100 L 611 102 L 611 115 L 610 133 L 609 142 L 608 145 L 608 148 L 608 149 M 605 96 L 605 99 L 605 109 L 605 125 L 603 137 L 601 144 L 601 146 L 601 148 L 601 149 L 601 150 M 604 144 L 605 144 L 606 144 L 610 146 L 618 151 L 623 156 L 626 160 L 628 161 L 629 162 L 631 164 M 610 97 L 610 98 L 608 102 L 607 106 L 607 107 M 608 108 L 609 108 L 609 109 L 608 112 L 606 116 M 608 122 L 605 129 L 603 135 L 602 137 M 609 135 L 608 137 L 606 143 L 605 146 M 608 146 L 608 149 L 608 154 M 615 152 L 615 153 L 614 157 M 617 156 L 617 159 L 617 163 M 621 161 L 621 162 L 620 165 M 624 165 L 624 168 M 437 164 L 439 163 L 445 159 L 449 153 L 452 149 L 452 148 M 425 150 L 425 152 L 424 159 L 422 165 M 453 76 L 453 78 L 452 85 L 450 96 L 447 104 L 446 108 L 446 107 L 446 106 L 449 98 L 451 90 L 452 87 L 452 86 M 518 279 L 519 279 L 520 279 L 522 281 L 524 284 L 527 287 L 530 290 L 530 291 M 530 291 L 530 292 L 529 293 L 528 295 M 471 242 L 471 241 L 469 245 L 466 250 L 466 251 M 476 243 L 475 243 L 470 251 L 464 260 L 461 264 L 460 266 M 481 243 L 480 244 L 474 253 L 464 267 L 459 273 L 457 276 L 455 279 M 483 248 L 482 249 L 477 257 L 469 267 L 464 274 L 461 277 L 459 280 L 458 281 L 458 282 L 458 283 L 457 283 M 547 253 L 546 253 L 544 256 L 543 258 M 555 250 L 554 252 L 552 256 L 550 260 M 559 250 L 559 251 L 557 255 L 554 263 L 551 267 M 565 247 L 566 248 L 566 249 L 561 259 L 558 266 L 557 268 L 557 269 L 557 270 L 557 271 L 557 272 L 556 273 L 556 274 M 574 243 L 573 243 L 572 246 L 567 256 L 562 268 L 560 272 L 558 275 L 558 277 L 558 278 L 557 278 L 557 279 M 583 236 L 582 236 L 578 246 L 572 258 L 568 266 L 567 270 L 565 272 L 564 275 L 563 277 L 563 278 M 589 231 L 588 232 L 583 244 L 574 264 L 570 272 L 569 276 L 568 277 L 568 278 L 568 279 M 593 227 L 593 229 L 593 231 L 588 246 L 583 258 L 580 266 L 577 273 L 576 275 L 574 278 L 574 279 L 574 280 L 574 281 L 573 282 M 596 239 L 595 240 L 590 254 L 584 267 L 580 276 L 578 282 L 577 284 M 594 260 L 591 263 L 584 278 L 580 287 L 580 288 M 593 271 L 593 273 L 593 274 L 587 286 L 583 293 L 580 297 L 580 298 M 592 285 L 592 286 L 592 289 L 589 297 L 588 300 M 593 292 L 593 297 L 591 304 M 621 210 L 621 211 L 620 213 L 618 218 L 618 220 M 621 225 L 621 226 L 620 230 L 618 235 L 616 239 L 614 244 M 620 239 L 619 240 L 617 245 L 616 249 M 620 250 L 618 253 L 616 259 L 615 262 M 620 262 L 620 263 L 617 270 L 616 273 M 621 274 L 618 280 L 616 284 L 616 288 M 617 293 L 616 293 L 614 296 L 613 299 M 617 301 L 616 301 L 614 305 L 612 307 M 618 311 L 616 315 L 614 320 L 613 321 L 612 322 M 618 321 L 615 324 L 614 327 L 612 329 L 612 330 M 615 330 L 615 332 L 612 335 M 616 341 L 617 343 L 624 356 L 633 378 L 643 401 L 647 408 L 648 410 L 648 411 M 442 497 L 442 498 L 442 500 L 442 509 L 442 512 L 442 513 L 442 516 M 446 501 L 446 502 L 446 505 L 446 511 L 446 515 M 452 498 L 452 499 L 452 506 L 452 511 M 457 504 L 457 505 L 457 509 L 457 513 M 462 508 L 461 509 L 461 510 L 460 513 L 460 515 M 466 508 L 466 509 L 466 511 L 467 512 M 473 508 L 473 509 L 473 513 M 504 254 L 504 256 L 504 260 L 504 263 L 504 258 L 505 255 L 506 254 L 506 255 L 506 256 L 504 259 L 503 261 L 504 261 L 508 260 L 517 258 L 522 257 L 526 257 L 529 256 L 530 256 L 531 256 L 532 256 L 531 256 L 523 256 L 513 256 L 509 256 L 507 256 L 508 256 L 515 255 L 522 255 L 525 255 L 529 255 L 533 255 L 534 255 L 533 255 L 528 255 L 521 255 L 514 254 L 512 254 L 511 254 L 510 254 L 509 254 L 508 255 L 507 257 L 505 260 L 505 259 L 507 256 L 508 255 L 507 256 L 508 256 L 509 256 L 519 256 L 525 256 L 528 256 L 531 256 L 532 256 L 533 256 L 534 256 L 532 256 L 531 256 L 524 256 L 517 257 L 513 257 L 512 257 L 510 257 L 507 258 L 506 259 L 505 260 M 507 420 L 508 420 L 509 423 L 511 427 M 513 418 L 513 419 L 513 424 L 513 427 M 520 418 L 520 421 M 517 389 L 516 389 L 516 391 L 516 394 M 571 360 L 570 362 L 567 371 L 566 376 L 565 378 L 565 380 L 565 381 M 577 362 L 577 363 L 574 370 L 570 377 L 568 381 L 568 382 L 568 383 M 577 370 L 577 372 L 576 378 L 575 382 L 575 383 M 582 375 L 582 376 L 581 379 L 580 382 M 565 436 L 565 437 L 564 441 L 561 448 L 560 454 L 560 455 M 571 438 L 570 439 L 566 447 L 561 461 L 560 468 M 574 438 L 572 441 L 569 451 L 565 462 L 564 468 L 563 471 M 578 443 L 578 444 L 574 454 L 571 466 L 568 475 L 567 477 L 567 478 M 584 443 L 584 446 L 581 459 L 576 475 L 574 481 L 573 484 M 591 448 L 591 451 L 587 469 L 582 483 L 581 487 L 580 490 M 602 438 L 602 443 L 599 456 L 594 466 L 593 472 M 462 335 L 462 336 L 462 340 L 462 346 L 463 348 L 463 349 L 463 351 M 460 349 L 460 350 L 461 354 L 461 360 M 459 355 L 459 356 L 459 358 M 486 253 L 487 253 L 488 253 L 492 253 L 495 253 L 497 253 L 499 254 L 500 254 L 501 254 M 494 251 L 495 251 L 497 252 L 498 252 M 382 116 L 383 116 L 383 122 L 383 125 L 383 127 M 391 113 L 391 114 L 390 118 L 388 128 L 388 131 L 387 133 M 400 111 L 400 112 L 397 122 L 395 131 L 394 134 M 408 111 L 408 112 L 406 119 L 402 129 L 401 134 L 401 137 M 413 109 L 413 110 L 413 112 L 410 124 L 407 132 L 405 137 L 404 140 M 422 107 L 422 108 L 419 114 L 412 130 L 409 137 L 408 141 M 428 110 L 427 110 L 424 117 L 417 132 L 412 143 L 410 147 L 410 149 M 436 108 L 434 110 L 429 122 L 422 134 L 419 139 L 418 144 L 417 146 M 441 111 L 441 112 L 437 119 L 428 135 L 422 147 L 422 150 L 421 151 M 449 112 L 448 113 L 443 125 L 434 140 L 431 145 L 429 147 L 429 150 L 428 151 M 458 106 L 458 107 L 454 116 L 447 133 L 441 143 L 439 148 L 437 152 L 436 154 L 436 155 L 435 156 L 434 159 M 465 110 L 465 112 L 459 124 L 452 137 L 448 144 L 446 148 L 445 150 L 445 151 M 474 106 L 474 108 L 472 115 L 463 131 L 460 137 L 458 141 L 457 143 L 457 144 M 481 111 L 480 114 L 478 120 L 473 128 L 472 133 L 470 137 L 469 139 L 469 143 M 493 109 L 492 111 L 486 122 L 482 131 L 479 137 L 479 140 M 499 112 L 499 113 L 495 121 L 488 133 L 484 141 M 506 115 L 505 117 L 503 120 L 497 129 L 494 136 L 493 137 M 514 116 L 513 116 L 512 117 L 508 124 L 507 128 L 506 130 L 506 132 M 525 119 L 523 120 L 518 127 L 517 130 M 532 119 L 532 120 L 532 123 L 528 130 L 527 132 L 527 133 M 541 122 L 540 123 L 539 127 L 535 134 M 545 128 L 545 129 L 545 132 L 544 136 M 553 127 L 554 127 L 553 130 L 551 134 L 550 136 M 563 130 L 563 132 L 563 136 L 563 139 M 570 134 L 570 136 L 570 138 L 568 141 M 578 137 L 578 138 L 578 140 L 578 143 M 588 137 L 588 138 L 587 141 L 587 144 M 592 144 L 592 145 M 574 389 L 575 389 L 580 388 L 593 385 L 602 384 M 611 345 L 611 346 L 611 354 L 611 362 L 610 367 L 610 370 L 610 371 M 598 386 L 599 386 L 610 386 L 618 386 L 620 386 L 622 386 L 623 386 L 624 387 M 575 345 L 575 347 L 575 349 L 574 355 L 574 359 L 574 361 M 578 351 L 578 355 L 578 361 M 295 48 L 293 47 L 288 49 L 243 93 L 179 144 L 131 183 L 107 211 L 94 224 L 89 229 L 86 230 L 85 232 L 82 234 L 81 236 M 81 233 L 84 234 L 117 274 L 172 336 L 221 394 M 290 51 L 291 51 L 293 51 L 300 51 L 310 51 L 319 51 L 324 51 L 329 51 L 333 51 M 333 49 L 332 50 L 333 56 L 333 84 L 333 118 L 333 134 L 335 149 L 335 160 L 335 166 L 335 171 L 335 177 L 335 182 M 339 409 L 339 421 L 339 431 L 339 437 L 339 440 L 339 441 L 339 443 L 339 444 L 339 446 L 339 448 L 339 452 L 339 453 L 339 455 L 339 456 L 339 457 L 339 462 M 204 372 L 206 374 L 216 384 L 233 407 L 249 427 L 267 447 L 277 455 L 279 457 L 281 459 L 282 460 L 283 462 M 282 460 L 284 460 L 288 460 L 302 460 L 314 463 L 324 465 L 328 465 L 330 466 L 331 466 M 339 181 L 341 181 L 354 181 L 374 181 L 389 181 L 397 181 L 401 181 L 405 181 L 410 181 L 413 181 L 415 181 L 418 181 L 419 181 M 339 373 L 339 376 L 339 384 L 339 407 L 339 421 L 339 430 L 339 435 L 339 436 M 336 372 L 337 372 L 350 372 L 358 372 L 364 372 L 367 372 M 641 181 L 641 179 L 645 179 L 654 179 L 660 179 L 668 179 L 673 179 L 676 179 L 678 179 L 681 179 L 681 183 L 681 204 L 681 225 L 681 259 L 681 276 L 681 288 L 681 306 L 681 319 L 681 327 L 681 339 L 681 347 L 681 356 L 681 364 L 681 367 L 681 368 L 681 371 L 681 372 L 681 373 L 681 375 L 681 378 M 639 380 L 641 380 L 646 380 L 658 380 L 662 380 L 663 380 L 665 380 L 667 380 L 668 380 L 672 380 L 674 381 L 677 381 M 679 382 L 680 382 L 681 382 L 682 381 L 682 380 L 682 377 L 682 375"
    fill="none"
    stroke="black"
    stroke-width="3px"
    stroke-miterlimit="10"
    stroke-linecap="butt"
    stroke-linejoin="round"/>
</svg>