<svg viewBox="0 0 800 600" xmlns="http://www.w3.org/2000/svg">
  <rect width="800" height="600" fill="white"/>  <path
    d="M 467 198 L 472 215 L 477 231 L 484 244 L 493 254 M 519 267 L 535 270 L 558 274 L 575 274 L 592 272 L 608 268 L 616 264 L 625 258 M 642 235 L 647 225 M 483 186 L 484 186 L 488 183 L 498 180 L 503 180 L 510 182 L 516 184 L 522 186 L 526 189 L 527 190 L 528 191 L 530 193 M 528 191 L 527 191 L 526 199 L 525 206 L 525 205 L 525 200 L 525 198 L 525 201 L 525 203 L 525 199 L 525 196 L 525 197 L 525 198 L 524 201 M 563 205 L 564 205 L 565 205 L 572 203 L 582 202 L 593 203 L 600 204 L 603 205 L 606 207 L 607 210 L 609 211 L 609 212 L 610 212 L 611 212 M 588 210 L 588 211 L 588 214 L 588 219 L 588 218 L 588 213 L 588 209 L 588 210 L 588 211 L 588 218 L 588 221 L 588 217 L 588 213 L 588 212 L 588 213 L 588 220 M 511 249 L 513 249 L 517 249 L 519 249 L 519 251 L 519 254 M 506 251 L 505 251 L 498 257 L 485 275 L 477 288 M 473 290 L 472 290 L 471 294 L 471 298 L 474 299 L 477 298 L 478 296 L 478 292 L 477 288 M 481 299 L 482 298 L 487 291 L 499 276 L 512 261 L 517 255 M 539 271 L 538 271 L 538 272 L 537 277 L 536 280 M 573 277 L 573 278 L 573 281 L 570 288 M 586 281 L 585 281 L 581 281 M 540 321 L 542 321 L 549 316 L 562 312 L 579 309 L 584 306 L 585 305 M 428 360 L 429 360 L 431 364 L 434 377 L 437 389 M 428 362 L 429 361 L 432 358 L 437 356 M 426 360 L 427 359 L 431 357 L 434 355 L 438 353 L 439 353 L 441 353 M 334 355 L 334 356 L 337 363 L 342 383 L 346 397 L 347 404 L 348 406 L 349 408 M 349 408 L 350 408 L 354 408 L 364 408 L 374 409 L 383 411 L 394 413 L 401 415 L 408 415 L 415 417 M 332 352 L 332 353 L 332 355 L 334 357 L 336 361 M 334 352 L 334 351 L 339 352 L 348 354 L 357 354 L 364 354 L 374 354 L 383 355 L 391 356 L 398 356 L 402 356 L 405 356 L 409 358 L 412 358 L 415 358 L 418 358 L 420 358 L 423 358 L 425 358 L 429 358 L 432 358 M 332 351 L 334 351 L 337 350 L 342 348 L 344 347 L 345 347 L 346 347 L 347 347 L 348 347 L 350 346 L 351 346 L 352 346 L 352 345 L 355 344 L 356 344 L 357 344 M 347 346 L 348 346 L 359 346 L 370 346 L 378 346 L 387 348 L 396 348 L 403 349 L 408 349 L 413 350 L 416 350 L 420 350 L 424 351 L 427 351 L 430 351 L 432 351 L 434 351 L 436 351 L 438 351 L 439 351 M 439 353 L 439 352 L 440 352 L 440 355 L 443 365 L 446 380 M 602 324 L 602 329 L 602 349 L 602 388 L 602 424 L 602 436 L 602 438 L 602 441 M 509 394 L 509 393 L 507 392 L 502 392 L 497 393 L 493 395 M 524 489 L 525 489 L 526 491 L 537 498 L 552 504 L 574 510 L 586 513 L 591 515 L 596 516 M 618 288 L 619 288 L 622 290 M 646 303 L 646 305 L 649 317 L 657 352 L 662 376 L 663 389 L 665 402 L 667 408 L 668 413 M 666 406 L 666 407 L 666 409 L 666 420 L 663 430 L 662 436 L 660 441 M 666 421 L 666 422 L 666 435 L 666 453 L 667 467 L 667 478 L 667 486 L 665 494 L 664 498 M 593 518 L 594 518 L 595 518 L 611 515 L 625 511 L 637 508 L 647 501 L 655 496 M 659 491 L 658 492 L 653 498 M 488 396 L 487 396 L 482 398 L 474 407 L 470 414 L 467 421 L 464 432 L 462 444 L 462 451 L 462 456 L 464 462 L 466 467 L 469 472 L 470 473 L 471 473 L 474 474 M 477 477 L 478 477 L 479 477 L 493 477 L 515 479 L 529 479 L 535 479 M 523 482 L 525 482 L 531 487 L 533 488 M 507 397 L 508 397 L 511 396 L 522 395 L 533 403 L 550 412 L 564 421 L 568 424 M 567 421 L 568 421 L 573 425 L 582 440 L 593 447 L 598 452 M 583 435 L 587 434 L 605 432 M 456 373 L 457 373 L 458 373 L 465 372 L 472 372 L 473 373 L 477 380 L 484 389 L 488 396 M 458 383 L 457 383 L 456 383 L 453 386 L 447 389 L 442 391 L 438 392 L 436 393 M 434 391 L 434 390 L 428 389 L 422 388 L 413 388 L 404 388 L 400 388 L 398 388 M 396 384 L 396 385 L 392 387 L 391 391 L 391 394 L 391 397 M 397 398 L 398 398 L 401 400 L 413 402 L 423 405 L 428 406 L 429 406 L 432 407 L 434 407 L 435 408 L 436 408 M 418 406 L 417 406 L 413 412 L 411 416 L 411 418 L 411 419 M 415 424 L 415 425 L 416 426 L 419 430 L 423 433 L 427 435 L 430 436 L 432 438 L 433 438 M 441 440 L 442 440 L 444 438 M 439 435 L 439 436 L 440 437 L 448 438 L 452 438 L 457 437 M 447 372 L 450 372 L 452 372 M 511 280 L 510 280 L 507 280 L 502 280 M 501 281 L 498 285 L 492 293 L 483 306 L 471 322 L 463 332 L 461 335 M 449 273 L 448 273 L 447 272 L 444 272 L 442 272 L 440 272 L 438 274 L 437 278 L 435 280 L 434 284 L 433 288 L 431 290 M 424 303 L 423 305 L 421 307 L 421 308 L 420 310 L 419 312 L 418 312 L 417 314 L 417 316 M 449 274 L 450 274 L 451 274 L 452 274 L 453 276 L 454 278 L 454 279 M 454 279 L 454 280 L 454 282 L 453 284 L 451 288 L 449 290 L 446 295 L 443 299 L 440 304 L 438 308 L 436 311 L 434 313 L 433 316 L 431 318 L 431 320 L 429 322 L 428 323 L 427 324 L 427 326 M 420 310 L 420 311 L 419 314 L 418 317 L 417 319 L 415 320 M 415 316 L 415 317 L 413 317 L 412 318 L 410 318 L 409 318 L 409 319 L 409 320 L 410 322 L 411 323 L 412 323 M 425 324 L 426 324 L 426 326 L 427 327 L 427 329 L 428 330 L 428 331 L 427 332 L 426 332 L 425 331 L 425 330 M 413 324 L 414 324 L 417 324 L 418 326 L 418 327 L 419 327 L 420 328 M 412 325 L 412 326 L 409 331 L 406 336 L 404 339 L 402 342 L 401 344 L 401 345 L 400 346 M 421 332 L 420 332 L 418 334 L 416 338 L 413 342 L 413 343 L 411 345 L 411 346 L 410 347 M 418 279 L 418 278 L 419 277 L 421 276 L 423 274 L 425 274 L 426 274 L 428 280 L 430 286 L 431 294 L 432 298 L 433 300 L 434 303 M 421 297 L 421 298 L 421 299 L 422 306 L 423 310 L 423 311 L 424 311 L 425 311 L 427 310 L 429 308 L 432 307 M 447 306 L 447 305 L 447 304 L 447 302 L 444 300 L 443 299 L 441 299 L 441 302 L 441 305 L 441 309 L 441 311 L 441 313 M 417 278 L 416 279 L 413 284 L 411 287 L 410 289 L 410 290 M 412 289 L 412 290 L 412 292 L 413 302 L 414 308 L 414 312 L 414 314 M 414 307 L 413 308 L 413 309 L 409 314 L 406 320 L 403 324 L 401 326 L 399 329 L 397 332 M 396 332 L 397 332 L 397 333 L 400 335 L 402 337 L 404 339 M 434 320 L 435 320 L 437 320 L 441 322 L 441 323 L 441 324 L 441 328 L 441 330 L 439 334 L 437 337 L 436 338 L 435 341 M 416 346 L 417 347 L 418 348 L 422 348 L 427 348 L 429 346 M 447 307 L 448 307 L 448 308 L 450 312 L 451 316 L 451 320 L 451 322 L 451 325 M 446 333 L 446 332 L 447 332 L 448 329 L 450 327 L 450 326 M 417 344 L 418 344 L 419 344 L 426 344 L 430 344 L 433 342 M 451 329 L 451 330 L 451 332 L 448 337 L 447 339 L 447 340 L 445 342 L 445 343 M 431 346 L 432 346 L 434 346 L 439 346 L 443 344 L 446 342 M 449 342 L 449 343 L 449 346 M 449 339 L 449 340 L 449 342 L 449 346 L 450 348 L 451 350 M 441 353 L 444 352 L 447 351 M 453 342 L 454 342 L 456 344 L 464 350 L 467 352 L 467 354 L 467 358 L 465 365 L 463 370 M 605 525 L 609 536 L 611 541 M 611 546 L 611 547 L 618 561 L 628 577 L 631 585 L 633 586 L 634 591 M 436 516 L 436 517 L 436 536 L 442 569 L 448 592 L 451 600 M 503 293 L 501 294 L 495 301 L 488 309 L 480 316 L 472 322 L 467 327 L 464 333 L 463 341 L 464 351 L 467 360 L 469 368 L 471 374 L 473 378 M 452 441 L 452 442 L 450 449 L 443 465 L 441 477 L 439 483 L 438 486 M 443 484 L 440 486 L 433 500 L 431 509 L 431 514 L 431 519 L 431 523 L 432 525 L 433 527 L 434 528 M 435 517 L 435 519 L 443 528 L 461 541 L 485 555 L 502 561 L 516 565 L 527 568 L 531 569 L 535 569 M 539 567 L 540 567 L 547 566 L 553 562 M 552 562 L 555 563 L 576 567 L 594 567 L 605 566 L 610 563 L 611 562 M 611 547 L 611 549 L 611 555 M 441 539 L 442 539 L 445 542 L 456 550 L 472 559 L 494 569 L 514 574 L 525 578 L 535 580 L 540 581 L 546 582 L 550 583 L 556 584 L 560 584 M 557 586 L 558 586 L 566 586 L 586 580 L 596 577 L 598 576 M 593 578 L 594 578 L 603 571 L 612 566 L 617 562 L 620 562 L 621 560 L 622 559 L 624 558 M 444 527 L 444 528 L 444 531 L 444 537 L 445 541 L 445 545 L 446 547 M 456 538 L 456 539 L 456 542 L 456 550 M 468 547 L 468 548 L 469 553 L 469 558 M 483 553 L 483 554 L 483 555 L 483 562 M 497 558 L 498 559 L 498 565 L 498 569 M 514 564 L 515 568 L 516 573 L 516 577 M 527 571 L 527 572 L 527 573 L 529 578 M 542 570 L 542 571 L 542 574 L 543 580 M 554 568 L 555 568 L 555 572 L 557 580 M 574 567 L 574 568 L 574 572 L 574 580 L 574 582 M 587 568 L 587 570 L 587 575 M 602 566 L 602 567 L 602 570 L 602 573 M 508 308 L 507 308 L 504 309 L 503 311 L 503 312 L 503 314 L 504 315 M 504 312 L 503 312 L 501 313 L 496 316 L 490 321 L 484 327 L 480 331 L 480 333 L 480 335 L 480 338 L 480 339 L 480 343 L 480 346 L 480 349 L 480 353 L 480 358 L 480 361 L 480 364 L 481 367 L 482 370 L 483 373 L 484 374 M 488 336 L 488 339 L 488 355 L 488 367 L 488 374 L 488 379 L 488 381 M 481 373 L 481 374 L 483 377 L 486 377 L 487 377 M 484 339 L 485 336 L 490 329 L 494 323 L 497 319 L 500 317 M 504 312 L 504 313 L 504 316 L 504 318 L 504 320 M 539 327 L 537 327 L 536 327 L 536 328 L 536 330 L 536 332 L 537 334 L 539 335 M 538 335 L 537 339 L 536 355 L 536 372 L 536 384 L 536 393 L 536 395 M 543 338 L 542 344 L 540 363 L 540 386 L 540 402 L 540 408 M 539 329 L 540 329 L 542 329 L 543 329 L 545 331 L 546 331 L 546 334 L 546 336 L 546 338 L 546 339 M 547 336 L 545 339 L 544 343 L 543 347 L 543 349 L 543 351 L 543 353 M 584 310 L 588 309 L 604 300 L 617 293 M 650 280 L 656 286 L 661 294 L 664 298 L 666 303 L 666 307 L 666 308 M 666 304 L 666 305 L 666 309 L 666 323 M 672 338 L 678 350 L 687 363 L 688 371 L 688 378 L 688 384 L 687 393 L 684 401 L 681 407 M 663 430 L 663 428 L 673 413 L 680 401 M 615 177 L 633 198 M 587 165 L 589 165 L 594 167 L 601 171 L 607 175 L 612 177 M 652 117 L 652 118 L 652 121 L 646 142 L 642 163 L 639 173 L 637 178 M 656 123 L 657 124 L 660 128 L 670 143 L 675 155 L 678 167 L 679 172 L 679 178 L 679 182 L 679 186 L 679 189 M 680 185 L 679 185 L 678 186 L 672 198 L 660 213 L 652 226 L 649 229 M 495 86 L 493 87 L 486 98 L 479 108 M 498 89 L 501 88 L 508 83 M 636 96 L 640 100 L 644 106 L 647 109 L 649 110 L 651 112 M 651 112 L 652 113 L 653 117 L 653 124 M 637 190 L 637 191 L 638 200 L 642 219 L 643 230 L 643 234 L 643 237 L 643 240 M 462 166 L 462 167 L 462 182 L 461 208 L 459 237 L 454 260 L 453 270 L 452 274 L 452 276 L 452 281 M 475 233 L 475 234 L 475 243 L 468 277 L 463 314 L 462 332 L 461 338 M 624 207 L 624 221 L 624 278 L 621 345 L 621 388 L 620 406 L 620 418 M 645 231 L 643 240 L 642 290 L 642 363 L 642 426 L 642 447 M 620 405 L 620 406 L 620 415 L 620 432 L 619 445 L 619 448 L 627 448 L 636 446 L 640 445 L 643 444 L 647 443 M 645 230 L 646 230 L 647 230 L 652 230 L 653 230 L 655 232 L 656 237 L 656 240 L 656 245 L 655 249 L 654 253 M 642 259 L 647 257 L 651 256 M 653 226 L 654 226 L 657 229 L 659 232 L 662 236 M 665 235 L 665 237 L 665 249 L 670 296 L 680 341 L 681 352 L 682 354 L 683 356 M 686 415 L 686 416 L 686 418 L 677 457 L 668 500 L 661 524 L 659 535 L 658 540 L 657 542 M 611 543 L 612 543 L 613 543 L 625 544 L 640 544 L 646 543 L 652 543 L 655 543 L 656 542 L 657 542 L 659 542 L 661 541 L 662 541 M 491 169 L 492 169 L 506 173 L 517 175 L 521 177 L 524 178 L 527 178 L 526 178 L 522 175 L 512 172 L 504 169 L 499 168 L 496 167 M 574 195 L 575 195 L 583 195 L 601 193 L 605 192 L 607 192 L 609 192 L 610 192 L 609 192 L 599 192 L 591 192 L 584 193 L 580 194 L 576 194 L 573 194 M 348 389 L 349 389 L 355 391 L 364 392 L 371 392 L 374 392 L 377 392 L 379 392 L 381 392 L 383 393 L 384 394 L 386 394 L 387 394 M 367 375 L 365 376 L 364 377 L 363 380 L 363 381 L 363 382 L 363 383 L 365 384 L 367 385 L 370 385 L 371 385 L 374 384 L 374 382 L 375 380 L 375 378 L 374 377 L 374 376 L 372 376 L 369 376 L 367 376 M 405 386 L 404 386 L 404 384 L 403 383 L 403 381 L 404 379 L 406 378 L 410 377 L 414 379 L 415 380 L 417 382 L 417 384 L 417 386 M 474 148 L 475 148 L 493 147 L 518 147 L 535 152 L 549 156 L 563 160 L 573 162 L 581 164 L 590 167 L 596 169 L 604 173 L 610 174 L 616 175 L 618 176 L 620 178 M 429 126 L 430 127 L 439 133 L 451 141 L 459 146 L 463 148 L 466 150 L 468 152 M 436 126 L 436 125 L 444 123 L 464 118 L 474 116 L 487 114 L 499 114 L 511 114 L 523 114 L 533 115 L 543 117 L 550 119 L 555 121 L 560 122 L 563 123 L 568 125 L 573 127 M 433 112 L 431 114 L 430 119 L 429 123 L 427 125 M 433 115 L 433 114 L 436 112 L 449 108 L 458 107 L 470 106 L 480 106 L 487 106 L 494 106 L 503 106 L 512 106 L 523 106 L 532 106 L 541 107 L 549 109 L 557 111 L 564 112 L 574 114 L 582 116 L 584 117 M 464 146 L 464 147 L 463 159 L 461 171 L 461 179 L 460 182 M 478 147 L 478 148 L 474 158 L 469 176 L 465 188 L 463 195 L 463 199 M 623 192 L 623 194 L 623 209 L 623 221 L 623 227 L 623 228 M 465 158 L 465 157 M 476 150 L 481 148 L 482 148 L 483 148 M 564 121 L 565 121 L 570 124 L 577 128 L 584 131 L 590 135 L 593 137 L 594 137 L 594 138 L 596 139 M 576 116 L 577 116 L 579 117 L 586 121 L 591 124 L 596 128 L 600 130 L 603 131 L 604 132 L 606 134 L 608 135 M 606 136 L 606 137 L 600 141 L 599 142 M 609 138 L 609 139 L 610 142 L 618 156 L 629 176 L 641 193 M 599 142 L 599 144 L 608 166 L 619 186 L 627 197 M 590 272 L 594 271 L 602 269 L 612 268 L 616 268 L 617 268 L 618 268 M 645 278 L 646 278 L 647 278 L 652 281 L 655 282 M 433 343 L 433 342 L 434 341 L 435 339 L 438 337 L 438 336 L 438 335 M 450 469 L 448 470 L 444 477 L 437 488 L 432 496 M 594 523 L 596 524 L 604 534 L 606 539 M 582 280 L 581 280 L 565 289 L 547 301 L 537 308 L 528 314 L 522 317 M 523 322 L 523 323 L 523 328 L 524 330 L 528 331 M 529 277 L 529 278 L 527 283 L 523 296 L 520 307 L 519 310 L 519 311 L 519 313 M 525 271 L 524 271 L 524 270 L 520 270 L 517 271 L 515 272 L 513 275 L 512 278 L 511 280 L 511 282 M 511 282 L 511 283 L 511 284 L 511 292 L 510 299 L 509 304 L 509 307 L 507 309 M 507 313 L 507 314 L 507 317 L 507 320 L 509 320 L 511 321 L 513 321 M 521 294 L 522 295 L 523 295 L 525 297 L 526 298 L 527 298 L 528 298 L 528 299 L 529 299 M 538 302 L 539 302 L 540 302 L 545 302 L 547 302 M 627 196 L 627 197 L 627 201 L 627 207 M 626 192 L 630 196 L 634 199 L 636 200 M 688 398 L 688 399 L 684 416 L 682 436 L 682 445 M 595 517 L 596 517 L 602 526 L 610 541 L 614 549 M 613 545 L 614 548 L 615 554 M 401 185 L 403 187 M 395 185 L 397 187 M 371 197 L 373 199 M 359 203 L 361 205 M 359 215 L 361 217 M 359 221 L 361 223 M 359 227 L 361 229 M 365 227 L 367 229 M 371 233 L 373 235 M 377 233 L 379 235 M 389 233 L 391 235 M 401 233 L 403 235 M 413 233 L 415 235 M 413 239 L 415 241 M 419 239 L 421 241 M 425 239 L 427 241 M 431 245 L 433 247 M 431 251 L 433 253 M 437 251 L 439 253 M 437 257 L 439 259 M 335 251 L 337 253 M 341 251 L 343 253 M 347 257 L 349 259 M 353 257 L 355 259 M 359 257 L 361 259 M 407 209 L 409 211 M 413 209 L 415 211 M 511 262 L 512 262 L 514 263 L 523 266 L 527 267 M 489 252 L 490 252 L 490 253 L 493 255 L 496 256 M 480 282 L 481 282 L 483 282 L 485 284 L 488 287 L 488 288 L 488 289 L 488 290 L 488 292 M 481 285 L 483 287 M 481 289 L 483 291 M 477 289 L 479 291 M 477 285 L 479 287 M 477 293 L 479 295 M 481 293 L 483 295 M 473 293 L 475 295 M 477 297 L 479 299 M 485 289 L 487 291 M 427 116 L 426 116 L 426 113 L 423 107 L 422 100 L 423 98 L 425 100 L 429 101 L 431 102 L 432 101 L 437 94 L 443 88 L 444 88 L 445 89 L 448 100 L 449 109 M 680 181 L 680 180 L 682 177 L 689 167 L 691 164 L 691 175 L 692 179 L 693 179 L 697 180 L 703 181 L 705 183 L 702 185 L 698 186 L 697 186 L 703 192 L 706 195 L 705 197 L 699 198 L 692 197 L 683 190 M 515 53 L 514 53 L 511 61 L 507 74 L 504 82 L 503 84 L 503 86 L 503 88 L 503 89 M 521 39 L 521 40 L 519 44 L 515 52 L 513 57 L 511 60 M 528 41 L 529 41 L 531 39 L 542 36 L 551 34 L 561 34 L 571 34 L 581 34 L 591 34 L 602 34 L 609 35 L 613 36 L 619 36 L 623 37 L 627 39 L 632 41 L 634 41 L 637 43 L 639 44 L 640 44 M 636 42 L 637 42 L 639 44 L 640 46 L 641 47 M 641 45 L 641 46 L 644 49 L 645 52 L 645 53 L 641 60 M 644 51 L 645 51 L 645 52 L 648 55 L 650 59 L 651 59 M 650 60 L 649 60 L 644 69 L 640 81 L 637 92 L 635 102 L 634 104 M 632 113 L 630 114 M 628 107 L 630 109 L 631 110 M 505 90 L 505 91 L 506 91 L 510 94 L 512 95 M 632 100 L 632 99 L 632 100 L 631 103 L 630 106 M 636 113 L 636 115 L 636 116 L 637 116 M 631 99 L 632 99 L 633 102 L 637 107 L 638 110 L 638 111 L 639 111 L 641 114 L 641 115 M 638 112 L 639 112 L 639 113 L 639 115 L 638 119 L 637 119 L 637 118 L 638 115 L 638 116 M 502 87 L 502 88 L 502 89 L 501 90 L 501 92 L 502 94 L 504 95 L 506 96 M 505 96 L 505 97 L 506 98 L 508 100 M 628 113 L 628 114 L 624 122 L 623 130 L 622 134 L 621 137 L 620 138 L 619 140 L 618 141 L 618 142 M 634 116 L 634 117 L 633 122 L 630 133 L 627 141 L 625 145 L 624 147 L 623 148 L 623 149 L 623 150 L 622 150 M 614 146 L 615 146 L 618 146 L 621 147 L 622 147 L 623 147 M 606 136 L 607 136 L 611 136 L 615 137 L 617 138 L 619 138 M 657 152 L 657 153 L 656 157 L 653 166 L 651 172 L 650 175 L 650 177 L 649 179 L 649 180 L 648 181 M 649 179 L 649 180 L 650 185 L 651 192 L 651 196 L 652 198 L 652 201 L 652 203 L 652 204 L 652 206 L 652 207 L 652 208 L 652 210 M 652 210 L 653 210 L 656 205 L 661 196 L 666 190 L 668 187 L 669 185 L 670 183 L 671 183 L 671 182 L 671 181 L 672 180 M 659 147 L 659 148 L 658 150 L 655 157 L 654 160 M 658 149 L 659 149 L 662 155 L 664 161 L 665 165 L 666 170 L 667 173 L 667 176 L 668 178 L 668 179 L 668 181 L 669 182 L 669 183 L 669 184 L 670 185 M 653 178 L 653 179 L 654 185 L 655 191 L 656 194 L 656 196 L 656 197 M 655 198 L 655 197 L 655 196 L 656 194 L 658 191 L 660 190 L 662 188 L 663 187 L 663 186 L 665 185 L 665 184 L 666 183 L 667 183 L 667 182 M 660 160 L 660 161 L 659 162 L 657 170 L 656 174 L 655 177 L 655 179 L 654 181 M 660 161 L 660 162 L 662 169 L 664 178 L 665 182 L 666 183 L 666 185 M 657 174 L 657 175 L 657 176 L 658 178 L 659 178 L 662 178 L 663 178 L 664 182 L 665 182 M 656 181 L 656 182 L 656 183 L 657 183 L 658 183 L 660 183 L 661 183 L 661 184 L 662 185 L 662 186 L 663 186 M 657 173 L 662 173 M 658 174 L 662 174 M 657 172 L 662 172 M 658 175 L 662 175 M 658 171 L 661 171 M 658 176 L 663 176 M 658 170 L 661 170 M 658 169 L 661 169 M 658 168 L 661 168 M 659 167 L 660 167 M 655 187 L 661 187 M 656 188 L 660 188 M 655 186 L 661 186 M 656 189 L 659 189 M 655 185 L 661 185 M 656 190 L 657 190 M 655 184 L 660 184 M 465 151 L 466 151 L 472 149 L 479 146 L 481 146 L 482 146 L 483 146 M 467 186 L 467 187 L 467 189 L 469 198 L 470 206 L 471 208 L 471 210 M 627 263 L 628 263 L 629 263 L 630 263 L 631 262 L 634 259 L 635 255 L 637 250 L 638 247 L 639 243 L 640 242 L 641 243 L 641 244 L 642 248 L 643 251 L 643 252 L 643 253 M 628 269 L 629 268 L 630 267 L 631 266 L 632 266 L 632 267 L 632 269 L 633 271 L 634 275 L 634 278 L 635 280 L 635 282 L 636 282 L 637 282 L 637 281 L 638 280 L 638 278 L 639 275 L 639 274 L 640 274 L 640 273 L 641 272 L 642 272 M 629 267 L 629 268 L 628 268 L 628 269 M 625 263 L 626 263 L 628 262 L 629 262 M 626 269 L 627 269 L 628 269 L 629 269 M 462 227 L 462 226 L 463 226 L 464 222 L 465 218 L 466 216 L 467 216 L 467 217 L 467 220 L 467 225 L 467 229 L 467 231 L 467 232 L 468 233 L 468 232 L 471 229 L 472 228 L 473 228 L 473 229 L 473 233 L 473 235 L 473 236 L 474 237 M 460 234 L 461 234 L 461 236 L 462 238 L 462 240 L 462 244 L 462 248 L 462 250 L 463 250 L 464 250 L 465 250 L 466 247 L 466 245 L 468 242 L 468 240 L 469 239 L 469 240 L 470 241 L 470 242 L 470 243 L 471 243 L 472 242 L 474 242 L 474 241 L 475 240 L 476 240 M 475 234 L 476 234 L 477 234 M 462 225 L 461 225 L 460 225 L 459 225 L 458 225 M 645 260 L 645 261 L 646 264 L 648 268 L 650 270 L 651 271 L 652 272 L 653 272 L 655 271 L 656 268 L 657 266 L 658 266 L 658 267 L 660 271 L 663 275 L 666 279 L 667 282 L 667 284 L 667 286 L 668 287 M 657 283 L 657 284 L 657 285 L 659 287 L 660 287 L 661 287 L 662 286 L 663 286 L 665 290 L 667 293 L 668 296 L 669 298 L 669 299 M 648 256 L 649 256 L 650 255 L 652 253 L 652 252 L 653 251 L 654 250 M 631 202 L 632 203 L 635 222 L 635 245 L 635 249 L 635 240 L 637 220 L 636 215 L 633 232 L 631 247 L 631 246 L 631 232 L 626 210 L 625 207 L 624 212 L 624 244 L 624 267 L 623 267 L 622 259 L 623 241 L 624 220 L 624 214 L 623 233 L 623 249 L 623 251 L 624 242 L 626 228 L 626 227 L 625 241 L 625 261 L 625 263 L 626 255 L 631 237 L 633 231 L 630 242 L 629 250 L 630 242 L 634 235 L 634 236 L 630 250 L 628 262 L 628 261 L 629 257 L 631 246 L 632 244 L 631 246 L 629 256 L 628 256 L 630 248 L 635 238 L 638 235 L 638 241 L 638 250 L 638 249 L 638 242 L 640 233 L 640 234 L 640 239 L 639 245 L 639 244 L 638 231 L 635 219 L 633 216 L 633 217 L 632 228 L 631 234 L 629 224 L 626 212 L 624 209 L 624 211 L 624 230 L 625 245 L 626 246 L 628 241 L 629 225 L 629 223 L 629 226 L 629 242 L 629 251 L 629 250 L 631 242 L 633 237 L 633 243 L 630 252 L 631 251 L 634 246 L 635 244 L 635 245 L 635 251 L 632 260 L 631 260 L 633 256 L 635 249 L 635 247 L 635 249 L 632 255 L 632 243 L 632 226 L 632 220 L 632 233 L 632 244 L 632 242 L 632 225 L 632 205 L 632 201 L 632 210 L 633 224 L 633 223 L 633 217 L 633 200 L 633 198 L 633 205 L 637 223 L 639 231 L 639 219 L 639 209 L 639 210 L 640 218 L 641 227 L 641 226 L 641 222 L 637 209 L 635 200 L 634 200 L 634 210 L 634 212 L 633 210 L 631 200 L 630 199 L 629 203 L 626 220 L 626 222 L 626 213 L 626 201 L 626 200 L 626 205 L 626 218 L 627 220 L 627 214 L 627 201 L 627 200 L 627 212 L 629 227 L 629 226 L 630 218 L 632 208 L 633 208 L 633 215 M 629 272 L 629 273 L 629 275 L 629 293 L 629 314 L 629 320 L 629 318 L 629 301 L 629 285 L 629 281 L 629 282 L 629 303 L 629 317 L 629 303 L 629 286 L 629 278 L 629 277 L 629 287 L 629 298 L 628 297 L 626 290 L 625 280 L 625 274 L 625 276 L 625 281 L 625 295 L 625 301 L 625 300 L 625 287 L 625 276 L 625 275 L 625 276 L 625 293 L 625 321 L 625 337 L 625 336 L 625 329 L 626 312 L 626 297 L 626 299 L 626 312 L 626 344 L 628 361 L 628 360 L 629 341 L 630 321 L 630 313 L 630 331 L 630 367 L 630 383 L 630 381 L 630 358 L 630 327 L 628 312 L 628 313 L 626 335 L 626 366 L 627 381 L 627 380 L 627 375 L 627 355 L 627 345 L 627 346 L 625 359 L 622 383 L 622 396 L 622 399 L 622 394 M 626 337 L 626 338 L 626 350 L 622 383 L 622 410 L 622 421 L 622 420 L 622 409 L 622 382 L 622 357 L 622 351 L 622 352 L 622 375 L 620 402 L 620 407 L 621 401 L 621 378 L 622 353 L 622 340 L 622 341 L 622 345 L 622 372 L 622 398 L 622 405 L 622 403 L 622 377 L 623 361 L 623 381 L 623 412 L 624 429 L 624 430 L 624 427 L 624 409 L 624 396 L 624 397 L 624 410 L 624 429 L 624 437 L 624 433 L 624 413 L 624 404 L 624 405 L 624 420 L 622 436 L 622 445 L 622 446 L 622 442 L 622 440 L 622 442 L 622 448 L 623 448 L 630 446 L 634 445 L 637 443 L 636 443 L 635 443 L 629 444 L 628 445 L 633 444 L 639 441 L 638 441 L 637 441 L 635 444 L 637 444 L 640 444 L 641 441 L 641 437 L 640 428 L 640 415 L 640 409 L 640 410 L 640 422 L 640 436 L 641 437 L 641 436 L 641 421 L 641 409 L 641 407 L 641 410 L 641 427 L 641 436 L 641 435 L 641 427 L 641 405 L 641 399 L 641 403 L 641 421 L 641 436 L 641 442 L 641 441 L 641 423 L 641 399 L 640 394 L 640 399 L 639 417 L 639 437 L 639 438 L 639 434 L 639 412 L 638 394 L 638 393 L 638 404 L 637 428 L 637 438 L 637 437 L 636 418 L 635 386 L 635 373 L 635 374 L 634 396 L 635 427 L 637 436 L 637 429 L 637 414 L 637 395 L 632 377 L 631 376 L 629 390 L 628 415 L 627 426 L 627 423 L 628 397 L 630 376 L 630 374 L 629 392 L 626 423 L 626 438 L 626 437 L 627 424 L 627 405 M 628 331 L 628 332 L 628 342 L 628 360 L 628 368 M 625 271 L 626 271 L 627 271 L 629 270 L 630 269 L 629 269 L 628 269 L 624 269 L 625 270 L 626 270 L 628 269 L 629 270 L 630 277 L 631 284 L 631 283 L 631 281 L 629 274 L 629 270 L 629 271 L 630 274 L 633 283 L 634 284 L 634 281 L 631 274 L 631 270 L 631 271 L 631 272 L 633 279 L 635 286 L 635 285 L 635 283 L 637 289 L 638 290 L 639 290 L 640 287 L 642 284 L 642 282 L 641 282 L 640 285 L 639 285 L 639 284 L 640 280 L 640 277 L 637 282 L 635 286 L 637 284 L 639 282 M 628 272 L 628 273 L 628 278 L 628 284 L 628 283 L 628 279 L 627 272 L 626 272 L 626 276 L 626 286 L 626 285 L 626 283 L 626 276 L 626 277 L 626 281 L 626 293 L 626 294 L 626 292 L 628 282 M 631 277 L 631 278 L 631 289 L 631 309 L 632 321 L 632 320 L 632 314 L 632 294 L 632 285 L 632 287 L 631 308 L 626 346 L 625 356 L 625 347 L 625 333 L 624 327 L 624 338 L 620 355 L 620 356 L 620 346 L 620 332 L 620 330 L 620 334 L 621 352 L 621 371 L 621 373 L 621 371 L 622 352 L 625 336 L 625 337 L 625 345 L 625 368 L 625 384 L 625 383 L 625 369 L 625 346 L 625 344 L 625 354 L 625 380 L 625 401 L 624 402 L 624 386 L 624 358 L 624 356 L 622 369 L 621 397 L 624 405 L 624 391 L 624 363 L 624 358 L 625 365 L 627 388 L 628 403 L 628 400 L 628 381 L 628 367 L 629 365 L 629 384 L 630 408 L 630 409 L 630 395 L 630 366 L 630 360 L 630 362 L 633 379 L 633 392 L 633 391 L 633 381 L 633 367 L 634 369 L 635 378 L 635 394 L 635 397 L 635 386 L 638 369 L 639 368 L 640 372 L 640 386 L 641 394 L 641 393 L 641 386 L 641 372 L 641 371 L 641 375 L 641 388 L 639 395 L 637 380 L 635 371 L 635 372 L 635 385 L 635 403 L 635 404 L 635 402 L 635 389 L 638 377 L 638 374 L 638 376 L 638 385 M 638 290 L 638 292 L 638 318 L 637 349 L 637 362 L 637 361 L 637 348 L 637 322 L 636 297 L 634 291 L 634 293 L 634 298 L 634 329 L 634 362 L 634 377 L 634 376 L 634 371 L 635 351 L 637 327 L 637 313 L 636 307 L 636 308 L 636 323 L 636 362 L 636 386 L 636 384 L 634 376 L 631 362 L 630 344 L 630 342 L 630 344 L 628 362 L 627 367 L 627 362 L 627 337 L 627 322 L 627 324 L 627 349 L 628 364 L 628 363 L 629 358 L 630 338 L 630 328 L 630 330 L 632 351 L 632 360 L 633 359 L 633 339 L 633 321 L 633 315 L 635 326 L 636 325 L 636 320 L 636 311 L 636 300 L 635 295 L 635 291 L 635 287 L 636 283 L 637 283 L 638 288 L 638 296 L 638 302 L 638 301 L 638 300 L 640 289 L 640 287 L 640 288 L 640 299 L 640 312 L 640 327 L 640 332 L 640 331 L 640 315 L 640 303 L 640 301 L 639 308 L 639 326 L 639 344 L 639 354 L 639 358 L 639 357 L 639 356 L 639 341 L 639 327 L 639 328 L 639 338 L 639 354 L 639 371 L 639 376 L 639 374 L 639 372 L 639 355 L 639 348 L 639 351 L 639 364 L 639 367 L 638 361 M 633 323 L 633 324 L 633 326 L 631 337 L 630 338 L 629 331 L 626 318 L 624 314 L 624 315 L 624 328 L 624 338 L 624 337 L 626 327 L 629 314 L 630 312 L 631 322 L 633 347 M 627 386 L 627 390 L 629 405 L 630 421 L 630 433 L 630 434 L 631 430 L 632 410 L 632 389 L 633 386 L 633 395 L 633 414 L 633 434 L 633 437 L 633 433 L 633 413 L 634 405 L 634 406 L 634 424 L 634 438 L 634 441 L 633 440 L 631 440 L 628 441 L 624 441 L 624 440 L 624 435 L 625 426 L 625 421 L 625 423 L 624 435 L 624 442 L 624 443 L 626 438 L 628 430 L 628 428 L 627 435 L 625 441 L 626 442 L 628 442 L 634 438 L 638 433 L 638 431 L 637 430 L 634 432 L 627 437 L 626 442 L 626 441 L 627 440 L 629 431 L 628 429 L 625 435 L 620 447 L 620 449 L 621 447 L 627 439 L 628 437 L 626 444 L 627 446 L 628 444 L 631 435 L 629 419 L 627 409 L 626 409 L 624 416 L 622 431 L 623 433 L 624 427 L 625 415 L 625 406 L 623 401 L 623 417 L 624 423 L 624 422 L 626 411 L 626 395 L 626 394 L 626 399 L 626 410 M 454 271 L 454 272 L 455 273 L 457 275 L 457 276 L 458 277 M 459 275 L 459 276 L 459 278 L 459 280 L 459 281 L 459 283 L 458 285 L 456 287 L 455 290 L 453 292 L 452 293 L 451 294 L 450 295 M 455 292 L 454 292 L 452 295 L 450 297 L 450 298 L 449 300 M 449 296 L 449 297 L 452 302 L 454 308 L 455 311 L 456 313 L 456 314 L 456 315 M 456 309 L 456 310 L 457 314 L 457 319 L 457 325 L 456 330 L 455 334 L 455 336 L 454 337 L 454 338 L 453 339 L 453 340 L 453 341 L 452 342 M 451 343 L 452 343 L 456 346 M 453 339 L 454 339 L 456 341 L 460 343 L 461 344 L 459 343 L 455 339 L 454 338 L 455 339 L 458 341 L 462 344 L 462 343 L 460 341 L 458 336 L 458 337 L 460 341 L 461 346 L 461 345 L 461 338 L 461 326 L 461 318 L 461 319 L 461 321 L 460 330 L 460 331 L 460 328 L 460 316 L 460 310 L 460 321 L 460 332 L 461 333 L 461 327 L 463 319 L 463 317 L 463 319 L 462 329 L 461 334 L 461 333 L 461 329 L 461 322 L 462 321 L 462 323 L 461 331 L 459 336 L 459 335 L 459 331 L 459 325 L 459 326 L 459 330 L 458 335 L 457 337 L 457 333 L 457 328 L 457 329 L 457 331 L 456 337 L 454 340 L 454 339 L 456 335 L 459 322 L 460 311 L 460 303 L 460 304 L 460 313 L 460 320 L 460 319 L 460 315 L 460 302 L 460 293 L 460 294 L 459 298 L 459 305 L 459 306 L 459 305 L 457 299 L 455 294 L 454 294 L 454 296 L 455 304 L 455 306 L 453 301 L 451 295 L 451 296 L 452 300 L 454 305 L 454 304 L 454 300 L 454 298 L 455 300 L 456 306 L 457 309 L 457 308 L 457 306 L 457 301 L 457 298 L 457 299 L 458 306 L 458 317 L 458 318 L 458 312 L 459 297 L 459 293 L 459 295 L 457 308 L 457 319 L 457 318 L 459 310 L 462 294 L 466 283 L 466 284 L 465 287 L 460 305 L 459 310 M 461 285 L 461 286 L 462 289 L 463 303 L 463 312 L 463 311 L 463 306 L 464 290 L 466 281 L 467 282 L 465 296 L 462 311 L 462 310 L 462 301 L 462 287 L 462 284 L 458 293 L 456 298 L 457 298 L 461 290 L 464 282 L 464 283 L 462 294 L 460 302 L 460 301 L 462 294 L 464 282 L 464 281 L 461 286 L 456 302 L 455 304 L 455 303 L 457 296 L 457 290 L 457 291 L 457 293 L 456 294 L 457 290 L 459 286 L 460 286 L 460 293 L 461 296 L 462 294 L 463 285 L 464 273 L 464 270 L 463 274 L 462 284 M 461 243 L 460 244 L 457 255 L 455 264 L 455 269 L 455 268 L 455 262 L 458 248 L 459 244 L 459 251 L 458 260 L 456 264 L 456 263 L 457 257 L 457 254 L 457 256 L 457 263 L 457 270 L 456 274 L 456 273 L 455 270 L 455 269 L 456 270 L 458 274 L 460 275 L 459 274 L 459 273 L 457 268 L 457 269 L 459 273 L 461 278 L 461 277 L 462 271 L 462 268 L 462 269 L 462 278 L 463 282 L 463 281 L 466 271 L 468 262 L 468 261 L 468 265 L 465 277 L 464 282 L 464 276 L 467 263 L 469 258 L 469 259 L 466 272 L 464 280 L 464 273 L 465 264 L 465 265 L 464 270 L 462 279 M 460 240 L 460 241 L 460 243 L 460 245 L 460 243 L 461 238 L 461 236 L 462 243 L 462 248 L 461 249 L 461 247 L 461 243 L 461 244 L 461 246 L 462 251 L 462 252 L 462 253 L 463 253 L 465 251 L 466 249 L 466 250 L 465 251 L 463 254 L 464 255 L 468 252 L 469 251 L 468 251 L 468 250 L 470 246 L 470 242 L 470 243 L 470 244 L 470 247 L 469 248 L 470 245 L 470 242 L 470 244 L 469 250 L 469 251 L 468 250 L 468 247 L 469 245 L 469 246 L 469 250 L 468 251 L 469 249 L 469 244 L 469 243 L 468 245 L 466 250 L 467 249 L 469 246 L 471 242 L 471 243 L 471 245 L 470 251 L 470 253 L 470 251 L 471 246 L 471 245 L 471 246 L 470 253 L 468 261 L 467 263 L 469 257 L 471 250 L 471 245 L 471 244 L 472 244 L 472 245 L 473 245 L 473 246 L 473 249 L 473 248 L 473 244 L 473 243 L 471 246 L 468 258 L 464 272 L 463 275 L 463 273 L 464 267 L 466 262 L 466 260 L 465 266 L 463 275 L 462 276 L 463 269 L 463 259 L 461 256 L 461 257 L 459 267 L 458 270 L 458 269 L 458 260 L 458 252 L 458 251 L 458 252 L 458 260 L 458 265 L 458 264 L 459 258 L 459 252 L 459 251 L 459 253 L 460 263 L 461 267 L 462 260 L 463 252 L 463 251 L 463 254 L 461 263 L 460 269 L 460 268 L 462 261 L 464 255 L 464 256 L 463 260 L 461 269 L 461 270 L 463 265 L 466 255 L 467 254 L 466 256 L 464 266 L 463 269 L 464 267 L 467 260 L 468 257 L 467 266 L 466 270 L 466 269 L 469 260 L 470 256 L 468 261 L 466 272 L 465 274 L 465 273 L 463 266 L 461 260 L 459 259 L 458 260 L 456 266 L 456 272 L 457 272 L 457 271 M 463 269 L 463 270 L 461 277 L 460 283 L 459 284 L 459 283 L 460 277 L 460 274 L 460 275 L 460 283 L 460 288 L 461 287 L 461 284 M 466 153 L 466 154 L 466 155 L 467 163 L 466 171 L 465 174 L 465 171 L 469 158 L 470 152 L 469 160 L 466 170 L 465 177 L 464 178 L 465 173 L 468 161 L 469 155 L 469 156 L 469 157 L 467 167 L 464 177 L 464 180 L 465 179 L 466 177 L 470 162 L 473 150 L 474 146 L 474 145 L 475 145 L 475 146 L 474 150 L 469 166 L 466 176 L 463 184 L 462 188 L 462 192 L 462 191 L 464 186 L 469 167 L 472 156 L 471 157 L 468 165 L 465 177 L 465 176 L 465 173 L 465 164 L 465 158 L 465 159 L 465 166 L 464 168 L 464 167 L 465 158 L 465 152 L 465 153 L 465 158 L 466 158 L 466 156 L 466 151 L 466 152 L 467 152 L 467 151 L 468 149 L 469 149 L 469 150 L 469 151 L 468 153 M 464 195 L 464 196 L 464 202 L 464 209 L 465 210 L 465 207 L 465 196 L 466 190 L 466 198 L 466 206 L 466 211 L 466 213 L 466 212 L 466 205 L 466 194 L 466 193 L 466 197 L 466 206 L 465 213 L 465 215 L 465 214 L 465 206 L 465 205 L 465 207 L 463 215 L 462 220 L 462 219 L 462 215 L 462 206 L 462 200 L 462 201 L 462 207 L 462 216 L 462 219 L 462 218 L 464 211 L 466 204 L 467 204 L 467 208 L 466 215 L 465 218 L 466 212 L 466 213 L 466 214 L 465 218 L 464 221 L 463 222 L 463 223 L 462 224 L 462 223 L 464 219 M 467 207 L 467 208 L 467 210 L 468 214 L 469 218 L 469 222 L 469 223 L 469 218 L 469 213 L 469 214 L 469 215 L 469 221 L 469 226 L 469 227 L 469 222 L 470 215 L 470 216 L 470 217 L 470 223 L 470 227 L 470 229 L 470 228 L 471 228 L 472 224 L 473 225 L 474 227 L 475 231 L 475 230 L 474 225 L 474 226 L 474 227 L 474 232 L 474 231 L 473 226 L 471 217 L 469 211 L 469 210 L 469 215 L 471 222 L 472 223 L 472 222 L 471 216 M 509 265 L 509 266 L 508 270 L 506 276 L 504 280 L 504 281 L 504 282 M 514 263 L 513 263 L 512 267 L 508 276 L 506 282 L 506 281 L 506 280 L 510 271 L 512 266 L 513 266 L 512 269 L 510 278 L 509 280 L 513 272 L 514 268 L 514 269 L 514 273 L 510 281 L 509 281 L 509 280 L 513 273 L 517 267 L 517 268 L 517 269 L 518 271 L 519 271 L 520 269 L 519 267 L 514 265 L 511 266 L 512 266 L 517 266 L 518 266 L 516 266 M 645 259 L 644 259 L 644 261 L 648 260 L 652 256 L 651 256 L 647 261 L 647 263 L 651 261 L 657 256 L 656 255 L 655 255 L 650 260 L 649 263 L 651 262 L 652 260 L 652 261 L 650 266 L 650 268 L 650 265 L 648 264 L 648 265 L 650 267 L 654 268 L 655 268 L 655 265 L 655 263 L 653 264 L 651 268 L 652 269 L 654 268 L 656 264 L 655 261 L 654 261 L 653 264 L 654 265 L 658 263 L 659 258 L 659 253 L 659 254 L 657 257 L 656 261 L 658 257 L 658 249 L 658 247 L 657 250 L 656 259 L 656 258 L 656 257 L 657 246 L 657 235 L 657 233 L 657 236 L 657 243 L 657 248 L 657 249 L 657 248 L 657 239 L 657 234 L 657 235 L 659 241 L 659 250 L 659 251 L 659 246 L 658 237 L 658 238 L 660 247 L 661 257 L 661 261 L 661 260 L 660 252 L 659 240 L 659 236 L 660 240 L 662 249 L 662 256 L 662 257 L 662 256 L 662 248 L 662 240 L 663 238 L 663 239 L 664 245 L 664 255 L 664 263 L 664 262 L 664 257 L 664 246 L 664 238 L 664 239 L 664 245 L 664 260 L 664 269 L 663 269 L 661 262 L 658 256 L 658 257 L 658 259 L 660 267 L 662 269 L 662 268 L 662 267 L 660 261 L 660 262 L 661 264 L 664 272 L 666 275 L 665 272 L 660 264 L 659 264 L 660 269 L 662 275 M 660 291 L 661 292 L 662 293 L 666 298 L 667 300 L 667 298 L 663 292 L 660 289 L 661 290 L 665 297 L 666 302 L 665 297 L 662 287 L 662 288 L 663 289 L 668 297 L 670 300 L 669 298 L 667 293 L 667 292 L 668 295 L 670 307 L 673 320 L 674 323 L 674 321 L 673 314 L 673 306 L 672 303 L 673 314 L 673 326 L 673 327 L 673 324 L 670 305 L 669 297 L 669 298 L 671 311 L 671 326 L 671 328 L 671 323 L 670 310 L 670 306 L 670 308 L 670 320 L 670 327 L 670 326 L 670 323 L 669 311 L 669 304 L 668 305 L 669 313 L 670 321 L 671 325 L 670 328 L 670 327 L 670 325 L 666 313 L 665 311 L 665 315 M 670 335 L 671 334 L 669 328 L 668 322 L 671 333 L 673 340 L 673 339 L 673 337 L 672 322 L 672 318 L 673 321 L 676 336 L 676 345 L 676 347 L 675 336 L 674 332 L 675 344 L 676 348 L 676 345 L 676 346 L 676 347 M 628 101 L 626 106 M 630 107 L 630 108 L 631 109 L 634 114 L 637 118 L 638 119 M 531 48 L 530 48 L 526 54 L 521 65 L 519 74 L 518 77 L 517 79 L 517 80 L 516 82 L 516 83 L 516 84 M 636 51 L 636 52 L 635 55 L 630 70 L 625 80 L 623 89 M 640 45 L 639 46 L 636 55 L 631 69 L 630 74 L 629 78 L 628 81 L 626 86 L 624 91 M 624 112 L 625 112 L 626 111 L 628 109 L 628 108 M 504 89 L 505 89 L 508 89 L 518 89 L 526 89 L 535 89 L 545 89 L 554 89 L 564 89 L 571 90 L 578 90 L 582 91 L 587 92 L 593 94 L 598 95 L 602 96 L 607 97 L 610 98 L 613 98 L 616 99 L 617 99 L 618 100 L 619 100 L 620 100 L 622 101 M 508 98 L 509 98 L 512 98 L 520 98 L 527 98 L 533 98 L 541 98 L 547 99 L 554 100 L 560 100 L 568 100 L 572 101 L 576 102 L 582 103 L 587 104 L 590 105 L 594 106 L 597 107 L 601 108 L 606 109 L 609 109 L 612 110 L 615 111 L 617 111 L 619 111 L 621 112 L 622 112 L 623 113 M 616 95 L 616 96 L 617 98 L 620 104 L 621 106 L 622 107 L 622 108 L 623 109 L 624 110 L 624 111 L 625 112 L 625 113 M 623 86 L 623 87 L 622 88 L 619 93 L 618 96 L 617 99 L 616 100 M 516 81 L 517 81 L 522 80 L 527 79 L 535 79 L 542 79 L 549 80 L 558 80 L 566 80 L 572 80 L 576 80 L 581 81 L 585 82 L 588 82 L 591 83 L 594 84 L 595 84 L 598 85 L 600 85 L 602 86 L 605 87 L 606 87 L 608 88 L 609 88 L 610 88 M 532 48 L 533 48 L 538 47 L 545 45 L 550 44 L 554 44 L 559 44 L 564 44 L 569 44 L 573 44 L 576 44 L 580 44 L 584 44 L 587 44 L 590 44 L 593 44 L 595 44 L 598 44 L 600 45 L 603 45 L 606 46 L 607 47 L 610 47 L 613 48 L 615 48 L 617 49 L 618 49 L 620 50 L 621 50 M 622 50 L 622 51 L 621 58 L 617 71 L 614 81 L 612 87 L 610 92 L 609 94 M 551 47 L 551 48 L 553 49 L 558 51 L 562 52 L 565 52 L 567 53 M 571 51 L 570 51 L 563 57 L 555 65 L 551 70 L 546 75 L 543 78 L 541 79 M 582 52 L 583 52 L 584 52 L 586 52 L 587 51 L 588 51 M 584 51 L 583 51 L 580 54 L 572 63 L 564 75 L 560 81 L 559 82 M 589 51 L 588 51 L 584 56 L 580 64 L 576 69 L 574 72 L 572 75 L 571 77 L 570 78 L 570 79 L 569 80 M 594 52 L 595 52 L 597 52 L 601 49 L 603 48 L 604 48 M 593 53 L 593 54 L 589 60 L 585 66 L 583 69 L 582 71 L 581 73 L 580 74 L 579 77 L 578 78 L 577 80 L 576 80 L 576 81 M 596 51 L 595 52 L 591 57 L 588 61 M 548 46 L 549 46 L 554 50 L 556 51 L 557 52 M 583 52 L 582 52 L 578 59 L 573 66 L 571 70 L 570 71 L 569 71 L 573 66 L 578 58 L 580 54 L 580 55 L 577 59 L 570 68 L 569 70 L 573 67 L 580 56 L 581 54 L 579 56 L 575 63 L 570 70 L 570 71 L 573 69 L 580 60 L 582 57 L 579 60 L 575 66 L 576 66 L 580 60 L 585 53 L 585 52 L 582 57 L 575 66 L 574 69 L 576 67 L 579 61 L 579 62 L 577 64 L 573 70 L 569 75 L 569 74 L 569 73 L 569 72 L 566 74 L 564 76 L 565 76 L 569 73 L 570 72 L 568 76 L 569 76 L 570 76 L 570 75 L 568 76 L 568 79 L 569 78 L 569 77 L 570 76 L 569 76 L 567 76 L 565 77 M 528 50 L 529 50 L 534 49 L 536 48 L 532 53 L 527 62 L 526 64 L 527 61 L 531 51 L 531 49 L 530 50 L 524 62 L 522 70 L 523 70 L 524 68 L 527 59 L 529 52 L 529 51 L 525 63 L 521 80 L 520 82 L 521 77 L 523 69 L 523 68 L 523 69 L 520 76 L 520 80 L 521 80 L 528 79 L 536 75 L 535 75 L 527 75 L 525 76 L 527 76 L 534 76 L 537 75 L 532 76 L 531 77 L 532 77 L 538 77 L 543 77 L 543 76 L 542 76 L 540 77 L 541 77 L 542 76 L 546 69 L 550 63 L 550 62 L 549 63 L 543 71 L 541 76 L 546 71 L 554 62 L 556 56 L 557 56 L 556 58 L 550 68 L 548 71 L 552 67 L 558 60 L 562 53 L 563 51 L 561 56 L 561 57 L 563 55 M 539 49 L 540 49 L 541 48 L 545 47 L 548 47 L 548 48 L 548 47 L 547 47 L 548 47 L 553 52 L 559 55 L 562 56 L 561 56 L 557 56 L 548 54 L 544 53 L 543 53 L 544 52 L 544 50 L 544 48 L 543 47 L 542 47 L 541 48 L 538 53 L 535 58 L 534 58 L 535 57 L 537 50 L 537 49 L 535 56 L 532 66 L 531 72 L 531 71 L 532 64 L 535 53 L 534 52 L 534 53 L 532 59 L 530 66 L 529 71 L 529 70 L 532 62 L 535 52 L 535 50 L 533 53 L 530 64 L 527 72 L 526 73 L 527 70 L 529 61 L 530 57 L 529 57 L 526 69 L 524 77 L 524 76 L 524 75 L 528 69 L 530 64 L 530 65 L 526 71 L 524 78 L 524 77 L 526 74 L 531 66 L 532 64 L 530 65 L 524 74 L 523 77 L 524 77 L 532 72 L 538 67 L 537 68 L 536 68 L 529 74 L 528 77 L 529 77 L 540 72 L 544 68 L 544 67 L 543 69 L 540 74 L 540 71 L 541 60 L 541 52 L 540 52 L 535 63 L 532 78 L 532 77 L 533 75 L 537 60 L 538 53 L 538 54 L 537 57 L 533 70 L 532 72 L 533 71 L 538 62 L 540 57 L 540 58 L 538 67 L 536 73 L 537 72 L 537 71 L 540 60 L 542 51 L 542 52 L 541 56 L 537 70 L 536 75 L 539 70 L 544 61 L 546 54 L 547 50 L 547 51 L 547 52 L 543 68 L 541 79 L 541 78 L 541 72 L 544 61 L 545 54 L 545 55 L 542 70 L 540 79 L 540 78 L 542 72 L 544 62 L 546 58 L 547 58 L 551 57 L 559 55 L 560 54 L 555 58 L 547 64 L 546 66 L 553 61 L 558 56 L 557 56 L 556 57 L 544 65 L 538 68 L 537 67 L 541 59 L 545 53 L 545 54 L 543 59 L 540 65 L 545 57 L 548 51 L 548 52 L 548 54 L 550 61 L 552 61 L 552 55 L 552 50 L 551 50 L 550 54 L 549 59 L 549 58 L 548 55 L 547 51 L 544 60 L 544 66 L 549 58 L 550 54 L 550 58 L 551 57 L 553 54 L 554 54 L 556 54 L 560 53 L 563 52 L 565 52 L 566 50 L 565 50 L 564 50 L 562 52 L 557 54 L 550 59 L 547 62 M 545 63 L 545 65 L 542 71 L 540 75 L 538 77 M 542 51 L 543 51 L 545 50 L 546 49 L 546 48 L 545 48 L 542 47 L 534 51 M 598 55 L 596 57 L 590 67 L 584 76 L 583 77 L 588 70 L 591 61 L 592 56 L 591 59 L 586 69 L 584 75 L 584 74 L 590 66 L 594 61 L 591 66 L 588 73 L 587 77 L 587 78 L 587 79 L 588 81 L 588 83 L 587 83 L 585 83 L 583 82 L 582 82 L 581 80 L 582 80 L 585 80 L 592 80 L 594 79 L 593 79 L 589 79 L 586 79 L 584 79 L 585 79 L 590 80 L 599 84 L 601 84 L 600 84 L 595 84 L 591 81 L 592 81 L 597 84 L 602 85 L 603 85 L 604 85 L 608 85 L 609 85 L 609 83 L 612 75 L 613 68 L 613 66 L 613 68 L 612 80 L 609 90 L 609 91 L 609 89 L 613 74 L 616 62 L 616 60 L 616 69 L 615 83 L 615 82 L 616 75 L 620 65 L 624 57 L 624 54 L 624 53 L 624 54 L 624 55 M 608 50 L 608 49 L 610 49 L 617 50 L 623 52 L 622 52 L 618 51 L 613 50 L 610 47 L 608 47 L 609 49 L 610 55 L 610 60 L 610 59 L 610 58 L 610 51 L 610 50 L 609 50 L 605 58 L 598 68 L 598 67 L 598 66 L 600 57 L 602 52 L 601 53 L 596 60 L 593 64 L 595 62 L 603 57 L 605 53 L 606 52 L 602 57 L 599 60 L 601 55 L 604 50 L 603 50 L 600 54 L 595 60 L 596 60 L 597 60 L 604 54 L 607 49 L 606 47 L 605 48 L 599 53 L 598 56 L 597 57 L 594 57 L 592 57 L 593 55 L 595 52 L 595 53 L 595 54 L 594 60 L 589 72 L 587 81 L 587 80 L 589 77 L 594 68 L 596 62 L 596 63 L 595 66 L 591 79 L 591 81 L 592 80 L 594 71 L 597 60 L 598 58 L 598 59 L 596 70 L 594 78 L 593 79 L 594 77 L 596 65 L 597 60 L 597 64 L 596 74 L 595 79 L 597 72 L 599 66 L 599 69 L 597 79 L 596 81 L 597 77 L 600 67 L 601 64 L 601 65 L 600 74 L 598 83 L 598 82 L 599 80 L 601 71 L 603 64 L 603 65 L 603 67 L 603 76 L 603 79 L 603 76 L 604 67 L 605 62 L 605 63 L 604 71 L 602 86 L 602 88 L 602 86 L 604 78 L 606 67 L 607 64 L 607 66 L 607 76 L 607 80 L 607 79 L 609 69 L 610 59 L 610 55 L 610 65 L 608 83 L 607 88 L 608 86 L 610 77 L 611 70 L 612 63 L 612 64 L 612 75 L 612 77 L 612 72 L 612 64 L 613 59 L 614 59 L 615 59 L 617 58 L 619 56 L 619 54 L 616 54 L 610 54 L 606 54 L 605 54 L 606 54 L 607 54 L 612 54 L 611 55 L 605 59 L 598 68 L 599 67 L 603 61 L 608 54 L 609 53 L 608 56 L 607 63 L 608 63 L 609 58 L 609 53 L 610 50 L 611 50 L 612 52 L 615 55 L 617 58 L 619 60 L 620 62 L 620 61 L 619 60 L 617 54 L 617 53 L 616 55 L 614 65 L 613 67 L 612 65 L 614 55 L 616 48 L 615 49 L 611 52 L 597 70 L 595 72 L 596 70 L 602 60 L 606 54 L 606 55 L 603 62 L 600 71 L 600 70 L 605 63 L 606 58 L 606 59 L 600 71 L 599 78 L 599 77 L 600 70 L 600 69 L 600 73 L 602 81 L 603 83 L 603 82 L 604 80 L 604 75 L 605 80 L 607 83 L 607 82 L 607 79 L 606 79 L 605 82 L 605 89 L 605 88 L 604 88 L 602 82 L 601 81 L 602 85 L 605 86 L 605 85 L 606 80 L 606 70 L 609 63 L 610 61 L 610 62 L 611 73 L 612 75 L 613 73 L 616 63 L 617 59 L 615 68 L 614 68 L 614 66 L 614 56 L 614 53 L 612 54 L 603 67 M 585 71 L 585 72 L 584 73 L 583 78 L 582 77 L 582 73 L 582 74 L 581 77 L 581 80 L 582 80 M 602 52 L 601 52 L 601 54 L 603 56 L 607 56 L 610 56 L 611 56 L 611 64 L 610 69 L 610 67 L 611 62 L 610 63 L 609 63 M 514 99 L 513 100 L 512 102 L 508 106 L 507 107 L 507 108 M 520 100 L 520 101 L 518 103 L 516 107 M 504 93 L 503 93 L 501 96 L 501 97 L 500 98 L 500 99 L 501 100 L 503 102 L 506 103 L 506 104 L 507 104 M 630 104 L 630 105 L 630 106 L 631 105 L 633 103 L 633 101 L 632 101 L 631 103 L 631 104 M 524 98 L 523 99 L 520 104 L 519 105 L 523 103 L 525 99 L 525 100 L 523 104 L 524 104 L 525 102 L 529 98 L 530 97 L 531 98 L 535 100 L 537 101 L 536 101 L 530 99 L 527 98 L 528 98 L 534 99 L 544 100 L 555 101 L 561 101 L 560 101 L 559 101 L 550 101 L 542 101 L 536 101 L 537 101 L 546 101 L 558 102 L 568 103 L 574 104 L 573 105 L 566 105 L 558 104 L 557 104 L 564 104 L 574 104 L 581 106 L 589 108 L 591 109 L 587 109 L 579 108 L 575 106 L 576 106 L 583 108 L 592 110 L 595 111 L 599 112 L 603 113 M 557 101 L 558 101 L 561 101 L 577 103 L 587 105 L 592 106 L 595 108 L 596 108 L 591 107 L 585 105 L 585 106 L 591 109 L 600 111 L 607 112 L 608 112 L 604 111 L 599 109 L 600 109 L 607 111 L 615 113 L 617 113 L 620 113 L 621 113 L 622 114 L 623 114 L 624 115 L 625 116 L 625 117 L 623 120 L 621 124 L 620 125 L 620 127 L 620 126 L 621 125 L 624 118 L 623 116 L 622 117 L 619 125 L 617 131 L 618 131 L 621 125 L 621 121 L 621 122 L 621 126 L 619 133 L 618 134 L 620 131 L 620 128 L 620 129 L 619 131 L 616 137 M 603 132 L 604 132 L 611 133 L 617 133 L 616 133 L 611 133 L 605 131 L 603 131 L 604 133 L 609 136 L 614 137 M 619 115 L 619 116 L 613 126 L 612 132 L 614 131 L 619 121 L 620 118 L 616 125 L 614 133 L 615 132 L 616 130 L 619 122 L 620 116 L 620 117 L 616 122 L 615 127 M 526 105 L 527 105 L 537 106 L 551 109 L 555 110 L 547 109 L 542 105 L 537 104 L 533 103 L 534 103 L 543 105 L 553 106 L 552 106 L 546 106 L 536 104 L 528 102 L 527 102 L 530 103 L 542 104 L 546 104 L 539 104 L 523 103 L 520 102 L 522 102 L 537 104 L 559 105 L 567 105 L 559 104 L 544 102 L 540 101 L 545 102 L 553 104 L 550 104 L 538 101 L 529 99 L 530 99 L 531 99 L 545 103 L 559 103 L 566 104 L 565 104 L 558 104 L 547 104 L 547 105 L 556 106 L 572 110 L 572 111 L 563 108 L 544 104 L 542 104 L 552 106 L 567 110 L 580 113 L 582 114 L 568 113 L 553 110 L 550 109 L 552 109 L 565 112 L 578 114 L 588 117 L 590 117 L 589 117 L 584 116 L 567 111 L 560 110 L 561 110 L 572 112 L 586 115 L 588 115 L 580 112 L 556 107 L 552 105 L 567 107 L 590 109 L 594 109 L 586 109 L 571 109 L 565 109 L 577 111 L 595 115 L 602 115 L 601 115 L 585 112 L 570 111 L 573 112 L 586 116 L 596 117 L 596 116 L 594 115 L 580 108 L 577 107 L 584 110 L 598 113 M 587 109 L 588 109 L 597 111 L 609 113 L 617 115 L 621 116 L 620 116 L 614 116 L 609 117 L 608 119 L 608 121 L 612 120 L 614 116 L 615 116 L 614 116 L 610 125 L 610 132 L 610 131 L 611 130 L 613 122 L 613 117 L 613 118 L 612 123 L 610 132 M 584 118 L 584 119 L 587 121 L 595 126 L 599 128 L 599 127 L 593 123 L 587 119 L 588 119 L 589 120 L 599 127 L 605 130 L 600 127 L 592 121 L 589 120 L 595 123 L 603 128 L 603 127 L 596 120 L 593 116 L 599 120 L 608 125 L 608 124 L 603 117 L 601 115 L 601 116 L 604 124 L 607 127 L 608 126 L 606 119 L 600 116 L 594 116 L 594 119 L 597 122 L 599 122 L 599 121 L 592 117 L 587 116 L 588 120 L 595 123 L 603 124 L 605 121 L 605 117 L 603 116 L 602 119 L 602 127 L 606 130 L 610 126 L 610 117 L 610 115 L 609 115 L 608 124 L 611 128 L 615 125 L 617 118 L 617 115 L 614 115 L 602 118 L 594 119 L 595 119 L 596 119 L 598 118 L 598 117 L 595 116 L 590 118 L 588 119 L 592 120 L 601 120 L 608 119 L 614 118 L 615 117 L 614 117 L 608 116 L 603 115 L 602 115 L 605 117 L 610 117 L 610 116 L 610 113 L 606 113 L 595 122 L 588 126 L 587 126 L 586 125 M 591 122 L 595 123 L 606 129 L 610 131 L 611 131 L 611 130 M 614 115 L 614 116 L 615 121 L 616 125 L 617 124 L 618 120 L 618 116 L 618 117 L 615 121 M 442 126 L 441 126 L 441 129 L 440 131 M 448 123 L 448 124 L 447 127 L 444 132 M 455 122 L 454 122 L 451 127 L 449 135 L 448 138 L 448 140 M 462 122 L 461 123 L 456 131 L 454 140 L 453 143 M 466 120 L 466 121 L 463 131 L 460 143 M 475 116 L 475 117 L 472 125 L 466 143 M 485 115 L 485 117 L 477 128 L 470 145 L 466 152 L 465 154 L 463 157 M 489 117 L 489 118 L 485 126 L 479 137 L 475 144 M 498 113 L 498 114 L 495 119 L 487 131 L 480 144 L 478 146 L 478 147 M 505 115 L 505 116 L 501 120 L 493 134 L 489 142 L 489 145 L 488 146 M 514 116 L 514 117 L 509 123 L 500 137 L 496 143 L 494 147 L 492 151 M 521 117 L 520 118 L 515 125 L 506 140 L 502 147 L 500 149 L 499 152 M 528 117 L 528 118 L 527 118 L 518 133 L 510 147 L 507 150 L 507 151 L 507 154 L 506 155 M 537 118 L 533 123 L 524 138 L 519 145 L 518 148 M 542 117 L 542 118 L 540 122 L 525 143 L 521 153 M 546 123 L 546 124 L 535 138 L 526 153 L 524 155 M 555 124 L 554 124 L 552 127 L 543 141 L 538 150 L 537 153 L 536 154 M 559 124 L 559 125 L 557 128 L 552 137 L 551 141 L 550 145 L 549 148 L 547 152 L 546 155 L 545 157 M 565 127 L 563 129 L 556 142 L 551 154 L 548 159 L 547 161 M 570 127 L 570 128 L 567 135 L 560 145 L 558 150 L 556 154 L 554 158 M 577 129 L 575 132 L 568 144 L 562 155 L 559 159 M 583 129 L 583 131 L 579 136 L 571 150 L 568 158 L 567 160 M 584 136 L 584 137 L 582 141 L 575 154 L 572 162 M 591 138 L 590 138 L 584 147 L 580 155 L 578 161 L 577 163 M 595 142 L 595 144 L 590 155 L 588 164 M 602 147 L 602 148 L 598 156 L 593 166 L 592 171 M 605 161 L 606 163 L 603 170 L 602 175 M 612 167 L 611 172 M 540 272 L 540 273 L 540 279 L 539 286 M 544 273 L 544 274 L 544 275 L 544 279 L 544 282 L 543 284 M 549 273 L 549 274 L 549 277 L 549 283 M 553 273 L 553 274 L 553 279 L 553 285 M 562 274 L 561 276 L 561 281 L 561 284 M 566 276 L 566 277 L 566 280 L 567 283 M 572 276 L 571 279 L 570 284 L 569 286 M 532 278 L 532 279 L 532 281 L 531 287 M 536 280 L 535 281 L 534 285 L 533 290 M 584 272 L 585 272 L 593 270 L 601 269 L 608 269 L 613 269 L 616 269 L 617 270 L 619 272 M 581 281 L 582 280 L 586 278 L 593 276 M 524 327 L 525 328 L 531 328 L 541 325 M 533 312 L 532 312 L 528 317 L 526 320 M 532 477 L 532 478 L 532 480 L 534 486 L 536 490 M 538 479 L 538 480 L 539 483 L 540 489 M 542 477 L 542 478 L 543 482 M 548 470 L 548 472 L 548 477 L 548 479 M 607 413 L 606 415 L 604 426 L 602 441 M 606 425 L 606 426 L 606 434 L 606 444 M 611 428 L 611 434 L 611 441 M 614 435 L 613 437 L 613 441 M 585 433 L 587 435 L 590 440 L 593 443 M 542 322 L 542 323 L 542 326 L 543 328 M 547 316 L 547 317 L 547 321 L 547 327 M 553 315 L 553 317 L 553 323 M 559 317 L 559 319 L 559 322 M 523 303 L 523 304 L 523 307 L 523 312 M 521 309 L 521 310 L 521 315 M 508 389 L 508 390 L 514 395 L 522 400 M 553 414 L 557 417 L 564 418 L 567 418 L 570 418 L 571 418 M 351 392 L 351 393 L 349 399 L 348 402 M 357 394 L 356 394 L 356 395 L 353 400 L 351 406 L 350 410 M 363 392 L 363 393 L 362 394 L 358 402 L 354 410 M 367 394 L 366 394 L 364 398 L 362 404 L 361 407 M 373 391 L 373 392 L 370 398 L 367 406 M 379 394 L 378 395 L 377 400 L 375 406 L 374 408 L 373 409 M 387 394 L 387 395 L 386 397 L 382 403 L 381 407 L 380 408 M 389 400 L 389 401 L 389 402 L 389 406 L 387 412 L 386 414 M 396 401 L 396 402 L 395 407 L 394 412 L 393 414 L 393 415 M 408 404 L 407 405 L 404 410 L 402 415 M 410 407 L 410 408 L 410 409 L 408 415 M 416 403 L 416 406 L 414 411 L 413 413 M 498 370 L 498 371 L 506 376 L 529 391 L 539 397 M 505 387 L 506 387 L 508 388 L 513 390 L 514 391 M 496 323 L 496 324 L 497 325 L 497 327 M 493 327 L 493 328 L 493 329 L 493 331 M 491 331 L 491 332 L 491 333 L 491 335 M 489 335 L 489 336 L 489 337 L 489 338 M 488 346 L 489 348 L 491 350 L 491 352 M 491 360 L 491 362 L 492 364 M 491 365 L 491 366 L 491 367 L 491 369 M 463 440 L 460 442 L 449 459 L 442 472 L 441 475 M 453 431 L 453 432 L 454 433 L 455 437 L 456 439 M 458 423 L 458 424 L 458 428 L 458 437 M 460 416 L 460 417 L 462 425 L 462 431 M 475 464 L 475 468 L 475 473 M 482 467 L 482 470 L 481 476 M 488 473 L 488 474 L 487 477 L 487 480 M 629 503 L 629 504 L 629 507 L 629 508 M 635 499 L 635 500 L 635 501 L 633 507 M 642 493 L 642 494 L 641 500 L 640 504 M 648 487 L 648 491 L 645 498 M 655 487 L 655 488 L 655 489 L 655 494 M 661 487 L 661 488 L 660 492 M 646 278 L 646 279 L 646 280 L 646 292 L 646 302 L 645 307 L 644 309 L 644 312 M 647 237 L 648 237 L 649 237 L 649 238 L 650 238 L 650 242 L 648 246 L 647 248 L 647 249 L 645 251 M 666 322 L 666 323 L 667 326 L 669 335 L 671 343 L 674 348 M 676 343 L 677 343 L 678 346 L 679 351 L 679 350 L 678 344 L 678 341 L 678 345 M 685 401 L 684 402 L 679 407 L 672 417 L 669 422 L 668 424 L 666 425 L 667 425 L 670 421 L 677 412 L 678 409 L 678 410 L 673 419 L 670 429 L 669 433 L 668 433 L 667 427 L 667 422 L 667 423 L 668 429 L 669 442 L 669 454 L 669 460 L 669 459 L 669 453 L 668 439 L 668 432 L 668 433 L 668 439 L 668 457 L 668 470 L 668 477 L 667 479 L 667 472 L 667 460 L 668 457 L 668 467 L 668 479 L 667 487 L 667 486 L 668 477 L 673 459 L 674 452 L 674 453 L 674 458 L 672 475 L 671 484 L 671 483 L 673 472 L 674 454 L 675 442 L 675 441 L 675 448 L 673 466 L 672 478 L 672 481 L 672 480 L 672 474 L 672 462 L 672 457 M 673 444 L 673 445 L 673 447 L 673 462 L 673 474 L 673 473 L 673 469 L 675 454 L 676 444 L 676 445 L 677 456 L 675 466 L 675 467 L 676 462 L 679 443 L 681 430 L 681 431 L 681 435 L 676 457 L 673 466 L 676 452 L 681 427 L 684 417 L 684 416 L 683 425 L 677 450 L 676 460 L 675 459 L 676 451 L 679 433 L 683 419 L 686 409 L 687 405 L 687 407 L 684 418 L 679 435 L 677 442 L 677 441 L 677 430 L 680 417 L 680 416 L 680 417 L 674 438 L 669 454 L 669 453 L 671 445 L 676 425 L 677 414 L 677 415 L 676 418 L 671 436 L 670 440 L 671 434 L 675 421 L 675 420 L 675 425 L 674 442 L 674 447 L 674 446 L 677 431 L 680 418 L 682 412 L 682 413 L 682 420 L 682 419 L 683 416 L 685 408 L 685 407 L 684 409 L 678 418 L 676 420 L 676 419 L 678 410 L 680 404 L 680 405 L 679 410 L 676 422 L 673 428 L 672 429 L 672 421 L 672 418 L 670 428 L 666 443 L 665 446 L 665 443 L 666 433 L 667 431 L 667 435 L 667 451 L 668 467 L 668 470 L 668 469 L 668 458 L 670 447 L 670 446 L 670 452 L 670 466 L 671 470 L 671 467 L 673 454 L 673 449 L 673 458 L 673 459 L 675 451 M 681 418 L 682 418 L 682 417 L 683 413 L 684 408 L 684 407 L 683 409 L 679 419 M 613 513 L 613 514 L 611 522 L 609 532 L 608 537 M 618 514 L 618 515 L 616 518 L 610 529 L 609 533 L 610 532 L 613 525 L 615 517 L 616 517 L 616 521 L 613 531 L 612 537 L 611 539 L 610 538 L 610 535 L 610 536 L 611 537 L 616 540 L 620 542 L 620 541 L 617 539 L 614 538 L 615 539 L 623 543 L 627 543 L 629 542 L 629 541 L 621 541 L 611 541 L 610 541 L 611 542 L 628 544 L 649 542 L 661 540 L 660 539 M 663 492 L 663 493 L 658 500 L 645 513 L 636 519 L 636 520 L 642 515 L 651 506 L 658 501 L 659 501 L 656 503 L 639 516 L 632 522 L 633 521 L 635 518 L 648 509 L 658 501 L 664 495 L 663 495 L 655 500 L 642 510 L 639 512 L 641 511 L 653 502 L 660 497 L 660 496 L 653 501 L 641 508 L 634 513 L 633 514 L 636 512 L 648 506 L 649 506 L 641 507 L 628 511 L 621 513 L 619 513 L 619 514 L 620 514 L 624 514 L 634 512 L 634 511 L 629 512 L 619 517 L 616 518 L 623 517 L 629 515 L 629 516 L 625 520 L 617 534 L 616 537 L 618 530 L 620 519 L 620 518 L 619 520 L 617 530 L 617 532 L 618 524 L 618 518 L 618 519 L 616 525 L 614 534 L 614 535 L 614 534 L 617 525 L 618 521 L 616 531 L 616 537 L 618 537 L 625 529 L 629 522 L 629 520 L 623 526 L 617 536 L 617 535 L 622 527 L 626 519 L 625 519 L 620 526 L 616 534 L 617 534 L 620 528 L 622 522 L 622 523 L 620 531 L 619 540 L 620 537 L 626 527 L 629 517 L 629 516 L 626 519 L 622 526 L 620 529 L 623 529 L 637 521 L 646 515 L 645 515 L 640 519 L 636 525 M 644 513 L 645 513 L 648 511 L 658 504 L 664 498 L 666 496 L 666 495 L 667 495 L 668 493 L 668 492 L 669 491 L 669 488 L 670 484 L 670 481 L 670 478 L 670 475 L 670 476 L 670 482 L 669 497 L 667 504 L 666 507 L 666 509 L 666 508 L 666 506 L 667 498 L 667 494 L 666 495 L 665 499 L 661 515 L 658 527 L 657 531 L 658 524 L 662 510 L 664 500 L 664 501 L 663 505 L 659 519 L 655 535 L 653 541 M 612 540 L 613 540 L 617 540 L 630 541 L 642 541 L 646 541 L 647 541 L 649 541 L 648 541 L 646 541 L 637 541 L 622 541 L 620 540 L 626 540 L 646 540 L 652 539 L 651 539 L 642 539 L 621 539 L 613 539 L 615 539 L 630 539 L 646 537 L 646 536 L 636 537 L 626 539 L 627 539 L 647 535 L 658 531 L 657 531 M 660 504 L 660 505 L 658 509 L 653 524 L 651 533 L 650 535 L 651 535 L 653 531 L 658 517 L 661 508 L 662 507 L 660 512 L 656 529 L 653 539 L 653 538 L 656 524 L 660 509 L 660 505 L 658 509 L 655 523 L 651 533 L 651 532 L 654 520 L 657 507 L 657 508 L 655 511 L 649 525 L 647 533 L 647 532 L 647 530 L 654 516 L 657 507 L 656 508 L 654 514 L 647 529 L 645 531 L 650 518 L 653 507 L 653 508 L 647 516 L 636 534 L 634 536 L 635 534 L 640 523 L 645 513 L 645 514 L 641 521 L 633 533 L 632 534 L 634 527 L 638 515 L 637 514 L 633 521 L 624 534 L 624 533 L 628 523 L 630 515 L 630 516 L 623 527 L 618 537 L 617 537 L 623 528 L 627 522 L 627 523 L 624 529 L 624 534 L 631 529 L 640 520 L 641 517 L 636 525 L 626 540 L 627 539 L 633 533 L 642 521 L 642 518 L 638 521 L 627 531 L 627 532 L 641 529 L 650 526 L 643 528 L 619 534 L 611 539 L 627 537 L 647 531 L 649 531 L 641 532 L 631 537 L 634 537 L 643 533 L 641 531 L 626 532 L 623 535 L 632 530 L 642 522 L 639 518 L 626 522 L 619 527 L 624 524 L 637 516 L 638 514 L 633 515 L 626 516 L 626 517 L 640 513 L 654 509 L 656 508 L 652 512 L 645 519 L 646 518 L 651 512 L 654 506 L 653 507 L 648 515 L 639 530 L 639 529 L 647 517 L 654 507 L 656 505 L 656 506 L 653 517 L 649 529 L 649 528 L 657 515 M 665 504 L 663 507 L 658 516 L 657 518 L 657 519 L 656 521 L 656 518 L 660 507 L 662 500 L 663 499 L 656 508 L 649 523 L 649 522 L 652 518 L 654 515 L 653 517 L 647 529 L 645 541 L 646 540 L 647 538 L 654 530 L 655 529 L 654 531 M 600 519 L 600 520 L 600 523 L 600 528 L 601 529 M 606 521 L 606 522 L 604 528 L 604 533 M 491 483 L 492 484 L 493 486 L 502 505 L 512 523 L 517 532 L 519 535 L 519 537 L 521 539 M 513 489 L 514 490 L 515 492 L 525 508 L 533 520 L 536 524 M 541 523 L 541 524 L 544 528 L 546 531 M 539 480 L 540 480 L 543 480 L 565 480 M 451 478 L 451 479 L 452 487 L 454 495 M 434 528 L 435 528 L 437 528 L 439 528 M 494 592 L 494 593 L 502 596 L 513 600 M 621 561 L 621 562 L 621 563 L 629 581 L 634 598 L 634 600 M 440 541 L 440 542 L 438 546 L 437 549 M 442 545 L 442 546 L 440 550 L 439 555 M 445 546 L 445 547 L 445 548 L 443 552 L 442 556 L 441 558 M 447 548 L 447 549 L 447 552 L 445 557 M 451 548 L 451 549 L 451 551 L 449 556 L 448 559 M 454 551 L 454 553 L 452 559 L 452 561 L 453 561 M 457 552 L 457 554 L 457 558 L 456 561 M 463 556 L 463 557 L 462 562 M 469 558 L 469 559 L 469 561 L 469 564 M 584 580 L 583 580 L 582 584 M 590 581 L 589 581 L 588 584 L 587 586 L 588 586 M 592 581 L 592 582 L 591 585 M 598 578 L 598 579 L 597 583 L 595 589 M 601 577 L 601 578 L 600 583 L 599 586 M 604 573 L 604 574 L 604 576 L 603 581 L 602 583 M 608 570 L 607 573 L 606 578 M 612 572 L 611 573 L 611 578 L 609 582 M 615 566 L 615 567 L 615 569 L 614 574 M 620 566 L 619 569 L 617 574 M 442 557 L 444 557 L 459 559 L 470 561 L 475 562 L 478 562 M 438 560 L 439 560 L 447 561 L 455 564 L 465 566 L 480 569 L 492 573 L 497 573 L 503 575 L 510 576 L 515 576 L 517 577 L 520 577 L 523 579 L 528 580 M 439 566 L 440 566 L 450 568 L 464 571 L 485 576 L 504 579 L 518 583 L 529 584 L 540 586 L 549 586 L 558 588 L 567 589 L 573 589 L 581 589 L 590 589 L 598 589 L 605 590 L 612 590 L 620 590 L 626 590 M 581 583 L 584 583 L 594 584 L 607 584 L 615 584 L 621 586 L 627 587 L 631 587 L 633 587 L 634 587 L 637 587 M 588 581 L 589 581 L 601 581 L 617 581 L 627 581 L 631 582 M 601 575 L 602 575 L 605 575 L 616 575 L 621 575 M 613 571 L 621 571 L 632 571 M 439 571 L 440 571 L 450 573 L 463 575 L 481 580 L 498 583 L 516 587 L 528 589 L 540 590 L 552 593 L 564 594 L 576 594 L 587 594 L 596 595 L 604 596 L 610 596 L 615 596 L 619 596 L 620 596 L 626 596 M 444 580 L 446 580 L 465 583 L 486 586 L 513 592 L 538 596 L 553 596 L 564 597 L 572 598 L 578 598 L 582 598 L 587 598 L 591 598 M 448 586 L 450 586 L 464 589 L 475 591 L 485 594 L 494 595 L 500 595 M 452 594 L 453 594 L 458 594 L 471 597 L 482 598 L 487 600 M 508 596 L 509 596 L 517 596 L 532 597 L 539 597 L 540 597 M 615 596 L 616 596 L 623 596 L 631 596 M 617 590 L 618 590 L 626 590 L 636 589 M 584 598 L 585 598 L 591 600 M 553 540 L 553 541 L 554 542 L 557 545 L 560 546 M 449 486 L 452 490 L 457 506 L 464 517 L 467 520 L 468 523 L 472 527 M 544 482 L 544 483 L 544 488 L 545 495 M 552 482 L 552 486 L 551 491 L 551 492 M 557 484 L 557 487 L 557 490 M 465 413 L 465 414 L 465 415 L 466 422 M 468 411 L 469 412 L 469 415 M 444 281 L 442 284 L 439 290 L 436 295 L 436 296 L 434 299 M 445 288 L 445 289 L 443 291 L 440 298 L 437 302 L 436 304 M 414 324 L 415 324 L 415 325 L 418 325 L 420 327 L 420 329 L 421 330 L 422 330 L 422 331 L 421 330 L 419 328 L 417 325 L 416 324 L 416 325 L 417 325 L 419 328 L 420 329 L 421 330 L 421 331 L 422 331 L 422 332 M 422 331 L 423 331 L 425 331 L 427 331 L 427 330 L 427 327 L 427 328 L 427 329 L 426 331 M 419 317 L 418 317 L 417 317 L 415 317 L 414 317 L 414 316 L 412 316 L 411 316 L 411 317 L 411 318 L 411 320 L 413 321 L 414 322 M 438 273 L 437 274 L 433 282 L 430 286 L 429 288 M 437 310 L 436 311 L 433 315 L 431 319 L 430 321 L 429 322 L 428 323 L 427 324 L 426 325 M 431 312 L 431 313 L 429 314 L 426 318 L 426 320 L 425 321 M 428 309 L 429 308 L 431 306 L 433 303 L 433 302 L 433 303 L 432 303 L 430 307 L 429 307 L 430 307 L 432 304 L 431 305 M 429 288 L 429 289 L 431 295 L 431 298 M 586 421 L 587 421 L 587 423 L 591 429 L 592 433 L 593 433 M 592 412 L 592 413 L 594 420 L 597 429 M 593 390 L 595 397 L 597 409 L 600 420 L 601 424 M 600 389 L 600 390 L 600 391 L 603 404 M 601 378 L 601 380 L 602 387 M 431 107 L 433 109 M 431 113 L 433 115 M 437 107 L 439 109 M 437 101 L 439 103 M 443 101 L 445 103 M 443 95 L 445 97 M 443 107 L 445 109 M 425 107 L 427 109 M 425 101 L 427 103 M 695 179 L 697 181 M 689 179 L 691 181 M 689 185 L 691 187 M 695 185 L 697 187 M 683 185 L 685 187 M 689 191 L 691 193 M 695 191 L 697 193 M 695 197 L 697 199 M 683 179 L 685 181 M 683 191 L 685 193 M 240 75 L 242 77 M 240 70 L 242 72 M 230 70 L 232 72 M 235 70 L 237 72 M 225 70 L 227 72 M 210 70 L 212 72 M 200 70 L 202 72 M 190 70 L 192 72 M 180 70 L 182 72 M 175 70 L 177 72 M 175 75 L 177 77 M 170 90 L 172 92 M 170 95 L 172 97 M 170 105 L 172 107 M 170 110 L 172 112 M 170 120 L 172 122 M 170 130 L 172 132 M 170 140 L 172 142 M 170 145 L 172 147 M 170 150 L 172 152 M 170 155 L 172 157 M 180 155 L 182 157 M 195 155 L 197 157 M 205 155 L 207 157 M 220 155 L 222 157 M 240 65 L 242 67 M 250 70 L 252 72 M 260 70 L 262 72 M 260 75 L 262 77 M 255 90 L 257 92 M 255 105 L 257 107 M 255 120 L 257 122 M 240 85 L 242 87 M 235 85 L 237 87 M 230 85 L 232 87 M 220 85 L 222 87 M 210 85 L 212 87 M 205 85 L 207 87 M 200 85 L 202 87 M 195 85 L 197 87 M 190 85 L 192 87 M 190 90 L 192 92 M 190 95 L 192 97 M 190 100 L 192 102 M 190 105 L 192 107 M 190 110 L 192 112 M 190 115 L 192 117 M 190 120 L 192 122 M 190 125 L 192 127 M 190 130 L 192 132 M 190 135 L 192 137 M 190 140 L 192 142 M 195 140 L 197 142 M 200 140 L 202 142 M 210 140 L 212 142 M 220 140 L 222 142 M 225 140 L 227 142 M 230 140 L 232 142 M 235 135 L 237 137 M 240 95 L 242 97 M 240 105 L 242 107 M 245 105 L 247 107 M 240 115 L 242 117 M 245 115 L 247 117 M 240 120 L 242 122 M 245 120 L 247 122 M 240 125 L 242 127 M 240 130 L 242 132 M 235 110 L 237 112 M 235 95 L 237 97 M 230 90 L 232 92 M 235 100 L 237 102 M 235 115 L 237 117 M 235 120 L 237 122 M 235 125 L 237 127 M 235 130 L 237 132 M 230 110 L 232 112 M 230 100 L 232 102 M 230 95 L 232 97 M 230 115 L 232 117 M 230 125 L 232 127 M 230 130 L 232 132 M 225 90 L 227 92 M 220 90 L 222 92 M 215 90 L 217 92 M 210 90 L 212 92 M 205 90 L 207 92 M 200 90 L 202 92 M 195 90 L 197 92 M 195 95 L 197 97 M 195 100 L 197 102 M 195 105 L 197 107 M 195 110 L 197 112 M 195 115 L 197 117 M 195 120 L 197 122 M 195 125 L 197 127 M 200 125 L 202 127 M 200 130 L 202 132 M 205 130 L 207 132 M 210 130 L 212 132 M 215 130 L 217 132 M 220 130 L 222 132 M 225 125 L 227 127 M 225 120 L 227 122 M 225 115 L 227 117 M 225 105 L 227 107 M 220 95 L 222 97 M 215 95 L 217 97 M 210 95 L 212 97 M 210 100 L 212 102 M 205 100 L 207 102 M 205 105 L 207 107 M 200 110 L 202 112 M 200 120 L 202 122 M 210 125 L 212 127 M 220 125 L 222 127 M 220 105 L 222 107 M 205 110 L 207 112 M 200 115 L 202 117 M 215 120 L 217 122 M 195 130 L 197 132 M 200 135 L 202 137 M 205 125 L 207 127 M 225 130 L 227 132 M 215 135 L 217 137 M 210 135 L 212 137 M 205 135 L 207 137 M 195 135 L 197 137 M 225 135 L 227 137 M 230 135 L 232 137 M 235 105 L 237 107 M 225 95 L 227 97 M 215 105 L 217 107 M 215 115 L 217 117 M 215 110 L 217 112 M 210 110 L 212 112 M 210 115 L 212 117 M 220 100 L 222 102 M 210 105 L 212 107 M 205 115 L 207 117 M 205 95 L 207 97 M 205 120 L 207 122 M 210 120 L 212 122 M 215 125 L 217 127 M 220 115 L 222 117 M 220 120 L 222 122 M 225 100 L 227 102 M 225 110 L 227 112 M 230 105 L 232 107 M 220 110 L 222 112 M 200 95 L 202 97 M 200 105 L 202 107 M 220 135 L 222 137 M 200 100 L 202 102 M 235 90 L 237 92 M 240 100 L 242 102 M 240 110 L 242 112 M 240 90 L 242 92 M 245 130 L 247 132 M 245 135 L 247 137 M 245 140 L 247 142 M 240 140 L 242 142 M 235 140 L 237 142 M 225 155 L 227 157 M 235 155 L 237 157 M 240 155 L 242 157 M 245 155 L 247 157 M 250 155 L 252 157 M 255 155 L 257 157 M 260 155 L 262 157 M 255 75 L 257 77 M 260 85 L 262 87 M 260 100 L 262 102 M 260 105 L 262 107 M 260 115 L 262 117 M 260 125 L 262 127 M 260 130 L 262 132 M 260 135 L 262 137 M 260 140 L 262 142 M 260 145 L 262 147 M 260 150 L 262 152 M 240 135 L 242 137 M 230 120 L 232 122 M 215 100 L 217 102 M 215 85 L 217 87 M 225 85 L 227 87 M 205 140 L 207 142 M 215 140 L 217 142 M 245 100 L 247 102 M 245 110 L 247 112 M 245 125 L 247 127 M 255 70 L 257 72 M 260 110 L 262 112 M 260 120 L 262 122 M 265 125 L 267 127 M 265 115 L 267 117 M 265 110 L 267 112 M 265 100 L 267 102 M 260 95 L 262 97 M 260 90 L 262 92 M 260 80 L 262 82 M 230 65 L 232 67 M 250 65 L 252 67 M 205 70 L 207 72 M 195 70 L 197 72 M 185 70 L 187 72 M 170 70 L 172 72 M 170 75 L 172 77 M 165 80 L 167 82 M 170 100 L 172 102 M 170 85 L 172 87 M 170 80 L 172 82 M 175 80 L 177 82 M 175 90 L 177 92 M 175 100 L 177 102 M 170 115 L 172 117 M 170 135 L 172 137 M 170 160 L 172 162 M 175 160 L 177 162 M 185 160 L 187 162 M 200 155 L 202 157 M 205 160 L 207 162 M 210 155 L 212 157 M 215 155 L 217 157 M 215 160 L 217 162 M 230 155 L 232 157 M 190 155 L 192 157 M 185 155 L 187 157 M 175 155 L 177 157 M 210 65 L 212 67 M 215 65 L 217 67 M 215 70 L 217 72 M 369 375 L 368 375 L 367 375 L 365 376 L 364 377 L 363 378 L 363 379 L 363 381 L 363 382 L 363 383 L 364 384 L 366 385 L 369 386 L 371 386 L 372 386 L 374 385 L 375 383 L 376 382 L 376 381 L 376 379 L 375 377 L 374 375 L 371 374 L 368 373 M 410 378 L 407 378 L 406 378 L 405 380 L 405 381 L 404 383 L 404 384 L 404 385 L 405 385 L 405 386 L 406 387 L 407 386 L 406 385 L 405 383 L 405 382 L 405 381 L 406 379 L 407 378 L 409 377 L 411 377 L 413 378 L 415 379 L 417 381 L 417 382 L 417 384 L 418 385 M 346 377 L 346 378 L 346 380 L 346 384 L 346 387 M 349 383 L 349 384 L 349 388 L 349 390 M 353 387 L 353 388 L 353 390 L 353 392 M 428 382 L 428 383 L 428 387 L 429 389 M 432 385 L 432 386 L 432 388 L 432 389 M 55 300 L 57 302 M 65 300 L 67 302 M 70 300 L 72 302 M 75 300 L 77 302 M 80 300 L 82 302 M 85 300 L 87 302 M 90 300 L 92 302 M 95 300 L 97 302 M 100 300 L 102 302 M 105 300 L 107 302 M 110 300 L 112 302 M 115 305 L 117 307 M 125 305 L 127 307 M 125 310 L 127 312 M 130 315 L 132 317 M 130 320 L 132 322 M 130 330 L 132 332 M 130 340 L 132 342 M 130 345 L 132 347 M 130 350 L 132 352 M 130 355 L 132 357 M 130 360 L 132 362 M 130 365 L 132 367 M 125 370 L 127 372 M 130 370 L 132 372 M 125 375 L 127 377 M 130 375 L 132 377 M 125 380 L 127 382 M 120 380 L 122 382 M 110 380 L 112 382 M 105 380 L 107 382 M 100 380 L 102 382 M 90 380 L 92 382 M 85 380 L 87 382 M 75 380 L 77 382 M 70 380 L 72 382 M 65 380 L 67 382 M 60 300 L 62 302 M 50 300 L 52 302 M 50 305 L 52 307 M 50 315 L 52 317 M 50 320 L 52 322 M 50 335 L 52 337 M 50 345 L 52 347 M 50 350 L 52 352 M 50 355 L 52 357 M 50 360 L 52 362 M 50 365 L 52 367 M 50 370 L 52 372 M 50 375 L 52 377 M 50 380 L 52 382 M 55 380 L 57 382 M 60 380 L 62 382 M 65 315 L 67 317 M 70 315 L 72 317 M 65 320 L 67 322 M 65 330 L 67 332 M 70 330 L 72 332 M 65 335 L 67 337 M 65 340 L 67 342 M 65 345 L 67 347 M 70 350 L 72 352 M 70 355 L 72 357 M 70 360 L 72 362 M 70 365 L 72 367 M 70 320 L 72 322 M 70 345 L 72 347 M 75 365 L 77 367 M 85 365 L 87 367 M 100 365 L 102 367 M 110 365 L 112 367 M 115 365 L 117 367 M 115 370 L 117 372 M 105 365 L 107 367 M 95 365 L 97 367 M 80 365 L 82 367 M 70 370 L 72 372 M 75 370 L 77 372 M 90 370 L 92 372 M 100 370 L 102 372 M 105 370 L 107 372 M 80 320 L 82 322 M 90 320 L 92 322 M 100 320 L 102 322 M 105 320 L 107 322 M 110 320 L 112 322 M 115 320 L 117 322 M 120 320 L 122 322 M 95 320 L 97 322 M 85 320 L 87 322 M 75 320 L 77 322 M 85 325 L 87 327 M 115 325 L 117 327 M 115 335 L 117 337 M 120 335 L 122 337 M 115 345 L 117 347 M 115 355 L 117 357 M 115 360 L 117 362 M 115 340 L 117 342 M 115 330 L 117 332 M 115 350 L 117 352 M 110 360 L 112 362 M 110 345 L 112 347 M 110 335 L 112 337 M 110 330 L 112 332 M 110 340 L 112 342 M 105 355 L 107 357 M 105 360 L 107 362 M 105 345 L 107 347 M 105 335 L 107 337 M 105 330 L 107 332 M 105 350 L 107 352 M 105 340 L 107 342 M 100 330 L 102 332 M 85 330 L 87 332 M 90 330 L 92 332 M 80 330 L 82 332 M 75 330 L 77 332 M 60 325 L 62 327 M 70 325 L 72 327 M 90 325 L 92 327 M 100 325 L 102 327 M 80 325 L 82 327 M 75 325 L 77 327 M 95 330 L 97 332 M 75 335 L 77 337 M 75 345 L 77 347 M 75 350 L 77 352 M 75 360 L 77 362 M 75 340 L 77 342 M 80 340 L 82 342 M 80 360 L 82 362 M 80 345 L 82 347 M 75 355 L 77 357 M 80 355 L 82 357 M 80 335 L 82 337 M 80 350 L 82 352 M 85 335 L 87 337 M 85 345 L 87 347 M 85 360 L 87 362 M 85 355 L 87 357 M 85 340 L 87 342 M 90 340 L 92 342 M 90 345 L 92 347 M 90 335 L 92 337 M 90 360 L 92 362 M 90 365 L 92 367 M 85 350 L 87 352 M 90 350 L 92 352 M 95 350 L 97 352 M 95 335 L 97 337 M 100 335 L 102 337 M 95 345 L 97 347 M 100 345 L 102 347 M 95 370 L 97 372 M 95 355 L 97 357 M 100 340 L 102 342 M 100 350 L 102 352 M 100 355 L 102 357 M 100 360 L 102 362 M 95 360 L 97 362 M 90 355 L 92 357 M 95 340 L 97 342 M 110 350 L 112 352 M 110 355 L 112 357 M 110 325 L 112 327 M 105 325 L 107 327 M 95 325 L 97 327 M 70 335 L 72 337 M 70 340 L 72 342 M 65 365 L 67 367 M 90 315 L 92 317 M 100 315 L 102 317 M 75 315 L 77 317 M 80 315 L 82 317 M 85 315 L 87 317 M 95 315 L 97 317 M 105 315 L 107 317 M 110 315 L 112 317 M 115 315 L 117 317 M 65 350 L 67 352 M 65 355 L 67 357 M 65 360 L 67 362 M 65 325 L 67 327 M 115 300 L 117 302 M 120 300 L 122 302 M 125 300 L 127 302 M 130 300 L 132 302 M 130 305 L 132 307 M 130 310 L 132 312 M 130 325 L 132 327 M 130 335 L 132 337 M 135 335 L 137 337 M 135 340 L 137 342 M 155 215 L 157 217 M 150 215 L 152 217 M 150 220 L 152 222 M 155 220 L 157 222 M 160 220 L 162 222 M 160 215 L 162 217 M 295 335 L 297 337 M 295 340 L 297 342 M 300 335 L 302 337 M 175 445 L 177 447 M 175 450 L 177 452 M 175 455 L 177 457 M 180 450 L 182 452 M 180 455 L 182 457 M 180 445 L 182 447 M 170 450 L 172 452 M 55 540 L 57 542 M 55 545 L 57 547 M 60 545 L 62 547 M 60 540 L 62 542 M 400 455 L 402 457 M 385 450 L 387 452 M 370 450 L 372 452 M 355 450 L 357 452 M 340 450 L 342 452 M 345 450 L 347 452 M 335 450 L 337 452 M 330 450 L 332 452 M 325 450 L 327 452 M 320 450 L 322 452 M 315 450 L 317 452 M 315 460 L 317 462 M 315 475 L 317 477 M 315 495 L 317 497 M 315 505 L 317 507 M 315 515 L 317 517 M 315 525 L 317 527 M 315 530 L 317 532 M 315 535 L 317 537 M 315 540 L 317 542 M 325 540 L 327 542 M 335 540 L 337 542 M 345 540 L 347 542 M 360 540 L 362 542 M 370 540 L 372 542 M 375 540 L 377 542 M 380 540 L 382 542 M 385 540 L 387 542 M 390 540 L 392 542 M 380 450 L 382 452 M 390 450 L 392 452 M 395 450 L 397 452 M 405 450 L 407 452 M 405 455 L 407 457 M 405 460 L 407 462 M 405 470 L 407 472 M 405 480 L 407 482 M 405 485 L 407 487 M 405 495 L 407 497 M 405 500 L 407 502 M 405 505 L 407 507 M 405 510 L 407 512 M 405 515 L 407 517 M 405 520 L 407 522 M 405 525 L 407 527 M 405 530 L 407 532 M 405 535 L 407 537 M 335 470 L 337 472 M 335 480 L 337 482 M 335 490 L 337 492 M 335 500 L 337 502 M 335 510 L 337 512 M 335 515 L 337 517 M 335 520 L 337 522 M 335 525 L 337 527 M 340 525 L 342 527 M 345 525 L 347 527 M 355 520 L 357 522 M 355 525 L 357 527 M 365 525 L 367 527 M 370 525 L 372 527 M 375 520 L 377 522 M 375 525 L 377 527 M 385 520 L 387 522 M 385 510 L 387 512 M 390 510 L 392 512 M 385 500 L 387 502 M 390 500 L 392 502 M 385 495 L 387 497 M 390 490 L 392 492 M 390 485 L 392 487 M 390 480 L 392 482 M 390 475 L 392 477 M 385 475 L 387 477 M 375 470 L 377 472 M 375 475 L 377 477 M 370 475 L 372 477 M 365 475 L 367 477 M 360 475 L 362 477 M 350 475 L 352 477 M 345 475 L 347 477 M 340 475 L 342 477 M 345 485 L 347 487 M 345 500 L 347 502 M 345 510 L 347 512 M 345 520 L 347 522 M 345 515 L 347 517 M 345 505 L 347 507 M 345 495 L 347 497 M 340 485 L 342 487 M 340 480 L 342 482 M 340 495 L 342 497 M 340 505 L 342 507 M 340 510 L 342 512 M 340 515 L 342 517 M 340 520 L 342 522 M 340 500 L 342 502 M 340 490 L 342 492 M 335 475 L 337 477 M 335 485 L 337 487 M 350 450 L 352 452 M 365 450 L 367 452 M 375 450 L 377 452 M 395 455 L 397 457 M 405 465 L 407 467 M 405 490 L 407 492 M 410 500 L 412 502 M 410 490 L 412 492 M 360 545 L 362 547 M 365 545 L 367 547 M 370 545 L 372 547 M 380 545 L 382 547 M 385 545 L 387 547 M 395 540 L 397 542 M 400 540 L 402 542 M 410 540 L 412 542 M 405 540 L 407 542 M 310 455 L 312 457 M 310 460 L 312 462 M 315 465 L 317 467 M 315 480 L 317 482 M 315 490 L 317 492 M 315 500 L 317 502 M 315 510 L 317 512 M 315 520 L 317 522 M 320 530 L 322 532 M 320 540 L 322 542 M 330 540 L 332 542 M 335 545 L 337 547 M 340 540 L 342 542 M 340 545 L 342 547 M 345 545 L 347 547 M 350 545 L 352 547 M 355 545 L 357 547 M 350 480 L 352 482 M 350 485 L 352 487 M 350 490 L 352 492 M 355 480 L 357 482 M 355 485 L 357 487 M 355 490 L 357 492 M 360 485 L 362 487 M 360 490 L 362 492 M 345 490 L 347 492 M 350 495 L 352 497 M 355 495 L 357 497 M 350 500 L 352 502 M 350 505 L 352 507 M 350 510 L 352 512 M 355 505 L 357 507 M 355 510 L 357 512 M 350 515 L 352 517 M 355 515 L 357 517 M 360 505 L 362 507 M 360 510 L 362 512 M 360 515 L 362 517 M 365 505 L 367 507 M 365 510 L 367 512 M 365 515 L 367 517 M 360 500 L 362 502 M 365 500 L 367 502 M 370 505 L 372 507 M 370 510 L 372 512 M 360 495 L 362 497 M 365 495 L 367 497 M 370 495 L 372 497 M 370 500 L 372 502 M 365 485 L 367 487 M 365 490 L 367 492 M 360 480 L 362 482 M 355 500 L 357 502 M 370 490 L 372 492 M 375 490 L 377 492 M 375 495 L 377 497 M 375 500 L 377 502 M 370 480 L 372 482 M 370 485 L 372 487 M 375 485 L 377 487 M 365 480 L 367 482 M 375 480 L 377 482 M 380 495 L 382 497 M 375 505 L 377 507 M 380 500 L 382 502 M 375 510 L 377 512 M 370 515 L 372 517 M 360 520 L 362 522 M 365 520 L 367 522 M 370 520 L 372 522 M 360 525 L 362 527 M 375 515 L 377 517 M 380 505 L 382 507 M 380 510 L 382 512 M 380 515 L 382 517 M 380 490 L 382 492 M 385 490 L 387 492 M 380 480 L 382 482 M 380 485 L 382 487 M 385 485 L 387 487 M 385 480 L 387 482 M 380 475 L 382 477 M 355 475 L 357 477 M 345 480 L 347 482 M 385 470 L 387 472 M 380 470 L 382 472 M 370 470 L 372 472 M 360 470 L 362 472 M 365 470 L 367 472 M 355 470 L 357 472 M 350 470 L 352 472 M 345 470 L 347 472 M 340 470 L 342 472 M 385 505 L 387 507 M 385 515 L 387 517 M 390 515 L 392 517 M 390 505 L 392 507 M 380 520 L 382 522 M 350 520 L 352 522 M 350 525 L 352 527 M 380 525 L 382 527 M 385 525 L 387 527 M 795 210 L 797 212 M 795 205 L 797 207 M 790 205 L 792 207 M 785 205 L 787 207 M 775 205 L 777 207 M 770 205 L 772 207 M 765 205 L 767 207 M 755 205 L 757 207 M 750 205 L 752 207 M 750 210 L 752 212 M 750 225 L 752 227 M 750 235 L 752 237 M 750 245 L 752 247 M 750 255 L 752 257 M 750 260 L 752 262 M 750 265 L 752 267 M 750 275 L 752 277 M 750 280 L 752 282 M 750 285 L 752 287 M 755 290 L 757 292 M 770 290 L 772 292 M 780 290 L 782 292 M 785 290 L 787 292 M 790 290 L 792 292 M 795 290 L 797 292 M 750 220 L 752 222 M 750 250 L 752 252 M 750 270 L 752 272 M 750 290 L 752 292 M 750 240 L 752 242 M 750 230 L 752 232 M 750 215 L 752 217 M 750 295 L 752 297 M 760 295 L 762 297 M 770 295 L 772 297 M 775 295 L 777 297 M 780 295 L 782 297 M 785 295 L 787 297 M 765 220 L 767 222 M 765 230 L 767 232 M 765 240 L 767 242 M 770 240 L 772 242 M 770 245 L 772 247 M 770 250 L 772 252 M 765 255 L 767 257 M 770 255 L 772 257 M 770 260 L 772 262 M 770 265 L 772 267 M 770 270 L 772 272 M 770 275 L 772 277 M 765 260 L 767 262 M 770 230 L 772 232 M 770 225 L 772 227 M 770 220 L 772 222 M 765 270 L 767 272 M 765 275 L 767 277 M 770 280 L 772 282 M 775 280 L 777 282 M 785 275 L 787 277 M 785 280 L 787 282 M 795 275 L 797 277 M 775 270 L 777 272 M 790 275 L 792 277 M 775 275 L 777 277 M 780 275 L 782 277 M 785 270 L 787 272 M 780 270 L 782 272 M 790 270 L 792 272 M 795 270 L 797 272 M 780 265 L 782 267 M 795 265 L 797 267 M 775 245 L 777 247 M 775 255 L 777 257 M 775 260 L 777 262 M 775 230 L 777 232 M 775 220 L 777 222 M 780 230 L 782 232 M 780 245 L 782 247 M 780 250 L 782 252 M 780 260 L 782 262 M 780 225 L 782 227 M 780 240 L 782 242 M 780 235 L 782 237 M 775 240 L 777 242 M 775 235 L 777 237 M 780 220 L 782 222 M 790 225 L 792 227 M 795 225 L 797 227 M 785 235 L 787 237 M 785 230 L 787 232 M 785 220 L 787 222 M 790 220 L 792 222 M 795 220 L 797 222 M 790 235 L 792 237 M 790 245 L 792 247 M 790 250 L 792 252 M 785 225 L 787 227 M 785 240 L 787 242 M 785 250 L 787 252 M 785 255 L 787 257 M 785 260 L 787 262 M 785 245 L 787 247 M 790 265 L 792 267 M 790 230 L 792 232 M 795 230 L 797 232 M 795 245 L 797 247 M 795 255 L 797 257 M 795 235 L 797 237 M 795 250 L 797 252 M 795 260 L 797 262 M 795 240 L 797 242 M 790 240 L 792 242 M 785 265 L 787 267 M 790 260 L 792 262 M 790 255 L 792 257 M 765 235 L 767 237 M 770 235 L 772 237 M 765 250 L 767 252 M 765 245 L 767 247 M 775 265 L 777 267 M 780 255 L 782 257 M 775 225 L 777 227 M 775 250 L 777 252 M 765 265 L 767 267 M 760 270 L 762 272 M 760 380 L 762 382 M 755 380 L 757 382 M 755 385 L 757 387 M 760 385 L 762 387 M 725 50 L 727 52 M 720 50 L 722 52 M 720 55 L 722 57 M 725 55 L 727 57 M 730 55 L 732 57 M 720 60 L 722 62 M 725 60 L 727 62"
    fill="none"
    stroke="black"
    stroke-width="3px"
    stroke-miterlimit="10"
    stroke-linecap="butt"
    stroke-linejoin="round"/>
</svg>