<svg viewBox="0 0 800 600" xmlns="http://www.w3.org/2000/svg">
  <rect width="800" height="600" fill="white"/>  <path
    d="M 683 233 L 683 232 L 673 232 L 637 235 L 584 244 M 426 485 L 428 484 L 443 480 L 481 470 L 520 460 L 565 448 L 604 437 L 625 431 L 635 429 L 646 425 L 656 425 L 662 424 L 663 424 M 683 230 L 683 232 M 676 415 L 676 416 M 626 431 L 629 431 L 646 426 L 671 418 L 680 415 L 683 414 L 683 413 M 691 418 L 776 433 L 800 439 M 575 109 L 575 112 L 575 127 L 575 152 M 575 205 L 575 210 L 575 215 L 575 216 L 575 218 L 575 220 M 682 120 L 682 122 L 682 130 L 682 159 L 682 172 L 682 187 L 682 197 L 682 202 L 682 207 L 682 213 L 682 214 L 682 217 L 682 221 L 682 225 L 682 226 L 682 228 L 682 230 L 682 231 M 571 210 L 569 210 M 499 217 L 456 222 L 437 226 L 425 228 L 416 229 L 405 230 L 399 231 L 396 231 L 395 232 M 398 231 L 397 231 L 395 231 L 387 231 L 380 231 L 378 231 L 375 231 M 383 230 L 378 231 L 355 255 L 321 298 L 290 340 L 275 359 L 266 368 L 261 373 L 259 376 L 256 380 L 251 385 L 248 387 L 247 389 L 245 393 L 243 395 L 242 397 L 241 399 M 240 397 L 241 397 L 242 400 L 242 417 L 242 429 L 242 436 L 242 437 L 242 441 M 12 476 L 14 476 L 17 476 L 51 472 L 93 463 L 127 459 L 167 452 L 187 448 L 196 446 L 202 445 L 205 445 L 207 445 L 211 443 L 215 442 L 220 441 L 225 440 L 226 439 L 229 439 L 232 437 M 521 273 L 492 312 L 465 352 L 444 382 L 433 401 L 425 415 L 420 421 M 574 211 L 574 214 L 574 223 L 574 232 L 574 236 L 574 237 L 574 239 M 585 111 L 585 114 L 585 117 L 585 158 M 585 223 L 585 234 L 585 239 L 585 241 M 401 280 L 402 279 L 426 276 L 461 271 M 527 261 L 530 261 M 402 280 L 402 281 L 402 283 L 402 288 L 402 291 L 402 292 L 402 294 M 402 294 L 401 294 L 400 294 L 396 294 L 390 296 L 389 296 L 386 296 M 386 296 L 386 298 L 386 300 L 386 304 L 386 306 L 386 308 L 386 309 L 386 310 L 386 311 M 386 312 L 385 312 L 380 312 L 374 313 L 372 313 M 372 313 L 372 315 L 372 316 L 372 323 L 372 327 L 372 328 M 371 328 L 371 327 L 370 327 L 365 327 L 360 328 L 358 328 M 357 328 L 357 329 L 357 333 L 357 337 L 357 341 L 357 343 L 357 345 L 357 346 L 357 347 L 357 348 L 357 349 M 357 349 L 356 348 L 354 348 L 348 349 L 342 349 L 341 349 M 341 349 L 341 350 L 341 354 L 341 361 L 341 364 L 341 365 L 341 367 M 341 368 L 339 368 L 332 368 L 328 369 L 327 369 L 325 369 L 323 369 M 321 370 L 321 371 L 321 374 L 321 379 L 321 383 L 321 385 L 321 386 L 321 388 L 321 389 M 318 389 L 317 389 L 315 389 L 310 389 L 308 389 L 307 389 L 305 389 L 303 389 L 302 389 L 301 390 L 299 391 M 299 391 L 299 397 L 300 401 L 300 407 L 300 410 M 288 414 L 286 414 L 285 415 M 285 415 L 285 417 L 285 422 L 285 425 L 285 427 L 285 428 L 285 430 M 240 436 L 242 436 L 244 436 L 251 436 L 266 434 L 272 434 L 274 434 L 279 432 L 281 432 L 282 432 L 284 432 L 285 432 M 286 419 L 287 419 M 300 394 L 301 394 L 303 394 L 318 397 L 342 404 L 361 409 L 375 413 L 386 415 L 393 416 L 399 417 L 404 419 L 408 420 L 409 421 L 410 421 L 414 422 L 416 422 L 417 423 L 418 423 L 420 423 M 319 373 L 322 374 L 339 377 L 387 386 L 415 391 L 436 395 M 284 418 L 285 418 M 294 419 L 321 427 L 349 435 L 371 442 L 386 446 L 392 448 L 393 449 L 396 449 L 399 450 L 405 452 L 408 452 L 408 453 L 411 454 M 301 410 L 303 410 L 312 413 L 328 418 L 341 422 L 354 425 L 364 428 L 369 429 L 374 430 L 380 432 L 386 433 L 390 434 L 396 436 L 400 436 L 402 437 L 405 438 L 406 438 L 407 438 L 409 439 M 286 413 L 287 413 L 288 413 L 298 412 L 302 411 L 303 411 L 304 411 M 288 419 L 289 419 L 292 420 M 321 391 L 323 391 L 326 391 L 361 398 L 399 409 L 421 413 M 338 369 L 339 369 L 348 370 L 369 373 L 387 377 L 403 380 L 414 383 L 416 383 L 419 383 L 424 384 L 426 384 L 428 384 L 429 385 L 431 385 L 432 385 L 433 385 L 435 385 L 436 385 L 438 385 L 438 386 L 439 386 L 440 386 M 344 351 L 344 352 L 347 353 L 365 356 M 357 332 L 360 332 L 375 334 L 398 337 L 423 341 L 431 341 L 438 343 L 448 344 L 452 344 L 454 345 L 457 345 L 462 346 L 464 347 L 465 347 L 466 347 M 354 355 L 358 355 L 368 357 L 391 362 L 419 366 L 441 369 L 446 371 L 451 372 M 371 327 L 373 328 L 385 330 L 415 334 L 439 337 L 450 339 L 454 339 L 456 339 L 459 340 L 460 340 L 462 341 L 467 341 L 468 341 L 469 341 L 470 342 L 471 342 L 472 342 M 401 283 L 402 282 L 410 282 M 512 282 L 513 282 L 514 282 L 515 282 M 494 307 L 495 307 M 399 294 L 400 294 L 402 294 M 282 432 L 283 432 L 290 434 L 311 441 L 344 450 L 355 453 L 365 456 L 377 460 L 383 461 L 388 463 L 394 465 L 397 465 L 400 467 L 402 467 L 405 469 L 409 469 L 410 470 L 411 470 L 412 470 M 420 418 L 420 419 L 416 425 L 411 430 L 409 432 L 408 434 M 410 432 L 410 433 L 410 444 L 410 455 L 410 463 L 410 469 L 410 473 L 410 475 L 410 476 L 410 478 L 410 479 L 410 480 L 410 481 L 410 483 L 410 484 L 410 485 L 410 486 L 410 487 M 410 489 L 412 488 L 416 486 L 423 484 L 428 483 L 432 482 M 373 316 L 375 316 L 386 317 L 409 320 L 435 324 L 448 326 L 456 327 L 460 328 L 465 328 L 469 329 L 471 330 L 475 330 L 478 330 L 479 330 L 480 330 L 481 330 M 383 310 L 384 310 L 391 312 L 403 313 L 419 315 L 438 317 L 456 320 L 466 322 L 473 322 L 477 323 L 481 324 L 483 324 L 484 324 M 404 294 L 405 294 L 420 297 L 440 299 L 465 303 L 474 304 L 480 305 L 485 306 L 488 307 L 490 307 L 491 307 L 492 307 L 493 307 L 495 308 M 406 282 L 407 282 L 421 283 L 441 285 L 464 288 L 481 291 L 491 292 L 496 293 L 500 293 L 502 294 L 503 294 L 504 294 M 390 298 L 391 298 L 398 299 L 420 303 L 443 306 L 457 308 L 471 309 L 476 310 L 480 311 L 484 312 L 488 312 L 489 312 L 491 312 L 493 313 L 494 313 M 574 78 L 574 80 L 575 91 L 575 103 L 575 108 L 575 111 L 575 113 L 575 114 L 575 115 L 575 116 M 573 78 L 574 78 L 593 81 L 611 84 L 629 87 L 635 87 L 639 88 L 645 89 L 649 89 L 656 90 L 663 91 L 667 92 L 668 92 L 671 93 L 675 93 L 677 93 L 679 93 L 679 94 L 682 94 L 683 94 M 682 96 L 682 98 L 682 101 L 682 114 L 682 121 L 682 125 L 682 126 L 681 128 L 681 129 L 681 130 M 585 80 L 585 83 L 585 89 L 585 100 L 585 109 L 585 114 L 585 117 L 585 119 L 585 120 L 585 121 M 534 254 L 533 256 L 530 262 L 523 272 L 516 281 L 511 286 L 510 288 L 509 288 M 532 255 L 534 255 L 545 253 L 568 249 M 560 251 L 562 251 L 590 244 L 628 238 L 646 236 L 649 236 L 650 236 M 506 139 L 510 141 L 518 141 L 524 141 L 532 140 L 538 136 L 543 133 L 546 128 L 547 121 L 547 115 L 547 110 M 511 125 L 510 125 L 511 122 L 513 119 L 515 118 L 517 117 L 521 116 L 522 116 L 523 116 L 524 116 L 525 116 L 526 116 M 524 121 L 523 121 L 523 123 L 523 125 L 523 124 L 523 122 L 523 123 L 523 124 M 536 115 L 535 115 L 535 114 L 537 113 L 540 112 L 542 112 L 543 112 L 544 112 L 544 113 L 544 114 M 538 119 L 538 120 L 538 122 L 538 121 L 538 120 L 538 121 L 538 122 L 538 123 L 538 120 L 538 118 L 538 119 L 538 120 L 538 121 L 538 122 M 527 135 L 527 134 L 527 133 L 528 133 L 529 132 L 530 132 L 531 132 M 520 144 L 521 144 L 523 146 L 524 149 M 529 143 L 530 143 L 533 148 M 541 142 L 540 142 L 537 142 L 532 143 L 529 144 L 528 145 L 526 145 L 525 146 L 524 146 M 523 147 L 523 148 L 523 149 L 525 151 L 525 152 L 526 152 M 526 152 L 527 152 L 528 152 L 534 151 L 537 150 L 538 150 M 538 144 L 538 143 L 539 143 L 540 144 L 540 145 L 540 148 L 540 149 M 519 145 L 518 145 L 517 147 L 517 148 L 517 149 L 517 150 L 518 150 L 519 151 M 520 152 L 522 151 M 516 155 L 515 156 L 515 159 M 529 177 L 529 178 L 530 179 L 530 181 L 530 182 L 530 183 L 530 184 M 530 184 L 531 184 L 536 184 L 540 184 L 544 184 L 547 182 L 549 181 L 551 180 L 552 179 M 542 148 L 543 149 L 544 150 M 554 170 L 554 172 L 554 173 L 554 174 L 554 175 L 554 176 L 554 177 M 529 185 L 528 186 L 522 198 L 515 210 L 511 216 L 509 220 L 506 223 L 506 224 L 505 225 M 504 228 L 505 228 L 508 228 L 511 228 L 514 228 L 515 228 M 516 228 L 517 228 L 519 226 L 525 223 L 527 222 L 529 221 L 531 220 L 532 220 M 533 220 L 535 220 L 542 221 M 565 229 L 568 230 L 570 230 M 558 180 L 558 182 L 561 196 L 567 215 L 569 223 L 571 229 L 572 232 L 574 233 L 574 235 L 575 236 L 576 237 M 535 221 L 534 221 M 544 151 L 545 151 L 558 159 L 570 169 M 559 249 L 560 250 L 560 251 L 561 252 L 561 253 M 513 152 L 513 153 L 510 162 L 505 173 L 502 180 L 502 181 L 502 182 L 502 183 L 502 185 L 501 186 M 495 175 L 500 181 L 503 185 M 529 153 L 528 153 L 528 154 L 528 156 L 528 158 L 528 160 L 529 161 L 529 163 L 530 165 L 531 165 L 532 167 L 532 168 L 534 170 L 534 171 L 534 172 L 534 173 L 535 174 L 535 175 L 535 176 M 535 175 L 536 175 L 541 175 L 548 175 L 551 174 L 553 173 L 554 173 M 519 155 L 518 155 L 517 156 L 516 159 L 516 162 L 516 163 L 516 164 L 517 165 L 519 167 L 520 168 L 522 169 L 523 169 L 523 170 L 524 170 M 524 170 L 525 171 L 526 173 L 526 174 L 527 176 L 527 177 M 517 151 L 515 154 L 513 157 L 512 159 M 513 163 L 513 164 L 513 169 L 513 173 L 513 175 L 513 176 L 515 176 L 519 176 L 522 176 L 524 176 L 525 176 L 526 176 L 526 175 M 518 177 L 517 177 L 514 183 L 511 190 L 508 195 L 506 198 L 506 199 L 505 199 L 505 200 L 504 201 L 504 202 L 504 203 L 503 204 M 503 200 L 504 201 M 480 185 L 491 192 L 497 197 L 501 200 L 503 201 M 484 167 L 485 167 L 487 169 L 495 176 L 499 180 L 502 182 M 484 169 L 484 170 L 484 171 L 484 175 L 482 178 L 479 180 L 479 182 L 478 183 M 459 163 L 458 163 L 457 163 L 457 164 L 456 165 L 456 166 L 456 167 L 457 168 L 458 168 L 458 169 M 458 168 L 458 169 L 458 170 L 458 173 L 458 175 M 458 175 L 457 175 L 457 176 L 457 177 L 457 178 L 457 179 L 458 180 L 460 180 L 461 180 M 460 179 L 460 180 L 463 181 L 467 181 L 469 181 L 471 181 L 472 180 L 473 180 L 474 179 L 475 179 L 476 179 M 474 175 L 474 176 L 474 177 L 474 178 L 474 179 L 474 180 M 472 168 L 472 169 L 472 172 L 472 173 L 472 174 L 472 175 L 472 176 L 472 177 M 460 164 L 460 163 L 461 163 M 472 162 L 473 163 L 474 164 L 474 165 L 474 166 L 474 167 L 473 167 M 473 168 L 473 169 L 473 171 L 473 172 M 461 168 L 462 168 L 465 168 L 468 168 L 469 168 L 470 168 M 457 135 L 457 136 L 457 139 M 457 150 L 458 150 M 460 143 L 459 143 L 459 145 L 459 154 L 459 159 L 459 162 L 459 163 L 459 164 M 460 161 L 459 162 L 459 165 L 459 167 M 472 136 L 472 137 L 472 139 L 473 143 L 473 145 L 473 147 L 473 148 L 474 149 L 474 150 L 474 151 L 473 152 M 470 147 L 471 148 L 471 153 L 471 157 L 471 160 L 471 161 L 472 163 L 472 164 L 472 165 M 457 137 L 458 136 L 459 136 L 459 135 L 460 135 L 461 135 L 462 135 L 463 135 L 465 135 L 467 135 L 469 134 L 470 134 M 471 134 L 472 134 L 472 135 L 472 136 L 472 137 M 463 134 L 462 134 L 461 131 L 460 129 L 460 128 L 460 127 L 460 126 L 461 126 L 461 125 L 462 125 L 464 124 L 465 123 L 465 122 L 466 121 M 467 121 L 468 121 L 468 123 L 469 126 L 469 129 L 469 130 L 469 131 M 476 167 L 477 166 L 478 166 L 479 167 L 479 168 L 479 169 L 479 170 L 479 171 M 474 171 L 475 171 L 478 171 L 479 171 L 480 171 M 478 173 L 478 174 L 478 175 L 477 175 L 476 175 L 474 175 L 473 175 M 477 165 L 476 165 L 477 165 L 477 164 L 478 164 L 479 164 L 480 164 L 480 165 L 481 165 L 481 166 L 481 167 L 482 168 M 482 168 L 483 168 L 483 169 L 484 170 L 485 171 L 485 172 M 477 176 L 478 176 L 479 177 L 480 177 L 481 177 M 458 135 L 458 136 L 458 139 L 458 143 L 458 145 M 551 121 L 551 122 L 550 123 L 550 125 L 553 126 L 556 127 L 558 128 L 561 128 L 561 131 L 561 135 L 561 136 L 562 136 L 563 138 L 563 140 L 563 141 L 561 141 L 559 142 M 544 130 L 546 131 L 547 132 L 549 134 L 550 134 L 550 135 L 550 136 L 548 138 L 548 140 L 548 141 M 551 141 L 552 141 L 555 141 L 558 141 L 560 141 M 501 119 L 501 120 L 501 123 L 501 126 L 501 127 L 504 128 L 507 130 L 507 132 L 507 134 L 506 136 L 506 137 L 506 138 L 506 140 L 506 143 L 504 145 L 503 145 M 491 122 L 490 122 L 489 125 L 488 129 L 488 131 L 490 132 L 494 133 L 497 135 L 497 136 L 497 137 L 497 138 L 497 139 L 496 140 L 495 141 L 494 143 L 494 144 L 495 144 L 495 145 L 495 147 L 494 148 M 495 148 L 498 148 L 503 146 L 504 146 M 541 92 L 541 91 L 544 90 L 551 88 L 554 88 L 554 91 L 554 94 L 554 97 L 554 98 M 502 117 L 503 117 L 507 113 L 511 109 L 511 108 L 512 108 M 512 108 L 512 109 L 512 110 L 513 111 L 514 112 M 514 112 L 515 112 L 518 112 L 522 112 L 526 109 L 530 106 M 531 105 L 532 106 L 534 108 L 536 109 M 538 109 L 539 109 L 541 109 L 544 108 L 549 105 L 552 103 M 553 99 L 551 102 L 550 104 M 492 100 L 492 99 L 493 97 L 497 92 L 502 87 L 509 82 L 514 80 L 519 79 L 525 79 L 529 79 L 532 79 L 534 81 L 536 83 L 536 84 L 537 85 L 537 86 L 538 87 M 490 100 L 489 100 L 488 103 L 483 109 L 481 113 L 481 115 L 481 117 L 482 120 L 483 123 L 484 125 L 485 127 M 486 134 L 486 135 L 486 138 L 486 140 L 485 143 L 481 146 L 480 147 L 480 149 L 480 151 L 480 153 L 482 157 L 483 159 L 485 161 L 485 162 M 484 193 L 485 194 L 485 195 L 485 197 L 482 199 L 480 201 L 480 202 L 480 204 L 480 205 M 480 205 L 480 206 L 482 208 L 485 210 L 493 213 L 496 214 L 499 214 L 501 215 L 504 215 L 506 215 L 508 215 L 510 215 M 575 147 L 575 148 L 575 158 M 584 194 L 584 195 L 584 196 M 581 197 L 582 198 L 583 198 L 584 198 M 590 191 L 593 193 L 595 194 L 597 194 L 598 195 M 599 196 L 600 198 L 600 201 L 600 203 L 599 205 L 597 206 M 584 199 L 585 201 L 589 203 L 592 205 L 594 205 L 595 205 L 596 205 L 597 204 M 585 154 L 585 159 L 585 167 M 586 189 L 586 191 L 586 195 L 586 198 L 586 199 L 586 200 L 585 201 L 585 202 M 586 190 L 588 192 L 590 192 L 590 193 M 586 211 L 586 221 L 586 226 L 586 230 L 586 231 L 586 232 M 529 218 L 527 221 M 526 222 L 526 223 M 563 250 L 565 253 M 516 228 L 516 229 M 512 258 L 511 263 L 510 266 L 509 267 L 509 268 M 530 222 L 530 224 M 521 264 L 520 269 L 519 270 L 519 271 L 519 272 L 518 273 M 512 262 L 513 262 L 514 262 L 516 263 L 519 263 L 520 263 M 510 263 L 510 264 L 508 268 L 507 271 L 507 272 M 481 270 L 482 271 L 486 274 L 489 276 L 494 278 L 496 279 L 497 279 L 497 280 L 498 280 L 499 280 L 500 280 L 501 280 M 501 281 L 502 280 L 506 278 L 508 278 M 509 278 L 509 279 L 509 280 L 509 281 L 510 282 M 510 282 L 510 283 L 512 283 M 481 270 L 481 269 L 482 268 L 483 266 L 483 265 L 484 264 L 485 264 L 485 263 M 486 263 L 487 263 L 489 265 L 493 266 L 496 267 L 499 268 L 501 268 L 502 269 L 503 269 L 504 270 L 506 270 L 507 271 L 509 272 L 510 272 L 511 272 L 512 272 M 562 249 L 563 250 M 533 221 L 534 221 L 535 221 L 537 221 L 539 223 L 541 224 L 542 225 L 545 227 L 547 227 L 550 229 L 552 229 L 554 230 L 557 231 L 559 232 L 560 232 L 561 232 L 562 232 L 563 232 L 564 232 L 565 232 L 566 231 L 567 231 L 568 231 L 569 231 M 545 228 L 547 229 L 551 235 L 554 240 L 558 246 L 560 248 L 560 249 L 561 249 L 561 250 M 562 233 L 563 233 L 564 236 L 569 243 L 571 247 L 573 249 M 533 225 L 533 229 L 530 236 L 528 246 L 525 253 L 523 258 L 522 261 L 521 263 L 521 265 L 521 266 M 521 227 L 521 229 L 518 240 L 515 250 L 513 256 L 512 260 L 512 263 L 512 264 L 512 266 M 523 218 L 522 219 L 521 221 L 521 222 M 539 191 L 538 191 L 536 196 L 531 204 L 528 209 L 527 211 L 526 212 L 526 213 L 526 214 M 525 203 L 524 203 L 521 205 L 515 212 L 511 218 L 509 220 L 509 221 M 522 218 L 522 219 L 521 221 L 520 222 L 520 223 M 555 210 L 554 210 L 552 212 L 549 215 L 548 218 L 547 220 L 546 221 L 546 222 M 540 212 L 540 213 L 540 216 L 537 220 L 536 222 M 532 191 L 533 191 L 539 191 L 544 190 L 547 189 L 551 188 L 554 186 M 553 186 L 554 185 L 555 185 L 556 183 M 529 189 L 530 189 L 531 189 L 532 189 L 535 190 L 538 191 L 539 191 M 556 177 L 556 178 L 557 181 L 558 184 M 534 221 L 534 222 L 534 227 L 532 231 L 532 233 M 476 85 L 476 87 L 478 95 L 480 106 L 481 112 L 481 114 L 481 115 L 481 116 L 482 116 M 476 83 L 477 83 L 485 82 L 492 81 L 499 79 L 505 79 L 510 79 L 512 79 M 497 81 L 496 81 L 496 83 L 496 86 L 497 89 L 498 91 M 477 94 L 478 94 L 481 93 L 483 89 L 484 85 L 484 83 M 478 100 L 479 99 L 482 98 L 486 97 L 487 97 L 488 98 M 546 106 L 546 107 L 546 109 L 546 111 M 536 108 L 537 108 L 538 109 L 539 109 M 465 131 L 465 132 L 465 133 L 465 132 L 465 130 L 465 128 L 465 129 L 465 130 L 465 131 L 465 133 M 454 272 L 455 272 L 464 271 L 473 270 L 477 269 L 480 269 M 464 144 L 464 145 L 465 148 L 466 150 L 467 151 L 467 152 M 463 94 L 462 94 M 452 156 L 453 157 L 453 158 L 453 159 M 453 159 L 452 159 L 452 160 L 451 162 L 450 163 L 450 164 L 449 166 L 449 167 L 449 168 L 449 169 L 449 170 L 449 171 L 449 172 L 450 172 M 450 171 L 449 171 L 448 174 L 448 177 L 448 179 L 449 182 L 450 183 L 451 185 L 453 187 L 455 188 L 457 188 L 459 188 L 461 188 L 463 188 L 464 188 L 465 188 L 466 188 L 468 188 L 469 188 L 470 188 L 471 188 L 472 188 L 473 188 L 474 188 L 475 188 M 472 186 L 472 187 L 474 189 L 476 191 M 477 192 L 476 193 L 475 194 L 474 195 L 471 199 L 471 201 L 470 203 L 470 205 L 471 207 L 472 209 M 471 206 L 471 207 L 471 208 L 473 210 M 373 223 L 374 223 L 384 223 L 400 222 L 419 219 L 435 217 L 447 215 L 456 214 L 460 213 L 464 213 L 468 213 L 471 212 L 473 212 L 474 212 L 475 212 L 475 211 M 472 210 L 473 211 L 474 212 L 475 214 M 368 222 L 369 222 L 374 222 M 375 222 L 374 222 L 362 230 L 344 251 L 325 273 L 307 296 L 296 311 L 292 316 L 287 322 L 282 328 L 281 330 L 279 333 L 278 334 L 277 335 L 276 336 L 274 337 L 272 342 L 269 345 L 268 347 L 267 349 M 284 330 L 281 331 L 269 344 L 255 361 L 241 377 L 229 391 L 226 395 M 229 390 L 229 391 L 230 400 L 231 415 L 231 426 L 231 428 M 230 425 L 229 425 M 461 93 L 463 93 L 466 94 L 467 94 L 468 94 M 468 81 L 468 85 L 469 91 L 469 93 L 469 94 L 470 95 L 470 96 M 466 78 L 466 79 L 471 78 L 478 76 L 484 74 L 490 73 L 493 73 L 498 72 L 503 72 L 510 72 L 515 72 L 519 72 L 521 71 L 523 71 L 524 71 L 525 71 L 526 71 M 523 72 L 522 72 L 523 71 L 527 71 L 532 71 L 535 71 L 538 71 L 540 73 L 541 74 L 542 75 L 543 77 L 543 78 L 543 80 L 543 81 M 544 81 L 544 80 L 546 80 L 550 80 L 553 80 L 555 80 L 556 80 L 558 81 L 560 81 L 561 83 L 562 85 L 562 87 L 562 90 L 562 92 L 563 93 L 563 96 L 563 98 L 563 99 L 563 101 L 561 104 L 560 107 L 559 108 L 558 111 L 556 114 L 554 115 M 554 115 L 555 115 L 556 115 L 558 116 L 559 118 L 560 118 L 561 120 L 562 120 L 563 121 L 564 121 L 565 122 L 566 123 L 566 124 L 567 124 L 568 125 L 568 126 L 569 126 M 569 126 L 569 127 L 569 128 L 569 130 L 569 132 L 569 134 L 569 135 L 569 137 L 569 139 L 569 140 L 568 143 L 567 144 L 566 146 L 566 147 L 565 147 L 565 148 M 553 148 L 554 148 L 556 148 L 559 148 L 561 148 L 562 148 L 563 148 L 564 148 L 565 148 L 566 148 M 556 149 L 557 149 L 560 152 L 564 155 L 567 157 L 568 158 L 569 159 M 569 144 L 569 146 L 569 151 L 569 155 L 569 156 L 570 158 M 567 65 L 567 66 L 567 70 L 567 79 L 567 85 L 567 91 L 567 97 L 567 102 L 567 105 L 567 108 L 567 110 L 567 114 L 567 116 L 567 118 L 567 119 L 567 121 L 567 122 L 567 124 L 567 126 L 567 128 M 567 70 L 568 70 L 577 70 L 596 73 L 624 77 L 647 81 L 661 83 L 673 84 L 680 85 L 686 86 L 689 87 L 692 87 M 677 234 L 678 234 L 682 233 L 685 233 M 686 240 L 685 280 L 683 333 L 683 360 L 683 370 L 683 374 M 683 367 L 683 368 L 683 375 L 683 388 L 683 397 L 683 402 L 683 405 L 683 407 L 683 409 L 683 411 L 683 413 L 683 415 L 683 417 L 683 418 L 683 419 M 690 84 L 690 86 L 690 88 L 690 106 L 690 140 L 690 157 L 690 174 L 690 181 L 690 185 L 690 191 L 690 196 L 690 198 L 690 202 L 690 207 L 690 210 L 690 211 L 690 213 L 690 215 L 690 217 L 690 218 L 690 220 L 690 221 L 690 222 L 690 223 L 690 224 M 691 223 L 692 223 L 693 225 L 695 226 L 696 226 M 681 233 L 683 232 L 687 232 L 688 232 L 689 232 M 687 231 L 687 232 L 687 233 L 686 241 L 686 244 L 687 246 L 687 248 M 694 222 L 694 225 L 692 267 L 691 309 L 691 333 L 691 343 L 691 346 L 691 349 L 691 353 L 691 354 M 692 332 L 691 334 L 690 347 L 690 374 L 690 394 L 690 399 L 690 401 L 690 402 L 690 405 L 690 406 L 690 407 L 690 408 L 690 409 L 690 410 L 690 411 L 690 412 M 689 411 L 691 411 L 703 413 L 736 420 L 770 425 L 789 428 L 799 430 L 800 430 M 467 79 L 467 78 L 467 79 L 468 85 L 468 88 L 468 89 M 475 190 L 475 191 L 476 191 L 476 192 L 476 193 M 466 94 L 465 94 L 464 94 L 460 94 L 456 94 L 453 94 L 444 96 L 440 98 L 437 100 L 431 103 L 426 108 L 424 110 L 422 115 L 421 119 L 420 123 L 420 130 L 420 134 L 420 137 L 422 141 L 423 144 L 426 147 L 428 150 L 431 153 L 434 155 L 436 156 L 439 157 L 442 158 L 443 158 L 445 158 L 447 158 L 448 158 L 449 158 L 450 158 L 451 158 L 452 158 L 453 158 M 452 157 L 452 158 L 452 160 M 232 424 L 232 425 L 232 430 L 232 434 L 232 436 L 231 438 M 0 473 L 1 473 L 3 472 L 12 471 L 23 469 L 36 466 L 51 465 L 59 464 L 62 464 L 63 464 M 53 466 L 53 465 L 56 465 L 77 461 L 110 454 L 139 451 L 165 447 L 180 445 L 184 444 L 185 444 M 183 445 L 184 445 L 186 444 L 199 440 L 213 436 L 218 435 L 221 434 L 222 434 L 224 434 L 225 434 L 226 434 L 228 433 L 230 433 L 231 433 M 232 432 L 232 433 L 232 435 L 232 442 L 233 445 L 233 446 M 230 446 L 231 446 L 234 447 L 235 447 M 235 447 L 236 447 L 238 447 L 245 447 L 254 446 L 260 444 L 265 443 L 269 442 L 272 442 L 275 442 L 277 441 L 279 441 L 280 440 L 281 440 L 282 440 M 279 439 L 279 441 L 287 445 L 301 451 L 317 455 L 332 460 L 340 462 L 345 464 L 358 466 L 362 466 L 365 467 L 371 469 L 378 471 L 381 472 L 385 473 L 388 474 L 391 475 L 394 475 L 395 476 L 396 476 L 397 476 L 398 476 L 400 477 L 402 478 L 403 478 M 403 477 L 403 478 L 403 480 L 403 485 L 403 488 L 403 490 L 403 492 M 403 488 L 403 489 L 403 492 L 403 496 L 404 497 M 402 496 L 403 496 L 403 497 L 403 500 L 403 501 M 404 501 L 405 501 M 692 410 L 692 411 L 692 414 L 692 416 L 692 417 L 692 418 L 692 419 L 692 420 M 690 410 L 690 411 L 690 412 L 690 417 L 690 421 M 402 500 L 403 500 L 415 499 L 433 494 L 459 486 L 492 478 L 519 470 L 542 464 L 560 458 L 574 456 L 591 452 L 597 451 M 568 458 L 568 457 L 571 456 L 604 447 L 657 433 L 687 424 L 697 418 M 17 476 L 15 476 L 12 477 L 3 479 L 0 479 M 567 156 L 568 156 L 574 162 L 580 167 L 583 172 L 586 174 L 587 177 L 589 178 L 590 180 L 592 181 L 592 182 L 593 183 L 593 184 L 594 184 L 594 185 L 595 185 L 595 186 M 595 186 L 596 186 L 597 186 L 602 189 L 604 190 L 606 190 L 607 191 L 608 192 M 608 192 L 608 193 L 608 195 L 608 198 L 608 202 L 607 205 L 607 207 L 606 208 L 606 210 L 606 211 L 605 212 M 574 200 L 575 201 L 578 203 L 579 204 L 580 206 L 582 207 L 583 208 L 584 209 L 585 209 L 585 210 L 586 210 L 587 211 L 588 212 L 589 212 L 589 213 L 590 213 M 590 214 L 591 214 L 592 214 L 596 214 L 600 214 L 603 213 L 604 213 L 606 213 L 607 213 M 606 212 L 603 212 M 570 202 L 571 205 L 572 207 L 573 209 L 573 210 L 573 211 L 574 211 L 574 212 M 584 164 L 584 165 L 585 167 L 585 171 L 586 174 M 584 238 L 584 239 L 585 241 L 585 244 L 585 246 M 681 93 L 681 94 L 681 99 L 681 100 M 577 80 L 576 80 L 576 81 L 576 84 L 575 88 L 575 89 M 580 81 L 580 83 L 578 87 L 575 95 L 573 99 M 584 81 L 584 83 L 582 87 L 577 98 L 575 108 L 574 111 M 582 96 L 581 99 L 578 107 L 576 113 L 574 117 L 574 119 M 583 107 L 582 110 L 581 111 L 577 119 L 575 124 L 574 125 L 574 127 L 573 127 M 585 115 L 584 115 L 580 122 L 578 127 L 577 128 L 576 130 M 586 122 L 585 122 L 581 128 L 578 133 L 576 138 L 575 139 L 575 141 M 584 130 L 583 134 L 579 143 L 577 147 L 576 148 L 576 149 M 585 138 L 585 140 L 581 149 L 579 154 L 578 157 L 577 158 L 577 159 L 577 160 M 583 151 L 583 154 L 579 161 L 577 165 L 577 167 M 584 159 L 583 160 L 581 164 L 580 167 M 585 165 L 585 166 L 584 168 L 582 171 M 575 204 L 575 206 L 575 210 M 579 205 L 578 207 L 578 208 L 576 213 M 582 208 L 582 209 L 581 211 L 577 218 L 574 224 L 574 225 M 583 212 L 583 213 L 583 214 L 580 218 L 577 226 L 575 230 L 574 231 M 586 214 L 584 216 L 580 225 L 576 233 L 574 237 M 583 224 L 583 225 L 580 232 L 577 238 L 577 241 M 582 234 L 581 236 L 580 240 M 458 98 L 460 100 M 458 106 L 460 108 M 466 98 L 468 100 M 466 106 L 468 108 M 450 98 L 452 100 M 450 106 L 452 108 M 442 98 L 444 100 M 442 106 L 444 108 M 442 114 L 444 116 M 450 114 L 452 116 M 434 106 L 436 108 M 434 114 L 436 116 M 434 122 L 436 124 M 442 122 L 444 124 M 426 114 L 428 116 M 426 122 L 428 124 M 434 130 L 436 132 M 426 130 L 428 132 M 426 138 L 428 140 M 434 138 L 436 140 M 426 146 L 428 148 M 434 146 L 436 148 M 434 154 L 436 156 M 442 146 L 444 148 M 442 154 L 444 156 M 522 92 L 522 93 L 525 94 L 527 95 L 527 96 L 528 96 M 532 100 L 533 100 L 534 101 M 528 85 L 529 86 L 530 86 L 532 87 M 504 99 L 505 100 L 507 103 L 507 104 L 508 104 M 554 132 L 555 132 L 557 134 M 507 93 L 508 93 L 509 93 M 538 93 L 539 93 L 542 93 L 543 93 M 497 109 L 494 114 L 489 124 L 486 129 M 508 141 L 508 146 L 508 155 L 507 158 L 507 161 M 513 141 L 513 143 L 513 150 L 513 154 L 513 155 M 517 142 L 517 145 L 517 147 M 517 180 L 517 182 L 517 187 L 518 194 L 518 198 L 518 200 L 518 201 L 518 202 L 518 201 M 521 175 L 521 177 L 521 185 L 522 193 L 522 195 L 522 196 L 522 197 M 525 178 L 525 179 L 525 183 L 526 187 M 501 150 L 501 158 L 500 161 L 500 162 M 500 167 L 500 168 L 500 171 L 500 172 M 510 199 L 510 200 L 510 204 L 511 205 L 511 206 M 495 198 L 494 201 L 494 203 L 495 204 M 492 154 L 491 154 L 491 158 L 491 162 M 532 183 L 532 184 L 531 187 L 531 189 M 550 181 L 551 180 L 551 179 L 554 177 M 542 161 L 542 162 L 549 169 L 555 174 L 559 177 L 561 178 L 562 179 L 563 179 M 569 165 L 569 166 L 573 172 L 580 180 L 584 185 L 586 187 L 586 188 L 587 188 M 587 188 L 587 189 L 586 192 L 585 193 L 584 194 L 584 195 L 583 196 L 583 197 M 562 174 L 562 175 L 563 177 L 566 183 L 570 189 L 571 191 L 572 193 L 573 195 L 573 196 L 574 196 M 574 196 L 575 196 L 582 198 L 586 199 M 597 194 L 598 194 L 598 195 L 599 196 L 600 196 M 568 200 L 569 200 L 570 200 L 573 201 L 575 203 L 577 203 L 578 203 M 569 201 L 570 201 L 570 203 L 571 206 L 571 207 M 567 198 L 568 198 L 569 201 L 570 202 L 570 201 L 569 199 L 567 195 M 524 224 L 524 225 L 524 226 L 523 232 L 522 236 M 529 222 L 529 223 L 529 225 L 528 231 L 527 235 L 527 236 M 533 224 L 533 225 L 532 229 M 552 231 L 552 232 L 553 236 L 555 238 M 555 231 L 556 234 L 558 239 M 560 235 L 561 237 L 563 240 M 562 234 L 562 236 L 562 238 M 567 73 L 567 71 L 567 63 L 567 41 L 567 16 L 567 1 L 567 0 M 560 0 L 560 2 L 560 8 L 560 14 L 560 23 L 560 35 L 560 42 L 560 48 L 560 53 L 560 56 L 560 60 L 560 64 L 560 68 L 560 70 L 560 73 L 560 75 L 560 77 L 560 79 L 560 81 L 560 82 L 560 83 L 560 85 M 0 38 L 559 38 M 0 39 L 559 39 M 0 37 L 559 37 M 0 40 L 559 40 M 0 36 L 559 36 M 0 41 L 559 41 M 0 35 L 559 35 M 0 42 L 559 42 M 0 34 L 559 34 M 0 43 L 559 43 M 0 33 L 559 33 M 0 44 L 559 44 M 0 32 L 559 32 M 0 45 L 559 45 M 0 31 L 559 31 M 0 46 L 559 46 M 0 30 L 559 30 M 0 47 L 559 47 M 0 29 L 559 29 M 0 48 L 559 48 M 0 28 L 559 28 M 0 49 L 559 49 M 0 27 L 559 27 M 0 50 L 559 50 M 0 26 L 559 26 M 0 51 L 559 51 M 0 25 L 559 25 M 0 52 L 559 52 M 0 24 L 559 24 M 0 53 L 559 53 M 0 23 L 559 23 M 0 54 L 559 54 M 0 22 L 559 22 M 0 55 L 559 55 M 0 21 L 559 21 M 0 56 L 559 56 M 0 20 L 559 20 M 0 57 L 559 57 M 0 19 L 559 19 M 0 58 L 559 58 M 0 18 L 559 18 M 0 59 L 559 59 M 0 17 L 559 17 M 0 60 L 559 60 M 0 16 L 559 16 M 0 61 L 559 61 M 0 15 L 559 15 M 0 62 L 559 62 M 0 14 L 559 14 M 0 63 L 559 63 M 0 13 L 559 13 M 0 64 L 559 64 M 0 12 L 559 12 M 0 65 L 559 65 M 0 11 L 559 11 M 0 66 L 559 66 M 0 10 L 559 10 M 0 67 L 559 67 M 0 9 L 559 9 M 0 68 L 559 68 M 0 8 L 559 8 M 0 69 L 559 69 M 0 7 L 559 7 M 0 70 L 520 70 M 539 70 L 559 70 M 0 6 L 559 6 M 0 71 L 495 71 M 540 71 L 559 71 M 0 5 L 559 5 M 0 72 L 487 72 M 541 72 L 559 72 M 0 4 L 559 4 M 0 73 L 482 73 M 542 73 L 559 73 M 0 3 L 559 3 M 0 74 L 479 74 M 543 74 L 559 74 M 0 2 L 559 2 M 0 75 L 476 75 M 543 75 L 559 75 M 0 1 L 559 1 M 0 76 L 472 76 M 544 76 L 559 76 M 0 0 L 559 0 M 0 77 L 466 77 M 544 77 L 559 77 M 0 78 L 465 78 M 544 78 L 559 78 M 0 79 L 465 79 M 557 79 L 559 79 M 0 80 L 466 80 M 0 81 L 466 81 M 0 82 L 467 82 M 0 83 L 467 83 M 0 84 L 467 84 M 0 85 L 467 85 M 0 86 L 467 86 M 0 87 L 467 87 M 0 88 L 467 88 M 0 89 L 468 89 M 0 90 L 468 90 M 0 91 L 468 91 M 0 92 L 461 92 M 465 92 L 468 92 M 0 93 L 450 93 M 0 94 L 446 94 M 0 95 L 443 95 M 0 96 L 441 96 M 0 97 L 439 97 M 0 98 L 437 98 M 0 99 L 436 99 M 0 100 L 434 100 M 0 101 L 432 101 M 0 102 L 430 102 M 0 103 L 429 103 M 0 104 L 428 104 M 0 105 L 427 105 M 0 106 L 426 106 M 0 107 L 425 107 M 0 108 L 424 108 M 0 109 L 423 109 M 0 110 L 423 110 M 0 111 L 422 111 M 0 112 L 422 112 M 0 113 L 422 113 M 0 114 L 421 114 M 0 115 L 421 115 M 0 116 L 421 116 M 0 117 L 420 117 M 0 118 L 420 118 M 0 119 L 420 119 M 0 120 L 420 120 M 0 121 L 419 121 M 0 122 L 419 122 M 0 123 L 419 123 M 0 124 L 419 124 M 0 125 L 419 125 M 0 126 L 419 126 M 0 127 L 419 127 M 0 128 L 419 128 M 0 129 L 419 129 M 0 130 L 419 130 M 0 131 L 419 131 M 0 132 L 419 132 M 0 133 L 419 133 M 0 134 L 419 134 M 0 135 L 419 135 M 0 136 L 419 136 M 0 137 L 419 137 M 0 138 L 420 138 M 0 139 L 420 139 M 0 140 L 421 140 M 0 141 L 421 141 M 0 142 L 421 142 M 0 143 L 422 143 M 0 144 L 422 144 M 0 145 L 423 145 M 0 146 L 424 146 M 0 147 L 425 147 M 0 148 L 426 148 M 0 149 L 426 149 M 0 150 L 427 150 M 0 151 L 428 151 M 0 152 L 429 152 M 0 153 L 430 153 M 0 154 L 431 154 M 0 155 L 433 155 M 0 156 L 435 156 M 0 157 L 437 157 M 0 158 L 440 158 M 0 159 L 451 159 M 0 160 L 451 160 M 0 161 L 450 161 M 0 162 L 449 162 M 0 163 L 449 163 M 0 164 L 449 164 M 0 165 L 448 165 M 0 166 L 448 166 M 0 167 L 448 167 M 0 168 L 448 168 M 0 169 L 448 169 M 0 170 L 448 170 M 0 171 L 448 171 M 0 172 L 447 172 M 0 173 L 447 173 M 0 174 L 447 174 M 0 175 L 447 175 M 0 176 L 447 176 M 0 177 L 447 177 M 0 178 L 447 178 M 0 179 L 447 179 M 0 180 L 447 180 M 0 181 L 448 181 M 0 182 L 448 182 M 0 183 L 449 183 M 0 184 L 450 184 M 0 185 L 450 185 M 0 186 L 451 186 M 0 187 L 452 187 M 0 188 L 454 188 M 0 189 L 473 189 M 0 190 L 474 190 M 0 191 L 474 191 M 0 192 L 475 192 M 0 193 L 474 193 M 0 194 L 473 194 M 0 195 L 472 195 M 0 196 L 472 196 M 0 197 L 471 197 M 0 198 L 470 198 M 0 199 L 470 199 M 0 200 L 470 200 M 0 201 L 470 201 M 0 202 L 469 202 M 0 203 L 469 203 M 0 204 L 469 204 M 0 205 L 469 205 M 0 206 L 470 206 M 0 207 L 470 207 M 0 208 L 470 208 M 0 209 L 471 209 M 0 210 L 472 210 M 0 211 L 469 211 M 0 212 L 458 212 M 0 213 L 451 213 M 0 214 L 444 214 M 0 215 L 438 215 M 0 216 L 431 216 M 0 217 L 423 217 M 0 218 L 416 218 M 0 219 L 409 219 M 0 220 L 403 220 M 0 221 L 368 221 M 375 221 L 392 221 M 0 222 L 368 222 M 0 223 L 370 223 M 0 224 L 369 224 M 0 225 L 367 225 M 0 226 L 366 226 M 0 227 L 364 227 M 0 228 L 363 228 M 0 229 L 361 229 M 0 230 L 360 230 M 0 231 L 359 231 M 0 232 L 358 232 M 0 233 L 358 233 M 0 234 L 357 234 M 0 235 L 356 235 M 0 236 L 355 236 M 0 237 L 354 237 M 0 238 L 353 238 M 0 239 L 352 239 M 0 240 L 352 240 M 0 241 L 351 241 M 0 242 L 350 242 M 0 243 L 349 243 M 0 244 L 348 244 M 0 245 L 347 245 M 0 246 L 346 246 M 0 247 L 346 247 M 0 248 L 345 248 M 0 249 L 344 249 M 0 250 L 343 250 M 0 251 L 342 251 M 0 252 L 341 252 M 0 253 L 340 253 M 0 254 L 340 254 M 0 255 L 339 255 M 0 256 L 338 256 M 0 257 L 337 257 M 0 258 L 336 258 M 0 259 L 335 259 M 0 260 L 334 260 M 0 261 L 334 261 M 0 262 L 333 262 M 0 263 L 332 263 M 0 264 L 331 264 M 0 265 L 330 265 M 0 266 L 329 266 M 0 267 L 328 267 M 0 268 L 327 268 M 0 269 L 327 269 M 0 270 L 326 270 M 0 271 L 325 271 M 0 272 L 324 272 M 0 273 L 323 273 M 0 274 L 322 274 M 0 275 L 322 275 M 0 276 L 321 276 M 0 277 L 320 277 M 0 278 L 319 278 M 0 279 L 319 279 M 0 280 L 318 280 M 0 281 L 317 281 M 0 282 L 316 282 M 0 283 L 315 283 M 0 284 L 315 284 M 0 285 L 314 285 M 0 286 L 313 286 M 0 287 L 312 287 M 0 288 L 312 288 M 0 289 L 311 289 M 0 290 L 310 290 M 0 291 L 309 291 M 0 292 L 308 292 M 0 293 L 308 293 M 0 294 L 307 294 M 0 295 L 306 295 M 0 296 L 305 296 M 0 297 L 305 297 M 0 298 L 304 298 M 0 299 L 303 299 M 0 300 L 302 300 M 0 301 L 302 301 M 0 302 L 301 302 M 0 303 L 300 303 M 0 304 L 299 304 M 0 305 L 299 305 M 0 306 L 298 306 M 0 307 L 297 307 M 0 308 L 297 308 M 0 309 L 296 309 M 0 310 L 295 310 M 0 311 L 294 311 M 0 312 L 293 312 M 0 313 L 293 313 M 0 314 L 292 314 M 0 315 L 291 315 M 0 316 L 290 316 M 0 317 L 289 317 M 0 318 L 289 318 M 0 319 L 288 319 M 0 320 L 287 320 M 0 321 L 286 321 M 0 322 L 285 322 M 0 323 L 284 323 M 0 324 L 284 324 M 0 325 L 283 325 M 0 326 L 282 326 M 0 327 L 281 327 M 0 328 L 281 328 M 0 329 L 280 329 M 0 330 L 280 330 M 0 331 L 279 331 M 0 332 L 278 332 M 0 333 L 277 333 M 0 334 L 276 334 M 0 335 L 275 335 M 0 336 L 273 336 M 0 337 L 273 337 M 0 338 L 272 338 M 0 339 L 272 339 M 0 340 L 271 340 M 0 341 L 270 341 M 0 342 L 269 342 M 0 343 L 268 343 M 0 344 L 267 344 M 0 345 L 266 345 M 0 346 L 266 346 M 0 347 L 265 347 M 0 348 L 264 348 M 0 349 L 263 349 M 0 350 L 262 350 M 0 351 L 261 351 M 0 352 L 261 352 M 0 353 L 260 353 M 0 354 L 259 354 M 0 355 L 258 355 M 0 356 L 257 356 M 0 357 L 257 357 M 0 358 L 256 358 M 0 359 L 255 359 M 0 360 L 254 360 M 0 361 L 253 361 M 0 362 L 252 362 M 0 363 L 251 363 M 0 364 L 251 364 M 0 365 L 250 365 M 0 366 L 249 366 M 0 367 L 248 367 M 0 368 L 247 368 M 0 369 L 246 369 M 0 370 L 245 370 M 0 371 L 244 371 M 0 372 L 244 372 M 0 373 L 243 373 M 0 374 L 242 374 M 0 375 L 241 375 M 0 376 L 240 376 M 0 377 L 239 377 M 0 378 L 238 378 M 0 379 L 237 379 M 0 380 L 237 380 M 0 381 L 236 381 M 0 382 L 235 382 M 0 383 L 234 383 M 0 384 L 233 384 M 0 385 L 232 385 M 0 386 L 231 386 M 0 387 L 231 387 M 0 388 L 230 388 M 0 389 L 229 389 M 0 390 L 228 390 M 0 391 L 227 391 M 0 392 L 227 392 M 0 393 L 226 393 M 0 394 L 226 394 M 0 395 L 228 395 M 0 396 L 229 396 M 0 397 L 229 397 M 0 398 L 229 398 M 0 399 L 229 399 M 0 400 L 229 400 M 0 401 L 229 401 M 0 402 L 229 402 M 0 403 L 229 403 M 0 404 L 229 404 M 0 405 L 229 405 M 0 406 L 229 406 M 0 407 L 229 407 M 0 408 L 230 408 M 0 409 L 230 409 M 0 410 L 230 410 M 0 411 L 230 411 M 0 412 L 230 412 M 0 413 L 230 413 M 0 414 L 230 414 M 0 415 L 230 415 M 0 416 L 230 416 M 0 417 L 230 417 M 0 418 L 230 418 M 0 419 L 230 419 M 0 420 L 230 420 M 0 421 L 230 421 M 0 422 L 230 422 M 0 423 L 230 423 M 0 424 L 229 424 M 0 425 L 229 425 M 0 426 L 230 426 M 0 427 L 230 427 M 0 428 L 231 428 M 0 429 L 231 429 M 0 430 L 231 430 M 0 431 L 231 431 M 0 432 L 227 432 M 0 433 L 219 433 M 0 434 L 215 434 M 0 435 L 211 435 M 0 436 L 207 436 M 0 437 L 204 437 M 0 438 L 200 438 M 0 439 L 197 439 M 0 440 L 194 440 M 0 441 L 191 441 M 0 442 L 187 442 M 0 443 L 182 443 M 0 444 L 176 444 M 0 445 L 168 445 M 0 446 L 161 446 M 0 447 L 155 447 M 0 448 L 148 448 M 0 449 L 142 449 M 0 450 L 134 450 M 0 451 L 124 451 M 0 452 L 115 452 M 0 453 L 107 453 M 0 454 L 103 454 M 0 455 L 98 455 M 0 456 L 93 456 M 0 457 L 89 457 M 0 458 L 84 458 M 0 459 L 79 459 M 0 460 L 74 460 M 0 461 L 69 461 M 0 462 L 64 462 M 0 463 L 55 463 M 0 464 L 43 464 M 0 465 L 34 465 M 0 466 L 29 466 M 0 467 L 25 467 M 0 468 L 20 468 M 0 469 L 14 469 M 0 470 L 7 470 M 0 471 L 2 471 M 568 35 L 800 35 M 568 36 L 800 36 M 568 34 L 800 34 M 568 37 L 800 37 M 568 33 L 800 33 M 568 38 L 800 38 M 568 32 L 800 32 M 568 39 L 800 39 M 568 31 L 800 31 M 568 40 L 800 40 M 568 30 L 800 30 M 568 41 L 800 41 M 568 29 L 800 29 M 568 42 L 800 42 M 568 28 L 800 28 M 568 43 L 800 43 M 568 27 L 800 27 M 568 44 L 800 44 M 568 26 L 800 26 M 568 45 L 800 45 M 568 25 L 800 25 M 568 46 L 800 46 M 568 24 L 800 24 M 568 47 L 800 47 M 568 23 L 800 23 M 568 48 L 800 48 M 568 22 L 800 22 M 568 49 L 800 49 M 568 21 L 800 21 M 568 50 L 800 50 M 568 20 L 800 20 M 568 51 L 800 51 M 568 19 L 800 19 M 568 52 L 800 52 M 568 18 L 800 18 M 568 53 L 800 53 M 568 17 L 800 17 M 568 54 L 800 54 M 568 16 L 800 16 M 568 55 L 800 55 M 568 15 L 800 15 M 568 56 L 800 56 M 568 14 L 800 14 M 568 57 L 800 57 M 568 13 L 800 13 M 568 58 L 800 58 M 568 12 L 800 12 M 568 59 L 800 59 M 568 11 L 800 11 M 568 60 L 800 60 M 568 10 L 800 10 M 568 61 L 800 61 M 568 9 L 800 9 M 568 62 L 800 62 M 568 8 L 800 8 M 568 63 L 800 63 M 568 7 L 800 7 M 568 64 L 800 64 M 568 6 L 800 6 M 568 65 L 800 65 M 568 5 L 800 5 M 568 66 L 800 66 M 568 4 L 800 4 M 568 67 L 800 67 M 568 3 L 800 3 M 568 68 L 800 68 M 568 2 L 800 2 M 581 69 L 800 69 M 568 1 L 800 1 M 587 70 L 800 70 M 568 0 L 800 0 M 593 71 L 800 71 M 600 72 L 800 72 M 607 73 L 800 73 M 614 74 L 800 74 M 621 75 L 800 75 M 627 76 L 800 76 M 633 77 L 800 77 M 639 78 L 800 78 M 645 79 L 800 79 M 651 80 L 800 80 M 658 81 L 800 81 M 668 82 L 800 82 M 677 83 L 800 83 M 684 84 L 689 84 M 691 84 L 800 84 M 691 85 L 800 85 M 692 86 L 800 86 M 692 87 L 800 87 M 691 88 L 800 88 M 691 89 L 800 89 M 691 90 L 800 90 M 691 91 L 800 91 M 691 92 L 800 92 M 691 93 L 800 93 M 691 94 L 800 94 M 691 95 L 800 95 M 691 96 L 800 96 M 691 97 L 800 97 M 691 98 L 800 98 M 691 99 L 800 99 M 691 100 L 800 100 M 691 101 L 800 101 M 691 102 L 800 102 M 691 103 L 800 103 M 691 104 L 800 104 M 691 105 L 800 105 M 691 106 L 800 106 M 691 107 L 800 107 M 691 108 L 800 108 M 691 109 L 800 109 M 691 110 L 800 110 M 691 111 L 800 111 M 691 112 L 800 112 M 691 113 L 800 113 M 691 114 L 800 114 M 691 115 L 800 115 M 691 116 L 800 116 M 691 117 L 800 117 M 691 118 L 800 118 M 691 119 L 800 119 M 691 120 L 800 120 M 691 121 L 800 121 M 691 122 L 800 122 M 691 123 L 800 123 M 691 124 L 800 124 M 691 125 L 800 125 M 691 126 L 800 126 M 691 127 L 800 127 M 691 128 L 800 128 M 691 129 L 800 129 M 691 130 L 800 130 M 691 131 L 800 131 M 691 132 L 800 132 M 691 133 L 800 133 M 691 134 L 800 134 M 691 135 L 800 135 M 691 136 L 800 136 M 691 137 L 800 137 M 691 138 L 800 138 M 691 139 L 800 139 M 691 140 L 800 140 M 691 141 L 800 141 M 691 142 L 800 142 M 691 143 L 800 143 M 691 144 L 800 144 M 691 145 L 800 145 M 691 146 L 800 146 M 691 147 L 800 147 M 691 148 L 800 148 M 691 149 L 800 149 M 691 150 L 800 150 M 691 151 L 800 151 M 691 152 L 800 152 M 691 153 L 800 153 M 691 154 L 800 154 M 691 155 L 800 155 M 691 156 L 800 156 M 691 157 L 800 157 M 691 158 L 800 158 M 691 159 L 800 159 M 691 160 L 800 160 M 691 161 L 800 161 M 691 162 L 800 162 M 691 163 L 800 163 M 691 164 L 800 164 M 691 165 L 800 165 M 691 166 L 800 166 M 691 167 L 800 167 M 691 168 L 800 168 M 691 169 L 800 169 M 691 170 L 800 170 M 691 171 L 800 171 M 691 172 L 800 172 M 691 173 L 800 173 M 691 174 L 800 174 M 691 175 L 800 175 M 691 176 L 800 176 M 691 177 L 800 177 M 691 178 L 800 178 M 691 179 L 800 179 M 691 180 L 800 180 M 691 181 L 800 181 M 691 182 L 800 182 M 691 183 L 800 183 M 691 184 L 800 184 M 691 185 L 800 185 M 691 186 L 800 186 M 691 187 L 800 187 M 691 188 L 800 188 M 691 189 L 800 189 M 691 190 L 800 190 M 691 191 L 800 191 M 691 192 L 800 192 M 691 193 L 800 193 M 691 194 L 800 194 M 691 195 L 800 195 M 691 196 L 800 196 M 691 197 L 800 197 M 691 198 L 800 198 M 691 199 L 800 199 M 691 200 L 800 200 M 691 201 L 800 201 M 691 202 L 800 202 M 691 203 L 800 203 M 691 204 L 800 204 M 691 205 L 800 205 M 691 206 L 800 206 M 691 207 L 800 207 M 691 208 L 800 208 M 691 209 L 800 209 M 691 210 L 800 210 M 691 211 L 800 211 M 691 212 L 800 212 M 691 213 L 800 213 M 691 214 L 800 214 M 691 215 L 800 215 M 691 216 L 800 216 M 691 217 L 800 217 M 691 218 L 800 218 M 691 219 L 800 219 M 691 220 L 800 220 M 691 221 L 800 221 M 695 222 L 800 222 M 695 223 L 800 223 M 695 224 L 800 224 M 696 225 L 800 225 M 696 226 L 800 226 M 695 227 L 800 227 M 695 228 L 800 228 M 695 229 L 800 229 M 695 230 L 800 230 M 695 231 L 800 231 M 695 232 L 800 232 M 695 233 L 800 233 M 695 234 L 800 234 M 695 235 L 800 235 M 694 236 L 800 236 M 694 237 L 800 237 M 694 238 L 800 238 M 694 239 L 800 239 M 694 240 L 800 240 M 694 241 L 800 241 M 694 242 L 800 242 M 694 243 L 800 243 M 694 244 L 800 244 M 694 245 L 800 245 M 694 246 L 800 246 M 694 247 L 800 247 M 694 248 L 800 248 M 694 249 L 800 249 M 694 250 L 800 250 M 694 251 L 800 251 M 694 252 L 800 252 M 694 253 L 800 253 M 694 254 L 800 254 M 694 255 L 800 255 M 694 256 L 800 256 M 693 257 L 800 257 M 693 258 L 800 258 M 693 259 L 800 259 M 693 260 L 800 260 M 693 261 L 800 261 M 693 262 L 800 262 M 693 263 L 800 263 M 693 264 L 800 264 M 693 265 L 800 265 M 693 266 L 800 266 M 693 267 L 800 267 M 693 268 L 800 268 M 693 269 L 800 269 M 693 270 L 800 270 M 693 271 L 800 271 M 693 272 L 800 272 M 693 273 L 800 273 M 693 274 L 800 274 M 693 275 L 800 275 M 693 276 L 800 276 M 693 277 L 800 277 M 693 278 L 800 278 M 693 279 L 800 279 M 693 280 L 800 280 M 693 281 L 800 281 M 693 282 L 800 282 M 693 283 L 800 283 M 693 284 L 800 284 M 693 285 L 800 285 M 693 286 L 800 286 M 693 287 L 800 287 M 692 288 L 800 288 M 692 289 L 800 289 M 692 290 L 800 290 M 692 291 L 800 291 M 692 292 L 800 292 M 692 293 L 800 293 M 692 294 L 800 294 M 692 295 L 800 295 M 692 296 L 800 296 M 692 297 L 800 297 M 692 298 L 800 298 M 692 299 L 800 299 M 692 300 L 800 300 M 692 301 L 800 301 M 692 302 L 800 302 M 692 303 L 800 303 M 692 304 L 800 304 M 692 305 L 800 305 M 692 306 L 800 306 M 692 307 L 800 307 M 692 308 L 800 308 M 692 309 L 800 309 M 692 310 L 800 310 M 692 311 L 800 311 M 692 312 L 800 312 M 692 313 L 800 313 M 692 314 L 800 314 M 692 315 L 800 315 M 692 316 L 800 316 M 692 317 L 800 317 M 692 318 L 800 318 M 692 319 L 800 319 M 692 320 L 800 320 M 692 321 L 800 321 M 692 322 L 800 322 M 692 323 L 800 323 M 692 324 L 800 324 M 692 325 L 800 325 M 692 326 L 800 326 M 692 327 L 800 327 M 692 328 L 800 328 M 692 329 L 800 329 M 692 330 L 800 330 M 692 331 L 800 331 M 692 332 L 800 332 M 692 333 L 800 333 M 692 334 L 800 334 M 692 335 L 800 335 M 692 336 L 800 336 M 692 337 L 800 337 M 692 338 L 800 338 M 692 339 L 800 339 M 692 340 L 800 340 M 692 341 L 800 341 M 692 342 L 800 342 M 692 343 L 800 343 M 692 344 L 800 344 M 692 345 L 800 345 M 692 346 L 800 346 M 692 347 L 800 347 M 692 348 L 800 348 M 692 349 L 800 349 M 692 350 L 800 350 M 692 351 L 800 351 M 692 352 L 800 352 M 692 353 L 800 353 M 691 354 L 800 354 M 691 355 L 800 355 M 691 356 L 800 356 M 691 357 L 800 357 M 691 358 L 800 358 M 691 359 L 800 359 M 691 360 L 800 360 M 691 361 L 800 361 M 691 362 L 800 362 M 691 363 L 800 363 M 691 364 L 800 364 M 691 365 L 800 365 M 691 366 L 800 366 M 691 367 L 800 367 M 691 368 L 800 368 M 691 369 L 800 369 M 691 370 L 800 370 M 691 371 L 800 371 M 691 372 L 800 372 M 691 373 L 800 373 M 691 374 L 800 374 M 691 375 L 800 375 M 691 376 L 800 376 M 691 377 L 800 377 M 691 378 L 800 378 M 691 379 L 800 379 M 691 380 L 800 380 M 691 381 L 800 381 M 691 382 L 800 382 M 691 383 L 800 383 M 691 384 L 800 384 M 691 385 L 800 385 M 691 386 L 800 386 M 691 387 L 800 387 M 691 388 L 800 388 M 691 389 L 800 389 M 691 390 L 800 390 M 691 391 L 800 391 M 691 392 L 800 392 M 691 393 L 800 393 M 691 394 L 800 394 M 691 395 L 800 395 M 691 396 L 800 396 M 691 397 L 800 397 M 691 398 L 800 398 M 691 399 L 800 399 M 691 400 L 800 400 M 691 401 L 800 401 M 691 402 L 800 402 M 691 403 L 800 403 M 691 404 L 800 404 M 691 405 L 800 405 M 691 406 L 800 406 M 691 407 L 800 407 M 691 408 L 800 408 M 691 409 L 800 409 M 694 410 L 800 410 M 700 411 L 800 411 M 706 412 L 800 412 M 710 413 L 800 413 M 715 414 L 800 414 M 720 415 L 800 415 M 724 416 L 800 416 M 729 417 L 800 417 M 734 418 L 800 418 M 739 419 L 800 419 M 746 420 L 800 420 M 753 421 L 800 421 M 760 422 L 800 422 M 767 423 L 800 423 M 773 424 L 800 424 M 779 425 L 800 425 M 786 426 L 800 426 M 791 427 L 800 427 M 797 428 L 800 428 M 559 108 L 559 109 L 559 111 L 559 114 L 559 115 L 559 116 L 559 117 L 559 116 L 559 115 L 558 110 L 558 108 L 558 111 M 0 513 L 800 513 M 0 514 L 800 514 M 0 512 L 800 512 M 0 515 L 800 515 M 0 511 L 800 511 M 0 516 L 800 516 M 0 510 L 800 510 M 0 517 L 800 517 M 0 509 L 800 509 M 0 518 L 800 518 M 0 508 L 800 508 M 0 519 L 800 519 M 0 507 L 800 507 M 0 520 L 800 520 M 0 506 L 800 506 M 0 521 L 800 521 M 0 505 L 800 505 M 0 504 L 800 504 M 0 503 L 800 503 M 0 502 L 800 502 M 0 501 L 404 501 M 405 501 L 800 501 M 0 500 L 402 500 M 409 500 L 800 500 M 0 499 L 402 499 M 417 499 L 800 499 M 0 498 L 402 498 M 421 498 L 800 498 M 0 497 L 402 497 M 424 497 L 800 497 M 0 496 L 402 496 M 428 496 L 800 496 M 0 495 L 402 495 M 431 495 L 800 495 M 0 494 L 402 494 M 435 494 L 800 494 M 0 493 L 402 493 M 438 493 L 800 493 M 0 492 L 402 492 M 441 492 L 800 492 M 0 491 L 402 491 M 445 491 L 800 491 M 0 490 L 402 490 M 448 490 L 800 490 M 0 489 L 402 489 M 451 489 L 800 489 M 0 488 L 402 488 M 454 488 L 800 488 M 0 487 L 402 487 M 458 487 L 800 487 M 0 486 L 402 486 M 461 486 L 800 486 M 0 485 L 402 485 M 465 485 L 800 485 M 0 484 L 402 484 M 470 484 L 800 484 M 0 483 L 402 483 M 474 483 L 800 483 M 0 482 L 402 482 M 478 482 L 800 482 M 0 481 L 402 481 M 482 481 L 800 481 M 0 480 L 402 480 M 486 480 L 800 480 M 6 479 L 402 479 M 490 479 L 800 479 M 10 478 L 401 478 M 494 478 L 800 478 M 14 477 L 399 477 M 498 477 L 800 477 M 22 476 L 394 476 M 501 476 L 800 476 M 30 475 L 389 475 M 504 475 L 800 475 M 39 474 L 386 474 M 508 474 L 800 474 M 47 473 L 383 473 M 511 473 L 800 473 M 54 472 L 379 472 M 514 472 L 800 472 M 58 471 L 376 471 M 518 471 L 800 471 M 63 470 L 372 470 M 521 470 L 800 470 M 68 469 L 369 469 M 525 469 L 800 469 M 72 468 L 366 468 M 529 468 L 800 468 M 77 467 L 363 467 M 533 467 L 800 467 M 82 466 L 354 466 M 537 466 L 800 466 M 86 465 L 348 465 M 540 465 L 800 465 M 91 464 L 344 464 M 544 464 L 800 464 M 98 463 L 341 463 M 547 463 L 800 463 M 106 462 L 338 462 M 550 462 L 800 462 M 115 461 L 334 461 M 553 461 L 800 461 M 123 460 L 330 460 M 556 460 L 800 460 M 130 459 L 327 459 M 559 459 L 800 459 M 136 458 L 324 458 M 564 458 L 800 458 M 142 457 L 321 457 M 571 457 L 800 457 M 147 456 L 318 456 M 576 456 L 800 456 M 153 455 L 315 455 M 581 455 L 800 455 M 159 454 L 311 454 M 585 454 L 800 454 M 164 453 L 307 453 M 589 453 L 800 453 M 170 452 L 303 452 M 594 452 L 800 452 M 175 451 L 300 451 M 597 451 L 800 451 M 180 450 L 297 450 M 596 450 L 800 450 M 185 449 L 295 449 M 599 449 L 800 449 M 190 448 L 293 448 M 602 448 L 800 448 M 194 447 L 232 447 M 250 447 L 290 447 M 606 447 L 800 447 M 199 446 L 230 446 M 256 446 L 288 446 M 610 446 L 800 446 M 208 445 L 230 445 M 259 445 L 286 445 M 614 445 L 800 445 M 210 444 L 232 444 M 263 444 L 284 444 M 618 444 L 800 444 M 213 443 L 231 443 M 267 443 L 282 443 M 621 443 L 800 443 M 218 442 L 231 442 M 276 442 L 280 442 M 625 442 L 800 442 M 223 441 L 231 441 M 629 441 L 800 441 M 226 440 L 231 440 M 633 440 L 800 440 M 636 439 L 797 439 M 640 438 L 793 438 M 644 437 L 789 437 M 648 436 L 786 436 M 652 435 L 782 435 M 655 434 L 778 434 M 659 433 L 773 433 M 662 432 L 767 432 M 666 431 L 762 431 M 669 430 L 756 430 M 672 429 L 750 429 M 676 428 L 745 428 M 679 427 L 739 427 M 682 426 L 733 426 M 686 425 L 728 425 M 688 424 L 722 424 M 690 423 L 717 423 M 691 422 L 711 422 M 693 421 L 705 421 M 695 420 L 700 420 M 463 96 L 462 96 L 461 96 L 460 97 L 458 97 L 459 98 L 464 98 L 468 98 L 467 98 L 460 98 L 447 98 L 442 98 L 443 98 L 457 98 L 470 97 L 471 96 L 457 98 L 445 100 L 444 100 L 448 100 L 456 95 L 452 95 L 446 97 L 435 103 L 434 104 L 442 100 L 442 99 L 440 99 L 428 108 L 425 113 L 426 114 L 428 112 L 432 103 L 430 105 L 427 111 L 426 116 L 426 117 L 427 111 L 427 108 L 424 111 L 422 121 L 423 129 L 425 133 L 424 133 L 422 127 L 422 129 L 424 138 L 427 149 L 428 152 L 428 150 L 427 141 L 428 142 L 433 149 L 435 151 L 434 148 L 434 149 L 438 151 L 441 152 L 442 153 L 441 153 M 426 150 L 427 151 L 438 157 L 443 157 L 442 157 L 441 157 L 433 153 L 429 152 L 435 155 L 442 156 L 444 155 L 441 155 L 439 155 L 441 155 M 488 317 L 488 320 L 487 323 M 354 349 L 354 348 L 361 350 L 377 352 L 395 355 L 413 357 L 427 359 L 435 361 L 445 362 L 451 363 L 452 363 L 454 363 L 455 363 L 457 363 M 408 282 L 407 282 L 407 283 L 404 288 L 402 293 M 416 282 L 415 282 L 413 283 L 409 289 L 408 291 L 407 292 L 406 293 L 406 294 L 405 294 M 423 282 L 422 282 L 422 283 L 416 289 L 414 292 L 412 294 L 411 295 M 429 284 L 428 283 L 425 287 L 422 291 L 420 293 L 418 295 L 418 296 L 417 296 L 417 297 M 437 285 L 436 286 L 433 289 L 430 292 L 428 293 L 427 295 L 426 296 M 449 286 L 448 287 L 444 289 L 439 293 L 436 296 L 434 297 L 433 299 M 458 287 L 457 287 L 454 290 L 450 295 L 448 297 L 446 299 L 445 300 M 469 289 L 467 289 L 462 293 L 458 296 L 456 298 L 455 299 L 455 300 L 454 300 M 477 289 L 477 290 L 475 291 L 470 294 L 464 299 L 464 300 L 463 301 L 462 301 M 491 290 L 486 292 L 480 295 L 474 299 L 471 301 L 469 303 L 468 303 M 497 293 L 495 294 L 487 298 L 483 301 L 481 304 L 480 305 M 500 296 L 499 296 L 496 300 L 492 303 L 489 304 L 488 305 L 488 306 M 395 299 L 394 299 L 391 301 L 388 304 L 387 306 L 386 307 M 401 302 L 400 302 L 396 303 L 392 307 L 390 309 L 389 310 L 389 311 L 388 311 M 409 301 L 408 302 L 402 306 L 398 309 L 396 310 L 396 311 L 395 311 L 395 312 M 416 303 L 415 304 L 413 305 L 408 309 L 405 311 L 404 312 L 403 313 M 425 305 L 424 306 L 420 309 L 415 313 L 413 315 L 412 315 M 436 304 L 435 304 L 433 306 L 426 311 L 424 313 L 423 314 M 443 306 L 442 306 L 440 307 L 435 311 L 432 313 L 431 315 L 430 316 M 450 309 L 449 309 L 447 311 L 444 313 L 442 315 L 440 316 L 440 317 M 460 309 L 456 311 L 453 313 L 452 316 L 450 318 L 449 318 M 467 309 L 466 309 L 465 312 L 461 316 L 458 317 L 457 318 L 456 319 M 473 310 L 474 310 L 472 313 L 468 316 L 465 318 L 464 319 L 463 320 M 482 313 L 478 314 L 475 317 L 474 320 L 472 322 M 488 316 L 486 316 L 482 320 L 479 323 L 479 324 M 379 318 L 378 318 L 375 321 L 373 324 L 371 326 M 387 318 L 386 318 L 383 321 L 379 326 L 378 327 L 378 328 L 377 329 L 376 329 M 394 320 L 393 320 L 392 322 L 389 324 L 387 327 L 386 328 L 384 330 L 384 331 M 402 320 L 400 320 L 398 323 L 395 327 L 394 329 L 393 330 L 393 331 M 408 320 L 407 321 L 404 324 L 401 328 L 399 331 L 398 332 M 416 322 L 413 323 L 408 327 L 406 329 L 406 330 L 404 331 M 420 324 L 420 325 L 416 328 L 412 331 L 410 334 L 409 334 M 429 325 L 428 326 L 425 328 L 420 332 L 417 334 M 438 326 L 437 326 L 433 328 L 429 332 L 428 332 L 427 334 L 426 335 M 445 327 L 444 327 L 442 328 L 440 330 L 437 332 L 435 333 L 434 334 L 433 334 L 433 335 M 453 326 L 452 327 L 449 330 L 445 332 L 442 334 L 441 334 L 440 335 M 458 328 L 458 329 L 457 330 L 455 332 L 452 335 L 450 336 L 448 338 M 467 329 L 467 330 L 466 330 L 462 334 L 460 337 L 458 339 L 457 340 L 457 341 M 472 330 L 471 330 L 470 332 L 468 335 L 466 338 L 465 340 M 477 332 L 476 332 L 474 334 L 472 338 L 471 339 L 470 340 M 364 336 L 363 337 L 361 340 L 358 344 L 356 346 M 372 335 L 372 336 L 370 338 L 366 343 L 363 347 L 362 349 L 362 350 L 361 350 M 379 337 L 378 337 L 375 341 L 371 347 L 370 349 L 368 350 M 386 338 L 385 339 L 383 342 L 380 346 L 378 349 L 377 349 L 377 350 M 394 338 L 394 339 L 390 343 L 387 347 L 384 351 L 383 353 M 401 339 L 400 339 L 397 344 L 395 348 L 394 349 L 392 351 L 392 352 L 391 353 L 391 354 L 390 354 M 410 340 L 408 340 L 406 342 L 403 348 L 401 352 L 399 353 L 399 354 L 398 354 L 398 355 M 416 342 L 415 342 L 412 345 L 408 350 L 406 353 L 405 355 L 404 355 M 423 342 L 422 343 L 421 344 L 416 351 L 413 355 L 413 356 L 412 357 M 434 342 L 432 342 L 428 347 L 425 352 L 423 354 L 422 356 L 421 356 M 440 343 L 439 344 L 436 348 L 433 352 L 432 354 L 430 356 L 430 357 L 429 357 M 447 344 L 445 346 L 442 350 L 440 354 L 438 357 L 437 358 L 437 359 L 436 360 L 436 361 M 455 346 L 454 346 L 452 348 L 449 353 L 446 357 L 445 359 L 444 359 L 444 361 M 460 347 L 459 347 L 456 352 L 453 357 L 452 359 L 451 361 L 450 361 M 466 350 L 464 353 L 459 359 L 456 362 M 347 355 L 346 355 L 343 358 L 341 360 M 352 355 L 349 357 L 346 360 L 344 363 L 343 365 L 342 366 M 355 356 L 354 358 L 351 362 L 348 366 L 346 369 L 345 370 L 344 370 L 344 371 L 343 371 L 343 372 M 363 356 L 363 357 L 359 361 L 356 366 L 352 371 L 352 372 M 369 359 L 367 360 L 364 363 L 362 367 L 360 370 L 359 372 L 359 373 M 375 361 L 374 361 L 370 366 L 368 369 L 367 371 M 380 360 L 380 361 L 379 363 L 374 369 L 373 371 L 373 372 L 372 373 M 387 363 L 386 363 L 386 364 L 384 367 L 382 370 L 380 371 L 379 373 M 395 364 L 394 365 L 392 366 L 389 371 L 386 375 L 385 376 M 404 363 L 402 364 L 398 369 L 395 373 L 393 375 L 391 377 L 391 378 M 409 367 L 408 367 L 405 370 L 401 374 L 398 378 L 397 379 L 396 380 M 420 365 L 418 366 L 413 372 L 409 376 L 408 377 L 407 379 L 406 380 M 425 369 L 424 369 L 423 370 L 418 374 L 415 378 L 412 381 L 411 382 L 410 382 M 434 368 L 434 369 L 431 371 L 426 376 L 422 379 L 420 382 M 441 371 L 440 372 L 438 373 L 432 378 L 428 381 L 426 383 L 426 384 M 447 373 L 445 374 L 439 379 L 437 381 L 435 383 L 434 385 L 433 385 L 433 386 L 432 386 M 328 376 L 324 380 L 322 383 L 321 384 M 333 378 L 331 379 L 331 380 L 328 384 L 325 388 L 324 390 L 323 390 M 341 379 L 340 379 L 336 383 L 333 388 L 331 390 L 330 390 L 330 391 M 350 380 L 349 380 L 345 383 L 340 388 L 337 391 L 337 392 L 336 393 L 335 393 M 355 381 L 354 381 L 350 386 L 346 389 L 342 393 L 341 394 M 364 383 L 363 383 L 360 385 L 355 390 L 352 392 L 352 393 L 351 394 M 371 384 L 371 385 L 370 386 L 364 390 L 360 395 L 358 397 M 379 386 L 377 387 L 371 392 L 365 396 L 364 398 L 363 398 L 363 399 M 386 387 L 386 388 L 381 391 L 375 395 L 370 399 L 369 400 M 395 388 L 390 391 L 386 395 L 381 398 L 378 400 L 377 401 L 376 402 M 403 390 L 400 391 L 395 395 L 390 399 L 388 401 L 387 402 L 385 404 L 384 404 M 411 391 L 407 393 L 402 398 L 398 402 L 396 404 L 394 405 L 394 406 M 417 393 L 416 394 L 412 398 L 406 403 L 402 407 L 402 408 M 428 393 L 427 393 L 422 398 L 417 402 L 412 406 L 410 408 L 409 410 M 433 396 L 431 397 L 429 399 L 424 403 L 419 407 L 416 409 L 415 411 L 415 412 M 428 405 L 426 407 L 422 410 L 420 412 M 304 395 L 304 396 L 303 397 L 301 401 L 300 403 M 309 398 L 309 397 L 307 401 L 305 404 L 303 406 L 302 408 L 302 409 M 315 398 L 315 399 L 312 404 L 308 408 L 306 411 L 306 413 M 321 400 L 321 401 L 317 405 L 314 409 L 313 411 L 312 412 L 312 413 M 327 402 L 326 402 L 325 404 L 322 407 L 319 411 L 318 413 L 317 414 L 316 415 L 316 416 M 336 402 L 333 404 L 328 408 L 325 412 L 323 415 L 321 416 M 342 404 L 341 405 L 337 408 L 332 412 L 330 415 L 329 416 M 348 407 L 347 407 L 345 408 L 341 413 L 338 415 L 336 416 L 334 418 L 334 419 L 333 419 M 355 408 L 354 409 L 351 411 L 348 414 L 345 417 L 343 419 L 343 420 L 342 420 L 342 421 M 363 410 L 362 411 L 359 412 L 354 416 L 350 419 L 349 421 L 348 422 L 347 423 M 368 412 L 367 412 L 364 415 L 358 420 L 355 423 L 353 424 L 353 425 L 352 425 M 373 414 L 371 415 L 366 420 L 363 423 L 361 425 L 361 426 M 379 415 L 378 415 L 377 417 L 371 423 L 369 426 L 368 427 L 367 429 M 386 418 L 385 418 L 381 421 L 377 426 L 374 429 L 374 430 L 373 431 M 396 417 L 395 418 L 391 421 L 387 426 L 383 429 L 382 431 L 381 432 M 403 419 L 402 420 L 397 424 L 393 428 L 390 431 L 389 433 L 389 434 M 407 421 L 407 422 L 404 425 L 400 430 L 398 433 L 397 435 L 396 435 M 413 423 L 411 423 L 409 427 L 405 432 L 403 435 L 403 436 M 415 426 L 414 427 L 413 428 L 413 429 M 408 435 L 407 435 L 407 436 L 405 437 M 290 420 L 286 424 L 282 430 M 295 420 L 295 421 L 292 425 L 289 431 L 288 433 L 287 434 M 301 421 L 297 427 L 294 431 L 291 435 M 307 424 L 305 426 L 301 431 L 298 436 L 297 437 M 314 425 L 313 425 L 309 431 L 306 435 L 305 437 L 304 438 M 319 428 L 316 429 L 312 436 L 310 439 M 326 430 L 326 429 L 322 433 L 319 437 L 317 439 L 317 440 M 330 432 L 330 433 L 327 437 L 324 441 L 322 443 M 341 432 L 339 432 L 335 438 L 331 442 L 329 445 L 328 446 M 344 433 L 344 434 L 341 439 L 337 443 L 336 446 M 349 436 L 349 437 L 346 441 L 343 445 L 342 447 L 341 448 L 341 449 M 355 439 L 356 439 L 354 440 L 350 445 L 348 448 M 362 440 L 360 442 L 359 443 L 357 447 L 355 450 L 354 451 L 353 452 M 370 443 L 369 443 L 366 446 L 363 451 L 361 454 L 360 455 L 360 456 M 378 446 L 377 446 L 376 446 L 374 448 L 371 451 L 369 454 L 368 455 L 367 456 M 387 447 L 386 447 L 383 450 L 379 454 L 378 456 L 377 458 L 376 458 L 376 459 L 375 459 M 395 451 L 393 453 L 388 456 L 384 460 L 381 463 L 381 464 M 404 450 L 403 451 L 398 455 L 394 459 L 391 462 L 389 464 M 409 453 L 407 454 L 403 458 L 401 462 L 399 465 L 398 466 M 410 458 L 409 459 L 404 465 L 403 466 L 402 467 L 402 468 M 411 464 L 410 465 L 409 466 L 408 466 M 414 249 L 414 250 L 414 260 L 414 269 L 414 273 L 414 275 M 420 253 L 420 255 L 420 257 L 420 267 L 420 271 L 420 273 L 420 275 L 420 276 L 420 277 M 426 256 L 426 257 L 426 260 L 426 266 L 426 269 L 426 272 L 426 274 M 432 260 L 432 262 L 432 263 L 432 270 L 432 272 L 433 273 M 439 263 L 439 264 L 439 267 L 439 270 M 439 262 L 439 263 L 439 264 L 439 269 L 439 271 L 439 272 L 439 273 L 439 274 M 446 264 L 446 265 L 446 268 L 446 272 M 451 266 L 451 267 L 451 268 L 451 271 M 458 265 L 458 266 L 458 269 L 459 270 M 464 265 L 464 266 L 464 269 L 464 271 M 472 264 L 472 266 L 472 268 L 472 269 M 476 266 L 476 267 L 476 268 L 477 268 M 490 266 L 489 266 L 487 269 L 487 271 L 486 272 M 493 268 L 492 269 L 490 272 L 489 274 L 489 275 M 498 268 L 497 269 L 495 272 L 494 275 L 493 276 L 493 277 L 494 277 M 501 271 L 500 273 L 498 277 L 498 278 L 497 279 L 498 279 M 507 270 L 507 271 L 505 275 L 503 278 L 502 280 L 503 280 M 510 273 L 510 275 L 509 278 L 508 279 M 519 265 L 517 267 L 515 273 L 513 277 L 512 279 L 511 281 L 511 282 M 518 273 L 517 274 L 516 277 M 515 263 L 513 267 L 511 271 M 495 266 L 494 266 L 495 266 L 501 265 L 504 265 L 506 265 L 507 265 L 508 265 L 508 264 M 521 262 L 522 263 L 526 262 L 529 261 M 502 261 L 502 262 L 502 263 L 502 264 M 507 256 L 507 257 L 507 260 L 507 263 L 507 264 M 511 251 L 511 252 L 511 253 L 511 254 M 528 250 L 528 251 L 528 252 L 528 256 L 528 259 L 528 260 L 528 261 M 532 238 L 532 239 L 532 245 L 532 250 L 532 252 L 532 253 L 532 254 M 537 234 L 537 236 L 537 238 L 537 246 L 537 251 L 537 252 L 537 253 L 537 254 L 537 255 L 537 256 M 542 233 L 542 234 L 542 238 L 542 245 L 542 249 L 542 251 L 542 252 M 547 232 L 547 233 L 547 238 L 547 246 L 547 249 L 547 252 L 547 253 M 553 238 L 553 240 L 553 243 L 553 249 L 553 251 M 558 244 L 558 245 L 558 247 M 567 234 L 567 235 L 567 236 L 567 239 M 571 233 L 571 234 L 571 238 L 571 239 L 571 240 M 571 235 L 571 236 L 571 241 L 571 245 L 571 246 L 571 247 M 575 239 L 575 241 L 574 244 L 574 248 M 577 239 L 577 241 L 576 246 L 576 248 L 577 249 M 579 239 L 579 241 L 579 244 L 579 246 M 582 239 L 582 240 L 582 243 L 582 245 L 582 246 L 583 245 M 585 240 L 584 241 M 587 226 L 681 226 M 587 227 L 681 227 M 587 225 L 681 225 M 587 228 L 681 228 M 587 224 L 681 224 M 587 229 L 681 229 M 587 223 L 681 223 M 587 230 L 681 230 M 587 222 L 681 222 M 587 231 L 667 231 M 587 221 L 681 221 M 586 232 L 655 232 M 587 220 L 681 220 M 586 233 L 642 233 M 587 219 L 681 219 M 586 234 L 634 234 M 587 218 L 681 218 M 586 235 L 628 235 M 587 217 L 681 217 M 586 236 L 622 236 M 587 216 L 681 216 M 586 237 L 616 237 M 587 215 L 681 215 M 586 238 L 611 238 M 587 214 L 590 214 M 602 214 L 681 214 M 586 239 L 605 239 M 587 213 L 588 213 M 607 213 L 681 213 M 586 240 L 599 240 M 607 212 L 681 212 M 586 241 L 593 241 M 607 211 L 681 211 M 586 242 L 587 242 M 607 210 L 681 210 M 607 209 L 681 209 M 607 208 L 681 208 M 608 207 L 681 207 M 608 206 L 681 206 M 608 205 L 681 205 M 608 204 L 681 204 M 609 203 L 681 203 M 609 202 L 681 202 M 609 201 L 681 201 M 609 200 L 681 200 M 609 199 L 681 199 M 609 198 L 681 198 M 609 197 L 681 197 M 609 196 L 681 196 M 609 195 L 681 195 M 609 194 L 681 194 M 609 193 L 681 193 M 609 192 L 681 192 M 608 191 L 681 191 M 608 190 L 681 190 M 607 189 L 681 189 M 603 188 L 681 188 M 601 187 L 681 187 M 600 186 L 681 186 M 598 185 L 681 185 M 596 184 L 681 184 M 595 183 L 681 183 M 594 182 L 681 182 M 593 181 L 681 181 M 593 180 L 681 180 M 591 179 L 681 179 M 590 178 L 681 178 M 590 177 L 681 177 M 588 176 L 681 176 M 588 175 L 681 175 M 587 174 L 681 174 M 587 173 L 681 173 M 587 172 L 681 172 M 586 171 L 681 171 M 586 170 L 681 170 M 586 169 L 681 169 M 586 168 L 681 168 M 586 167 L 681 167 M 586 166 L 681 166 M 586 165 L 681 165 M 586 164 L 681 164 M 586 163 L 681 163 M 586 162 L 681 162 M 586 161 L 681 161 M 586 160 L 681 160 M 586 159 L 681 159 M 586 158 L 681 158 M 586 157 L 681 157 M 586 156 L 681 156 M 586 155 L 681 155 M 586 154 L 681 154 M 586 153 L 681 153 M 586 152 L 681 152 M 586 151 L 681 151 M 586 150 L 681 150 M 586 149 L 681 149 M 586 148 L 681 148 M 586 147 L 681 147 M 586 146 L 681 146 M 586 145 L 681 145 M 586 144 L 681 144 M 586 143 L 681 143 M 586 142 L 681 142 M 586 141 L 681 141 M 586 140 L 681 140 M 586 139 L 681 139 M 586 138 L 681 138 M 586 137 L 681 137 M 586 136 L 681 136 M 586 135 L 681 135 M 586 134 L 681 134 M 586 133 L 681 133 M 586 132 L 681 132 M 586 131 L 681 131 M 586 130 L 681 130 M 586 129 L 680 129 M 586 128 L 680 128 M 586 127 L 680 127 M 586 126 L 681 126 M 586 125 L 681 125 M 586 124 L 681 124 M 586 123 L 681 123 M 586 122 L 681 122 M 586 121 L 681 121 M 586 120 L 681 120 M 586 119 L 681 119 M 586 118 L 681 118 M 586 117 L 681 117 M 586 116 L 681 116 M 586 115 L 681 115 M 586 114 L 681 114 M 586 113 L 681 113 M 586 112 L 681 112 M 586 111 L 681 111 M 586 110 L 681 110 M 586 109 L 681 109 M 586 108 L 681 108 M 586 107 L 681 107 M 586 106 L 681 106 M 586 105 L 681 105 M 586 104 L 681 104 M 586 103 L 681 103 M 586 102 L 681 102 M 586 101 L 681 101 M 586 100 L 681 100 M 586 99 L 680 99 M 586 98 L 680 98 M 586 97 L 680 97 M 586 96 L 680 96 M 586 95 L 680 95 M 586 94 L 678 94 M 586 93 L 669 93 M 586 92 L 665 92 M 586 91 L 659 91 M 586 90 L 652 90 M 586 89 L 642 89 M 586 88 L 637 88 M 586 87 L 626 87 M 586 86 L 620 86 M 586 85 L 614 85 M 586 84 L 608 84 M 586 83 L 602 83 M 586 82 L 596 82 M 586 81 L 589 81 M 408 247 L 408 248 L 408 255 L 408 265 L 408 271 L 408 273 L 408 274 L 408 275 L 408 276 L 408 278 M 401 253 L 401 254 L 401 259 L 401 269 L 401 276 L 401 279 L 401 280 L 401 281 M 395 260 L 395 261 L 395 271 L 396 283 L 396 290 L 396 291 L 396 292 L 396 293 L 396 294 M 391 268 L 390 269 L 390 272 L 390 283 L 390 291 L 390 294 L 390 295 L 390 296 M 384 274 L 384 275 L 384 277 L 384 286 L 384 293 L 384 298 L 384 301 L 384 303 L 383 305 L 383 307 L 382 308 L 382 310 M 379 280 L 379 282 L 379 290 L 379 299 L 379 304 L 379 306 L 379 307 L 379 308 L 379 309 L 379 311 L 379 312 L 379 315 M 373 290 L 373 291 L 373 296 L 373 304 L 373 308 L 373 310 L 373 312 L 372 314 M 367 301 L 367 302 L 367 307 L 367 312 L 367 317 L 367 320 L 367 322 L 367 323 L 367 324 L 366 325 L 366 326 L 366 327 M 361 309 L 361 310 L 361 312 L 361 320 L 361 324 L 361 325 L 361 326 L 360 328 L 360 329 M 354 317 L 354 319 L 354 328 L 354 333 L 354 338 L 354 341 L 354 342 L 354 343 L 354 344 L 354 345 L 354 346 L 354 347 M 348 324 L 348 325 L 349 331 L 349 337 L 349 340 L 349 342 L 349 344 L 349 345 L 349 346 L 349 347 L 349 348 L 349 349 L 349 350 M 343 330 L 343 331 L 343 336 L 343 342 L 343 344 L 343 345 L 343 346 L 343 347 L 343 348 L 343 349 L 343 350 M 338 338 L 338 339 L 338 340 L 338 347 L 338 354 L 338 360 L 338 362 L 338 363 L 338 364 L 338 365 L 338 366 L 337 367 L 337 368 L 337 369 M 332 347 L 332 350 L 332 356 L 332 361 L 332 363 L 332 365 L 332 366 L 332 367 L 332 368 L 333 369 M 327 353 L 327 354 L 327 360 L 327 365 L 327 367 L 327 368 L 327 369 M 321 361 L 321 363 L 321 365 L 321 370 L 321 372 M 317 370 L 316 370 L 316 374 L 317 378 L 317 381 L 317 385 L 317 387 M 311 374 L 311 375 L 311 381 L 312 385 L 312 386 L 312 388 L 312 390 M 306 378 L 306 379 L 306 384 L 307 386 L 307 387 L 307 388 L 307 390 M 299 385 L 299 386 L 299 389 L 299 394 L 299 398 L 299 400 M 295 390 L 295 391 L 295 398 L 295 402 L 295 405 L 295 407 L 295 408 L 295 410 L 295 411 L 295 412 M 290 398 L 290 400 L 290 406 L 290 409 L 290 411 L 290 412 L 290 413 L 290 414 M 284 402 L 284 403 L 284 407 L 284 412 L 284 415 L 283 416 L 283 418 L 283 419 M 280 411 L 280 412 L 280 417 L 280 424 L 280 428 L 280 431 L 280 432 M 275 417 L 275 418 L 275 425 L 275 428 L 275 429 M 274 425 L 274 426 L 274 428 L 274 430 L 274 431 L 274 432 L 274 433 M 269 423 L 269 424 L 269 425 L 269 428 L 269 431 L 269 432 L 269 433 M 264 428 L 264 429 L 264 433 L 264 435 M 257 430 L 257 431 L 257 432 L 257 433 L 258 433 M 445 469 L 445 470 L 445 473 L 445 477 M 450 462 L 450 463 L 450 469 L 450 476 L 451 479 M 456 450 L 456 451 L 456 458 L 456 469 L 456 473 L 456 475 L 456 476 L 456 477 M 462 436 L 462 437 L 462 439 L 462 453 L 462 465 L 462 469 L 462 471 L 462 473 M 468 425 L 468 427 L 468 439 L 468 452 L 468 459 L 468 465 L 468 469 L 468 471 L 468 472 L 468 473 M 476 412 L 475 413 L 475 424 L 475 443 L 475 460 L 475 464 L 475 466 L 475 469 L 475 470 L 475 471 M 481 399 L 481 401 L 481 421 L 481 442 L 482 456 L 482 463 L 482 467 L 482 469 L 482 471 M 489 387 L 489 388 L 489 397 L 489 433 L 489 451 L 489 463 L 489 467 L 489 468 M 497 375 L 497 377 L 497 404 L 497 433 L 497 453 L 497 464 M 503 362 L 503 365 L 503 383 L 503 415 L 503 438 L 503 446 L 503 450 L 502 456 L 502 458 L 501 460 L 501 462 M 511 355 L 511 359 L 511 397 L 511 428 L 511 446 L 511 452 L 511 456 L 511 459 L 511 462 L 511 464 M 520 346 L 520 349 L 520 366 L 520 397 L 520 423 L 520 436 L 520 442 L 519 444 L 519 446 L 519 447 L 519 449 L 519 452 L 519 453 L 519 456 L 520 457 M 527 333 L 527 336 L 527 369 L 527 401 L 527 428 L 527 439 L 527 443 L 527 445 L 527 447 L 527 450 L 527 453 L 527 455 M 535 323 L 535 324 L 535 339 L 535 376 L 535 418 L 535 443 L 535 453 L 535 456 L 535 457 M 542 301 L 542 306 L 542 355 L 542 402 L 542 421 L 542 427 L 542 431 L 542 434 L 542 437 L 542 438 L 542 439 L 542 442 L 543 446 L 544 449 L 545 453 L 546 453 M 550 288 L 550 291 L 550 310 L 550 344 L 550 389 L 550 416 L 550 430 L 550 434 L 550 438 L 550 439 L 550 441 L 550 443 L 550 444 L 550 446 M 557 276 L 557 278 L 557 282 L 557 311 L 557 371 L 557 402 L 557 419 L 557 429 L 557 435 L 557 437 L 557 438 L 557 441 L 557 442 L 557 444 L 557 445 L 557 446 L 557 447 L 557 449 M 565 282 L 565 284 L 565 305 L 565 332 L 565 370 L 566 386 L 566 397 L 566 405 L 566 415 L 566 421 L 566 426 L 566 430 L 566 434 L 566 438 L 566 441 L 566 443 L 566 444 L 567 448 L 567 450 M 572 281 L 572 282 L 572 287 L 572 305 L 572 336 L 572 366 L 572 378 L 572 395 L 572 403 L 572 408 L 572 412 L 572 416 L 572 421 L 572 423 L 572 425 L 572 429 L 572 432 L 572 435 L 572 437 L 572 438 L 572 441 L 572 444 M 579 284 L 579 287 L 579 308 L 579 335 L 579 367 L 579 384 L 579 395 L 579 402 L 579 409 L 579 416 L 579 421 L 579 425 L 579 428 L 579 430 L 579 432 L 579 435 L 579 438 L 579 441 L 579 446 L 580 449 M 586 277 L 586 279 L 586 292 L 586 310 L 586 334 L 586 354 L 586 366 L 586 376 L 586 384 L 586 393 L 587 399 L 587 403 L 587 408 L 587 413 L 587 419 L 587 426 L 587 431 L 587 437 L 587 439 L 587 440 L 587 442 L 587 443 L 587 445 M 595 272 L 595 273 L 595 282 L 595 310 L 595 339 L 595 368 L 595 380 L 595 391 L 595 402 L 595 409 L 595 415 L 595 421 L 595 429 L 595 434 L 595 436 L 595 438 L 595 439 M 602 265 L 602 268 L 602 289 L 602 328 L 602 360 L 602 383 L 602 392 L 602 398 L 602 406 L 602 414 L 602 422 L 602 428 L 602 430 L 602 432 L 602 434 L 602 435 L 602 437 L 602 438 L 602 440 L 602 439 M 609 257 L 609 262 L 609 285 L 609 321 L 609 349 L 609 369 L 609 383 L 608 390 L 608 399 L 608 410 L 608 416 L 608 421 L 608 424 L 608 427 L 608 428 L 608 430 L 608 432 L 608 434 M 617 247 L 616 248 L 616 257 L 616 290 L 616 328 L 616 365 L 616 384 L 616 394 L 616 405 L 616 411 L 616 418 L 616 423 L 616 427 L 616 430 L 616 433 M 625 239 L 625 241 L 625 277 L 625 322 L 625 359 L 625 389 L 625 408 L 624 415 L 623 419 L 623 424 L 623 430 L 623 435 L 623 437 M 632 241 L 632 242 L 632 253 L 632 298 L 632 352 L 632 381 L 632 396 L 632 405 L 632 411 L 632 415 L 632 418 L 632 419 L 632 423 L 632 425 L 632 430 M 638 235 L 638 236 L 638 256 L 638 325 L 638 355 L 638 368 L 638 376 L 638 385 L 638 392 L 638 398 L 638 404 L 638 410 L 638 417 L 639 423 L 639 425 L 639 427 L 639 428 L 639 429 L 640 430 L 641 430 M 647 233 L 647 236 L 647 246 L 647 292 L 647 339 L 647 364 L 647 378 L 647 389 L 647 397 L 647 405 L 647 411 L 647 415 L 647 419 L 647 421 L 647 423 L 647 424 M 656 230 L 656 231 L 656 236 L 656 267 L 656 303 L 655 336 L 655 356 L 655 370 L 655 383 L 655 392 L 655 398 L 655 405 L 655 408 L 655 410 L 655 412 L 655 415 L 655 418 L 655 420 M 660 225 L 660 230 L 662 248 L 662 281 L 662 321 L 662 344 L 662 361 L 662 370 L 662 376 L 662 381 L 662 392 L 662 398 L 662 403 L 663 407 L 663 409 L 663 412 L 663 414 L 663 416 L 663 418 L 663 420 L 663 422 L 663 423 M 668 227 L 668 230 L 668 262 L 668 300 L 668 329 L 668 346 L 668 355 L 668 361 L 668 363 L 668 365 L 668 366 L 668 367 L 668 368 M 670 355 L 669 356 L 669 367 L 669 384 L 669 397 L 669 404 L 669 407 L 669 411 L 669 414 L 669 415 L 669 418 L 669 421 M 675 230 L 675 231 L 675 252 L 675 305 L 675 343 L 675 369 L 675 381 L 675 388 L 675 394 L 675 397 L 675 399 L 675 400 L 675 402 L 675 403 L 675 404 L 675 406 L 675 409 L 675 413 L 675 416 M 682 231 L 681 231 L 681 237 L 681 263 L 681 281 L 681 289 L 681 296 L 681 299 L 681 300 M 571 430 L 565 438 L 561 445 L 559 448 L 559 449 M 583 415 L 582 419 L 573 437 L 570 445 L 568 449 L 567 451 M 601 397 L 599 400 L 591 415 L 580 434 L 575 444 L 573 449 L 571 451 M 622 365 L 621 367 L 605 400 L 596 417 L 590 429 L 586 436 L 584 440 L 583 442 M 644 344 L 643 346 L 637 359 L 623 386 L 611 409 L 605 421 L 601 426 L 599 431 L 598 433 L 597 434 L 596 435 L 596 437 L 595 439 M 664 323 L 664 324 L 652 346 L 631 386 L 615 412 L 607 427 L 604 434 L 601 439 L 600 441 M 681 307 L 680 309 L 680 313 L 669 335 L 654 365 L 642 386 L 637 396 L 634 402 L 631 406 L 629 411 L 627 416 L 625 419 L 623 423 L 621 426 L 621 428 L 620 429 L 620 430 L 619 431 L 619 432 M 684 324 L 683 329 L 671 357 L 661 374 L 653 388 L 648 396 L 645 402 L 643 408 L 640 411 L 639 414 L 636 418 L 633 424 L 632 430 L 630 433 M 685 349 L 684 349 L 678 361 L 667 379 L 657 394 L 649 405 L 644 414 L 642 418 L 641 421 L 640 422 L 640 423 L 639 424 L 639 425 L 638 426 L 637 427 M 683 370 L 683 371 L 676 381 L 665 396 L 659 405 L 655 411 L 652 416 L 648 420 M 678 388 L 677 391 L 676 393 L 665 411 L 660 421 L 657 425 L 657 426 M 678 398 L 678 400 L 678 401 L 676 408 L 673 415 L 671 423 L 671 424 M 683 408 L 682 409 M 686 292 L 681 297 L 666 317 L 647 339 L 634 353 L 625 363 L 620 369 L 617 374 L 615 377 L 615 378 L 613 380 M 649 317 L 648 320 L 643 327 L 624 356 L 600 384 L 586 402 L 574 418 L 570 425 L 566 430 L 563 434 L 560 438 L 559 440 L 558 441 L 557 442 L 556 444 L 555 445 L 553 448 L 551 450 M 621 341 L 619 343 L 609 357 L 590 384 L 571 409 L 558 428 L 552 436 L 549 440 L 546 444 L 543 448 L 543 450 L 541 452 L 540 453 L 539 454 M 592 364 L 591 364 L 580 380 L 561 404 L 548 421 L 543 428 L 538 436 L 534 441 L 532 444 L 531 447 L 530 448 L 529 449 L 528 449 L 527 450 L 526 452 L 524 454 L 523 456 L 522 457 L 522 458 M 539 414 L 539 415 L 532 424 L 524 436 L 519 444 L 516 449 L 515 451 L 514 452 L 514 453 L 513 453 L 511 456 L 510 457 L 509 458 L 508 460 L 508 461 L 507 461 M 623 419 L 623 418 L 624 419 L 632 425 L 639 428 L 640 428 M 627 412 L 628 412 L 637 420 L 643 424 L 644 425 L 648 426 L 646 426 M 626 401 L 627 401 L 631 405 L 640 414 L 647 418 L 651 421 L 653 422 M 625 388 L 627 390 L 632 395 L 643 407 L 652 414 L 656 418 L 661 422 L 662 421 M 628 378 L 628 379 L 631 383 L 643 398 L 650 407 L 657 415 L 661 420 M 632 375 L 632 374 L 635 378 L 652 397 L 661 409 L 670 417 M 640 370 L 641 372 L 643 374 L 657 394 L 669 405 L 674 410 L 675 412 L 676 413 L 677 414 M 646 367 L 647 368 L 653 377 L 662 388 L 671 397 L 678 405 L 683 408 L 683 409 M 655 364 L 654 364 L 655 364 L 663 378 L 675 393 L 681 400 L 682 401 L 683 402 L 681 400 M 661 359 L 661 360 L 667 368 L 676 378 L 681 383 L 682 384 L 683 384 M 672 357 L 675 361 L 682 369 M 676 350 L 680 355 L 687 364 M 621 421 L 627 425 L 633 430 M 620 426 L 620 428 L 621 430 L 624 434 M 612 434 L 613 436 L 616 438 M 594 436 L 596 436 L 610 430 L 639 421 L 655 418 L 652 418 L 626 424 L 596 430 L 579 435 L 579 436 L 596 432 L 635 426 L 648 423 L 635 425 L 584 440 L 566 444 L 567 445 L 599 437 L 625 431 L 625 430 L 619 430 L 596 433 L 595 435 L 605 433 L 633 425 L 653 421 L 652 421 L 644 422 L 646 422 L 661 421 L 664 419 L 671 416 L 674 416 L 675 416 L 676 415 L 680 414 M 686 398 L 686 401 L 683 411 L 683 407 L 683 393 L 683 381 L 683 383 L 681 401 L 675 414 L 675 412 L 676 406 L 678 394 L 679 392 L 679 394 L 672 412 L 669 419 L 669 418 L 675 403 L 681 390 L 681 393 L 677 403 L 677 402 L 681 392 L 685 374 L 685 364 L 685 366 L 685 374 L 685 387 L 685 386 L 685 376 L 685 360 L 683 346 L 682 346 L 681 363 L 680 367 L 680 360 L 680 345 L 680 342 L 682 360 L 682 371 M 671 398 L 663 410 L 654 425 L 649 435 L 649 434 L 658 421 L 665 412 L 665 413 L 664 415 L 676 403 L 676 404 M 518 456 L 520 455 L 530 452 L 569 445 L 593 438 L 596 437 M 494 461 L 502 460 L 532 452 L 547 448 M 435 475 L 435 476 L 435 480 M 430 478 L 430 479 M 409 558 L 409 561 L 409 565 L 409 574 L 409 580 L 409 584 L 410 585 L 410 586 L 410 587 L 410 588 M 410 559 L 411 559 L 412 559 L 413 559 L 414 559 L 414 561 L 414 564 L 414 569 L 414 572 L 414 573 L 414 575 L 414 576 L 414 577 M 414 576 L 415 575 L 417 575 L 418 575 L 420 575 L 421 575 L 422 576 L 423 577 L 423 578 L 423 581 L 423 583 L 423 584 L 423 585 L 423 586 L 423 587 L 422 587 L 422 588 L 421 588 L 420 588 L 419 588 L 417 588 L 416 588 L 414 588 L 413 588 L 412 588 L 411 588 L 409 588 L 408 588 M 418 581 L 417 581 L 416 581 L 415 581 L 414 581 L 414 582 L 414 583 L 415 583 L 416 583 L 417 583 L 417 582 L 417 581 L 416 581 L 416 582 L 417 582 L 418 582 L 418 581 L 418 580 L 417 580 L 416 581 L 417 581 L 418 581 M 428 575 L 428 576 L 428 578 L 428 583 L 428 587 L 428 588 L 429 588 L 429 589 L 431 589 L 434 589 L 435 589 L 436 589 M 427 577 L 428 577 L 429 577 L 431 577 L 432 577 L 433 577 L 434 577 L 435 577 L 436 577 L 437 577 L 438 577 M 433 576 L 435 576 L 436 576 L 440 576 L 441 576 L 441 577 M 441 576 L 441 577 L 441 579 L 440 585 L 440 589 L 440 590 L 440 591 L 440 592 L 440 593 L 440 594 L 440 595 L 440 596 M 430 588 L 429 588 L 429 589 L 429 590 L 429 591 L 429 592 L 429 593 L 429 594 L 429 595 L 430 595 L 431 595 L 434 595 L 436 595 L 437 595 L 438 595 L 439 595 M 434 578 L 434 579 L 434 581 L 434 583 L 434 584 L 434 585 L 434 586 L 434 585 L 434 584 L 435 581 L 435 579 M 468 562 L 468 570 L 468 576 L 468 580 L 468 581 L 468 582 L 468 584 L 468 585 L 468 586 L 469 587 M 469 587 L 469 588 L 473 587 L 475 587 L 478 587 L 480 587 L 481 587 L 482 587 L 483 587 L 484 587 L 485 587 L 486 587 M 468 548 L 468 549 L 468 550 L 468 557 L 468 561 L 468 564 L 468 565 L 468 566 L 468 567 M 468 550 L 469 550 L 475 549 L 482 549 L 486 549 L 488 549 L 490 550 L 491 551 L 492 552 L 493 554 L 493 557 L 494 560 L 494 564 L 494 568 L 494 570 L 494 573 L 494 576 L 494 578 L 494 579 L 494 580 L 494 581 L 494 582 L 493 582 L 493 583 L 492 583 L 492 584 L 491 585 L 490 585 L 489 586 L 488 586 L 487 587 L 485 587 L 484 588 L 483 588 M 507 568 L 506 568 L 505 568 L 503 568 L 502 568 L 501 568 L 500 568 L 499 568 L 499 569 L 499 570 L 499 571 L 499 572 L 499 573 L 499 574 M 498 574 L 499 574 L 501 574 L 504 574 L 507 574 L 508 574 L 509 574 M 507 575 L 506 575 L 505 575 L 504 575 L 503 575 L 502 575 L 501 575 L 501 576 L 500 576 L 500 577 L 500 578 L 500 580 L 500 581 L 500 582 L 500 583 L 500 584 L 500 585 L 500 586 L 500 587 M 501 586 L 500 586 L 501 587 L 502 587 L 503 587 L 505 588 L 507 588 L 508 588 L 510 588 L 511 588 L 512 588 L 513 588 L 514 588 L 515 588 M 513 586 L 513 587 L 513 588 L 513 589 L 513 588 L 513 587 L 513 586 L 512 586 L 512 585 L 512 586 L 512 587 L 512 588 M 512 588 L 513 588 L 514 588 L 517 588 L 518 588 L 519 588 M 502 567 L 503 567 L 505 567 L 507 567 L 509 567 L 511 567 L 512 567 L 513 567 L 514 567 L 515 568 L 516 569 L 516 570 L 517 570 L 517 571 L 517 572 L 517 573 L 517 574 L 517 575 L 517 576 L 518 576 M 517 577 L 517 578 L 517 581 L 517 584 L 517 587 L 517 588 L 517 589 L 518 589 M 506 581 L 507 581 L 509 581 L 510 581 L 509 581 L 508 581 L 507 581 M 505 575 L 506 575 L 510 574 L 511 574 M 518 567 L 519 567 L 519 568 L 521 572 L 523 577 L 524 580 L 525 583 L 525 584 L 526 584 L 526 585 L 526 586 M 526 587 L 527 587 L 528 587 L 530 587 L 531 587 L 532 587 L 533 587 L 534 587 L 535 587 M 520 567 L 521 567 L 522 567 L 523 567 L 525 567 L 526 567 M 525 567 L 525 568 L 527 572 L 529 575 L 530 577 L 530 578 M 536 567 L 536 566 L 536 567 L 533 572 L 533 574 L 532 574 L 532 576 L 531 577 L 531 578 L 531 579 M 537 567 L 538 567 L 540 567 L 542 567 L 543 567 M 543 567 L 542 567 L 540 573 L 538 577 L 537 579 L 537 580 L 536 581 L 536 583 L 536 584 L 535 584 L 535 586 M 544 568 L 545 569 L 545 570 L 545 575 L 545 577 L 545 580 L 545 582 L 545 583 L 545 585 L 545 586 L 545 587 L 546 587 L 547 587 L 549 586 L 552 586 M 543 567 L 544 567 L 546 567 L 547 567 L 548 567 L 549 567 L 550 567 L 551 567 L 552 567 M 552 566 L 552 567 L 552 572 L 552 576 L 552 579 L 552 581 L 552 583 L 552 584 L 552 585 L 552 586 L 552 587 M 548 548 L 548 547 L 547 547 L 546 547 L 545 548 L 545 549 L 544 549 L 544 551 L 544 552 L 544 553 L 544 554 L 544 555 L 545 555 L 546 556 L 548 556 L 549 556 L 551 556 L 552 555 L 552 554 L 552 551 L 552 550 L 552 549 L 551 548 L 550 548 L 549 547 L 547 547 L 546 547 M 557 573 L 555 575 L 555 576 L 555 577 L 555 579 L 555 581 L 555 582 L 555 583 L 556 584 L 556 585 L 556 586 L 558 586 L 560 586 L 562 586 L 564 586 L 565 586 L 566 586 L 567 586 L 568 586 L 569 586 L 570 586 M 567 546 L 567 547 L 567 553 L 567 562 L 567 566 L 567 569 M 567 546 L 568 546 L 570 546 L 571 546 L 572 546 L 573 546 L 574 546 L 575 546 L 576 546 M 574 546 L 575 547 L 575 554 L 575 566 L 575 574 L 575 579 L 575 581 L 575 582 L 575 583 L 575 584 L 575 585 L 575 586 L 575 587 L 575 588 M 559 568 L 559 569 L 558 570 L 557 572 L 556 573 L 556 575 L 555 575 L 555 576 L 555 577 M 558 570 L 558 569 L 560 569 L 562 569 L 563 569 L 564 569 L 565 569 L 566 569 L 567 569 L 568 569 M 567 568 L 567 569 L 567 570 M 566 586 L 567 586 L 569 586 L 574 586 L 575 586 M 568 576 L 567 576 L 566 576 L 565 576 L 564 576 L 563 576 L 562 576 L 562 577 L 562 578 L 563 578 L 564 578 L 565 578 L 566 578 L 567 578 L 568 578 L 567 578 L 566 578 L 565 578 L 564 578 M 563 578 L 562 578 L 562 579 L 563 579 L 564 579 L 565 579 L 566 579 L 567 579 L 568 579 L 568 578 L 568 577 L 568 576 L 568 577 M 478 557 L 478 558 L 478 559 L 478 564 L 478 568 L 478 572 L 478 574 L 478 575 L 478 577 L 478 578 L 478 579 L 479 579 L 480 579 L 481 579 L 483 579 L 484 579 M 479 558 L 480 558 L 481 558 L 482 559 L 483 559 L 484 559 L 484 560 L 484 562 L 484 564 L 484 565 L 484 567 L 484 568 L 484 569 L 484 570 L 484 571 L 484 573 L 484 574 L 484 575 L 484 576 L 484 577 L 484 578 L 484 579 L 484 580 M 479 570 L 483 570 M 479 571 L 483 571 M 479 569 L 483 569 M 479 572 L 483 572 M 479 568 L 483 568 M 479 573 L 483 573 M 479 567 L 483 567 M 479 574 L 483 574 M 479 566 L 483 566 M 479 575 L 483 575 M 479 565 L 483 565 M 479 576 L 483 576 M 479 564 L 483 564 M 479 577 L 483 577 M 479 563 L 483 563 M 479 562 L 483 562 M 479 561 L 483 561 M 479 560 L 483 560 M 479 559 L 481 559 M 554 575 L 554 576 L 554 577 L 554 580 L 554 582 L 554 583 L 554 582 L 554 579 L 554 576 L 554 577 L 554 579 L 554 580 M 516 565 L 517 566 L 517 568 L 519 571 L 520 573 L 520 572 L 520 571 L 518 567 L 517 566 L 517 568 L 518 570 M 599 544 L 599 545 L 599 548 L 599 562 L 599 573 L 599 581 L 599 584 L 599 585 L 599 587 M 600 546 L 601 546 L 602 546 L 609 546 L 616 546 L 619 546 L 620 546 M 612 546 L 613 546 L 616 546 L 621 547 L 623 547 M 623 547 L 623 548 L 623 549 L 623 552 L 623 555 L 623 556 M 623 556 L 622 556 L 617 555 L 615 555 L 613 555 L 612 555 L 611 555 L 610 555 L 608 555 M 609 556 L 609 557 L 609 558 L 609 559 L 609 560 M 609 557 L 609 558 L 609 560 M 609 557 L 609 558 L 609 559 L 609 560 L 609 561 L 609 562 L 610 562 L 612 562 L 616 562 L 618 562 L 619 562 L 620 562 M 619 562 L 619 563 L 619 565 M 618 563 L 618 564 L 618 566 L 618 569 L 618 571 L 617 571 L 616 571 L 615 570 L 613 570 L 611 570 L 610 570 L 609 570 M 609 570 L 609 572 L 609 573 L 609 577 L 609 579 L 609 580 L 609 581 L 609 582 L 609 583 L 609 584 L 609 585 M 599 587 L 600 587 L 604 587 L 606 587 L 607 587 L 608 587 L 609 587 M 609 582 L 609 583 L 609 584 L 609 586 L 609 588 L 609 589 M 631 566 L 630 566 L 628 566 L 625 566 L 624 566 L 623 566 L 623 567 L 623 568 L 623 571 L 623 575 L 623 578 L 623 580 L 623 582 L 623 583 L 623 584 L 623 585 L 623 586 L 623 587 L 624 587 L 625 587 L 627 587 L 629 587 L 630 587 M 631 566 L 631 567 L 631 570 L 631 575 L 631 579 L 631 582 L 631 584 L 631 585 L 631 586 L 631 587 L 631 588 M 630 545 L 629 545 L 628 545 L 627 545 L 627 546 L 626 546 L 625 547 L 625 548 L 625 550 L 625 551 L 625 552 L 625 553 L 626 553 L 627 553 L 628 553 L 629 553 L 630 552 L 631 552 L 631 551 L 632 550 L 632 549 L 632 548 L 632 547 L 631 546 L 631 545 L 630 545 L 629 545 M 635 567 L 635 568 L 635 571 L 635 576 L 635 579 L 635 582 L 635 583 L 635 584 L 635 585 L 635 586 L 635 587 M 636 570 L 636 569 L 637 569 L 638 568 L 639 568 L 640 567 L 641 567 L 642 566 L 644 566 L 645 566 L 646 566 L 647 566 L 649 566 L 650 566 L 651 566 L 651 567 L 652 567 M 651 568 L 651 569 L 651 573 L 651 574 L 650 575 L 649 574 L 648 574 L 647 574 L 646 574 L 645 574 L 643 574 L 642 574 M 642 582 L 642 585 L 642 586 L 642 587 L 642 588 M 635 587 L 636 587 L 637 587 L 639 587 L 641 587 L 643 587 L 644 587 M 664 544 L 664 546 L 664 551 L 664 556 L 664 558 L 664 560 L 664 561 L 664 562 M 662 576 L 663 579 L 663 580 L 663 582 L 663 583 L 663 584 L 664 585 L 664 586 L 665 586 L 666 587 L 668 588 L 669 588 L 671 588 L 672 588 L 673 588 L 674 588 L 675 588 L 677 588 L 677 587 L 677 586 M 665 546 L 666 546 L 667 546 L 668 546 L 669 546 L 670 546 L 671 546 L 672 546 M 672 546 L 672 547 L 672 549 L 672 552 L 672 554 L 672 556 L 672 557 L 672 558 L 672 559 L 672 560 L 672 561 M 670 561 L 672 561 L 674 561 M 670 574 L 670 575 L 670 576 L 670 577 M 676 580 L 677 580 L 678 580 L 679 580 M 679 580 L 679 581 L 678 582 L 678 584 L 678 585 L 677 585 L 677 586 L 677 587 L 677 588 M 681 547 L 681 549 L 681 554 L 681 563 L 681 569 L 681 575 L 681 578 L 681 579 L 681 581 L 681 582 L 681 583 L 681 585 L 681 586 L 681 587 L 681 588 L 681 589 L 681 590 L 681 591 M 681 545 L 681 546 L 681 547 L 681 550 L 681 551 M 681 547 L 681 546 L 682 546 L 685 546 L 687 546 L 688 546 M 688 545 L 688 546 L 688 548 L 688 557 L 688 561 L 688 563 L 688 565 L 688 566 L 688 567 L 688 568 L 688 569 L 688 570 L 688 571 M 689 571 L 689 570 L 690 570 L 693 570 L 695 569 L 697 569 L 698 570 L 698 571 L 699 572 L 700 574 L 700 577 L 700 579 L 700 581 L 700 582 L 700 584 L 700 585 L 700 586 L 700 588 L 700 589 L 700 590 M 681 591 L 682 591 L 686 590 L 692 590 L 694 590 L 695 590 L 696 590 L 697 590 L 698 590 L 699 590 M 691 577 L 691 578 L 691 583 L 691 586 L 691 587 L 691 589 L 691 590 L 691 587 L 691 584 L 690 581 L 690 579 L 690 578 L 690 579 L 690 580 L 690 584 L 690 586 L 690 588 L 690 589 L 690 590 L 690 589 L 690 587 L 690 583 L 690 580 L 690 579 M 688 577 L 688 578 L 688 579 L 688 581 L 688 584 L 688 586 L 688 588 L 688 589 L 688 590 M 691 579 L 691 578 L 692 578 L 692 579 L 692 580 L 692 581 L 692 582 L 692 585 L 692 586 L 693 587 L 693 589 L 693 590 L 693 591 L 693 592 M 640 566 L 641 566 L 644 566 L 646 566 L 647 566 L 648 566 L 649 566 L 650 566 L 650 567 L 649 567 L 647 567 L 643 567 L 641 567 L 639 567 L 637 567 L 639 567 L 646 567 L 651 567 L 652 567 M 642 574 L 642 575 L 642 578 L 642 580 L 642 582 L 642 584 L 642 585 L 642 586 L 642 585 L 642 582 L 642 579 L 642 578 L 642 577 L 642 576 L 642 575 L 642 574 M 679 578 L 679 579 L 679 580 L 679 582 L 679 584 L 679 585 M 661 567 L 661 566 L 660 566 L 659 566 L 657 566 L 656 566 L 655 566 L 654 566 L 653 566 M 656 567 L 656 569 L 656 571 L 656 572 L 656 573 L 656 574 M 656 574 L 657 574 L 658 574 L 660 574 L 661 574 L 662 574 L 663 574 L 664 574 M 663 574 L 663 575 L 663 577 L 663 579 L 663 580 M 670 566 L 671 566 L 672 566 L 674 566 L 675 566 L 676 566 L 677 566 L 678 566 M 678 566 L 678 567 L 678 568 L 678 570 L 678 571 L 678 572 L 678 573 L 678 574 L 677 574 M 670 574 L 671 574 L 673 574 L 674 574 L 675 574 L 676 574 L 676 573 M 672 560 L 672 561 L 672 563 L 672 565 L 672 566 M 663 559 L 663 560 L 663 563 L 663 565 L 663 566 L 663 567 M 671 573 L 671 574 L 671 575 L 671 577 M 671 575 L 671 576 L 671 577 L 671 578 L 671 579 L 671 580 L 671 581 L 672 581 L 673 581 L 674 581 L 675 581 L 676 581 L 677 581 M 623 556 L 663 556 M 610 557 L 663 557 M 624 555 L 663 555 M 610 558 L 663 558 M 610 556 L 619 556 M 624 554 L 663 554 M 610 559 L 662 559 M 630 553 L 663 553 M 610 560 L 662 560 M 632 552 L 663 552 M 620 561 L 662 561 M 632 551 L 663 551 M 620 562 L 662 562 M 633 550 L 663 550 M 620 563 L 662 563 M 633 549 L 663 549 M 620 564 L 662 564 M 633 548 L 663 548 M 619 565 L 622 565 M 631 565 L 640 565 M 652 565 L 653 565 M 633 547 L 663 547 M 619 566 L 622 566 M 632 566 L 636 566 M 633 546 L 663 546 M 619 567 L 622 567 M 632 567 L 634 567 M 632 545 L 663 545 M 619 568 L 622 568 M 632 568 L 634 568 M 632 544 L 663 544 M 619 569 L 622 569 M 632 569 L 634 569 M 0 543 L 800 543 M 619 570 L 622 570 M 632 570 L 634 570 M 0 544 L 598 544 M 600 544 L 626 544 M 665 544 L 800 544 M 0 542 L 800 542 M 619 571 L 622 571 M 632 571 L 634 571 M 0 545 L 567 545 M 576 545 L 598 545 M 620 545 L 625 545 M 672 545 L 680 545 M 689 545 L 800 545 M 0 541 L 800 541 M 610 572 L 622 572 M 632 572 L 634 572 M 0 546 L 545 546 M 550 546 L 566 546 M 576 546 L 598 546 M 623 546 L 624 546 M 673 546 L 680 546 M 689 546 L 800 546 M 0 540 L 800 540 M 610 573 L 622 573 M 610 571 L 615 571 M 632 573 L 634 573 M 0 547 L 544 547 M 552 547 L 566 547 M 576 547 L 598 547 M 673 547 L 680 547 M 689 547 L 800 547 M 0 539 L 800 539 M 610 574 L 622 574 M 632 574 L 634 574 M 0 548 L 467 548 M 469 548 L 471 548 M 489 548 L 543 548 M 553 548 L 566 548 M 576 548 L 598 548 M 673 548 L 680 548 M 689 548 L 800 548 M 0 538 L 800 538 M 610 575 L 622 575 M 632 575 L 634 575 M 0 549 L 467 549 M 491 549 L 543 549 M 553 549 L 566 549 M 576 549 L 598 549 M 673 549 L 680 549 M 689 549 L 800 549 M 0 537 L 800 537 M 610 576 L 622 576 M 632 576 L 634 576 M 0 550 L 467 550 M 492 550 L 543 550 M 553 550 L 566 550 M 576 550 L 598 550 M 673 550 L 680 550 M 689 550 L 800 550 M 0 536 L 800 536 M 610 577 L 622 577 M 632 577 L 634 577 M 0 551 L 467 551 M 493 551 L 543 551 M 553 551 L 566 551 M 576 551 L 598 551 M 673 551 L 680 551 M 689 551 L 800 551 M 0 535 L 800 535 M 610 578 L 622 578 M 632 578 L 634 578 M 0 552 L 467 552 M 493 552 L 543 552 M 553 552 L 566 552 M 576 552 L 598 552 M 673 552 L 680 552 M 689 552 L 800 552 M 0 534 L 800 534 M 610 579 L 622 579 M 632 579 L 634 579 M 0 553 L 467 553 M 494 553 L 543 553 M 553 553 L 566 553 M 576 553 L 598 553 M 673 553 L 680 553 M 689 553 L 800 553 M 0 533 L 800 533 M 610 580 L 622 580 M 632 580 L 634 580 M 0 554 L 467 554 M 494 554 L 543 554 M 553 554 L 566 554 M 576 554 L 598 554 M 673 554 L 680 554 M 689 554 L 800 554 M 0 532 L 800 532 M 610 581 L 622 581 M 632 581 L 634 581 M 0 555 L 467 555 M 494 555 L 543 555 M 553 555 L 566 555 M 576 555 L 598 555 M 673 555 L 680 555 M 689 555 L 800 555 M 0 531 L 800 531 M 610 582 L 622 582 M 632 582 L 634 582 M 0 556 L 467 556 M 494 556 L 545 556 M 552 556 L 566 556 M 576 556 L 598 556 M 673 556 L 680 556 M 689 556 L 800 556 M 0 530 L 800 530 M 610 583 L 622 583 M 632 583 L 634 583 M 0 557 L 467 557 M 494 557 L 566 557 M 576 557 L 598 557 M 673 557 L 680 557 M 689 557 L 800 557 M 0 529 L 800 529 M 610 584 L 622 584 M 632 584 L 634 584 M 0 558 L 408 558 M 415 558 L 467 558 M 495 558 L 566 558 M 576 558 L 598 558 M 673 558 L 680 558 M 689 558 L 800 558 M 0 528 L 800 528 M 610 585 L 622 585 M 632 585 L 634 585 M 0 559 L 408 559 M 415 559 L 467 559 M 495 559 L 566 559 M 576 559 L 598 559 M 673 559 L 680 559 M 689 559 L 800 559 M 0 527 L 800 527 M 610 586 L 622 586 M 632 586 L 634 586 M 0 560 L 408 560 M 415 560 L 467 560 M 495 560 L 566 560 M 576 560 L 598 560 M 674 560 L 680 560 M 689 560 L 800 560 M 0 526 L 800 526 M 610 587 L 622 587 M 632 587 L 635 587 M 0 561 L 408 561 M 415 561 L 467 561 M 495 561 L 566 561 M 576 561 L 598 561 M 674 561 L 680 561 M 689 561 L 800 561 M 0 525 L 800 525 M 610 588 L 667 588 M 0 562 L 408 562 M 415 562 L 467 562 M 495 562 L 566 562 M 576 562 L 598 562 M 673 562 L 680 562 M 689 562 L 800 562 M 0 524 L 800 524 M 518 589 L 680 589 M 644 587 L 665 587 M 0 563 L 408 563 M 415 563 L 467 563 M 495 563 L 566 563 M 576 563 L 598 563 M 673 563 L 680 563 M 689 563 L 800 563 M 0 523 L 800 523 M 441 590 L 680 590 M 519 588 L 608 588 M 678 588 L 680 588 M 644 586 L 663 586 M 0 564 L 408 564 M 415 564 L 467 564 M 495 564 L 566 564 M 576 564 L 598 564 M 673 564 L 680 564 M 689 564 L 800 564 M 0 522 L 800 522 M 441 591 L 681 591 M 441 589 L 512 589 M 514 589 L 516 589 M 519 587 L 526 587 M 535 587 L 544 587 M 548 587 L 574 587 M 576 587 L 599 587 M 678 587 L 680 587 M 643 585 L 663 585 M 0 565 L 408 565 M 415 565 L 467 565 M 495 565 L 516 565 M 518 565 L 535 565 M 537 565 L 566 565 M 576 565 L 598 565 M 678 565 L 680 565 M 689 565 L 800 565 M 441 592 L 800 592 M 441 588 L 468 588 M 471 588 L 483 588 M 485 588 L 504 588 M 518 586 L 526 586 M 535 586 L 544 586 M 553 586 L 555 586 M 576 586 L 598 586 M 678 586 L 680 586 M 643 584 L 662 584 M 0 566 L 408 566 M 415 566 L 467 566 M 495 566 L 502 566 M 526 566 L 535 566 M 553 566 L 566 566 M 576 566 L 598 566 M 689 566 L 800 566 M 441 593 L 800 593 M 684 591 L 692 591 M 694 591 L 800 591 M 441 587 L 468 587 M 488 587 L 500 587 M 518 585 L 525 585 M 536 585 L 544 585 M 553 585 L 555 585 M 576 585 L 598 585 M 643 583 L 662 583 M 0 567 L 408 567 M 415 567 L 467 567 M 495 567 L 498 567 M 526 567 L 535 567 M 553 567 L 566 567 M 576 567 L 598 567 M 689 567 L 800 567 M 441 594 L 800 594 M 699 590 L 800 590 M 441 586 L 467 586 M 490 586 L 499 586 M 518 584 L 524 584 M 537 584 L 544 584 M 553 584 L 555 584 M 576 584 L 598 584 M 643 582 L 662 582 M 0 568 L 408 568 M 415 568 L 467 568 M 495 568 L 498 568 M 526 568 L 534 568 M 553 568 L 557 568 M 576 568 L 598 568 M 689 568 L 694 568 M 698 568 L 800 568 M 441 595 L 800 595 M 701 589 L 800 589 M 441 585 L 467 585 M 492 585 L 499 585 M 518 583 L 524 583 M 537 583 L 544 583 M 576 583 L 598 583 M 643 581 L 662 581 M 0 569 L 408 569 M 415 569 L 467 569 M 495 569 L 498 569 M 527 569 L 533 569 M 553 569 L 557 569 M 576 569 L 598 569 M 699 569 L 800 569 M 0 596 L 800 596 M 701 588 L 800 588 M 441 584 L 467 584 M 493 584 L 499 584 M 518 582 L 524 582 M 537 582 L 544 582 M 576 582 L 598 582 M 643 580 L 662 580 M 0 570 L 408 570 M 415 570 L 467 570 M 495 570 L 498 570 M 527 570 L 533 570 M 553 570 L 557 570 M 576 570 L 598 570 M 699 570 L 800 570 M 0 597 L 800 597 M 0 595 L 428 595 M 701 587 L 800 587 M 441 583 L 467 583 M 494 583 L 499 583 M 518 581 L 523 581 M 537 581 L 544 581 M 576 581 L 598 581 M 643 579 L 662 579 M 0 571 L 408 571 M 415 571 L 467 571 M 495 571 L 498 571 M 528 571 L 532 571 M 553 571 L 556 571 M 576 571 L 598 571 M 700 571 L 800 571 M 0 598 L 800 598 M 0 594 L 428 594 M 701 586 L 800 586 M 441 582 L 467 582 M 495 582 L 499 582 M 518 580 L 523 580 M 538 580 L 544 580 M 576 580 L 598 580 M 643 578 L 662 578 M 0 572 L 408 572 M 415 572 L 467 572 M 495 572 L 498 572 M 528 572 L 532 572 M 553 572 L 555 572 M 576 572 L 598 572 M 700 572 L 800 572 M 0 599 L 800 599 M 0 593 L 428 593 M 701 585 L 800 585 M 442 581 L 467 581 M 495 581 L 499 581 M 518 579 L 523 579 M 538 579 L 544 579 M 576 579 L 598 579 M 643 577 L 661 577 M 0 573 L 408 573 M 415 573 L 467 573 M 495 573 L 498 573 M 529 573 L 531 573 M 553 573 L 555 573 M 576 573 L 598 573 M 701 573 L 800 573 M 0 592 L 428 592 M 701 584 L 800 584 M 442 580 L 467 580 M 495 580 L 499 580 M 518 578 L 522 578 M 538 578 L 544 578 M 576 578 L 598 578 M 643 576 L 662 576 M 0 574 L 408 574 M 422 574 L 467 574 M 495 574 L 498 574 M 553 574 L 554 574 M 576 574 L 598 574 M 701 574 L 800 574 M 0 591 L 428 591 M 701 583 L 800 583 M 442 579 L 467 579 M 495 579 L 499 579 M 518 577 L 522 577 M 539 577 L 544 577 M 576 577 L 598 577 M 643 575 L 649 575 M 651 575 L 662 575 M 0 575 L 408 575 M 423 575 L 427 575 M 429 575 L 433 575 M 442 575 L 467 575 M 495 575 L 499 575 M 576 575 L 598 575 M 701 575 L 800 575 M 0 590 L 428 590 M 701 582 L 800 582 M 442 578 L 467 578 M 495 578 L 499 578 M 518 576 L 522 576 M 539 576 L 544 576 M 576 576 L 598 576 M 652 574 L 656 574 M 0 576 L 408 576 M 424 576 L 427 576 M 442 576 L 467 576 M 495 576 L 499 576 M 701 576 L 800 576 M 0 589 L 428 589 M 701 581 L 800 581 M 442 577 L 467 577 M 495 577 L 499 577 M 518 575 L 521 575 M 540 575 L 544 575 M 652 573 L 655 573 M 0 577 L 408 577 M 424 577 L 427 577 M 701 577 L 800 577 M 0 588 L 408 588 M 423 588 L 427 588 M 701 580 L 800 580 M 518 574 L 521 574 M 540 574 L 544 574 M 652 572 L 655 572 M 0 578 L 408 578 M 424 578 L 427 578 M 701 578 L 800 578 M 0 587 L 408 587 M 424 587 L 427 587 M 701 579 L 800 579 M 518 573 L 519 573 M 541 573 L 544 573 M 652 571 L 655 571 M 0 579 L 408 579 M 424 579 L 427 579 M 0 586 L 409 586 M 424 586 L 427 586 M 541 572 L 544 572 M 652 570 L 655 570 M 0 580 L 408 580 M 424 580 L 427 580 M 0 585 L 409 585 M 424 585 L 427 585 M 542 571 L 544 571 M 652 569 L 655 569 M 0 581 L 408 581 M 424 581 L 427 581 M 0 584 L 408 584 M 424 584 L 427 584 M 542 570 L 544 570 M 652 568 L 655 568 M 0 582 L 408 582 M 424 582 L 427 582 M 0 583 L 408 583 M 424 583 L 427 583 M 542 569 L 544 569 M 652 567 L 655 567 M 652 566 L 653 566 M 672 578 L 678 578 M 672 579 L 676 579 M 672 577 L 680 577 M 672 576 L 680 576 M 672 575 L 680 575 M 680 567 L 680 568 L 679 572 L 679 575 L 679 576 M 549 197 L 547 199 L 543 204"
    fill="none"
    stroke="black"
    stroke-width="3px"
    stroke-miterlimit="10"
    stroke-linecap="butt"
    stroke-linejoin="round"/>
</svg>