<svg viewBox="0 0 800 600" xmlns="http://www.w3.org/2000/svg">
  <rect width="800" height="600" fill="white"/>  <path
    d="M 563 407 L 564 405 M 600 484 L 590 486 M 559 481 L 547 474 L 541 467 L 539 459 L 539 449 L 540 439 L 544 429 L 548 422 L 553 418 L 556 416 L 559 414 M 566 410 L 565 410 L 564 410 L 559 413 L 555 416 M 597 448 L 597 446 L 593 439 L 589 432 L 585 429 L 581 428 L 578 428 L 577 428 L 575 429 L 575 430 L 574 430 M 575 434 L 574 434 L 573 438 L 573 439 L 573 438 L 574 435 L 574 436 M 559 425 L 559 424 L 558 423 L 557 420 L 556 419 L 555 419 L 554 419 L 553 419 L 552 420 L 552 421 M 552 426 L 552 427 L 552 428 L 551 429 L 551 428 L 551 427 L 552 426 L 552 427 L 552 428 L 552 429 L 551 429 L 551 431 L 550 431 M 598 485 L 597 485 L 597 489 L 598 494 L 599 497 M 579 490 L 578 490 L 578 493 L 579 496 M 600 492 L 598 493 L 585 499 L 579 501 L 577 503 M 612 501 L 612 504 M 612 504 L 612 505 L 608 510 L 600 513 L 594 516 L 591 517 L 588 519 L 584 519 L 582 519 L 581 519 L 579 519 L 579 520 M 577 501 L 576 501 L 574 501 L 573 502 L 573 503 L 573 510 L 574 515 L 574 517 M 578 491 L 577 490 L 572 492 L 567 494 L 565 495 L 565 497 L 565 504 L 565 508 M 612 505 L 617 510 L 624 518 L 624 520 L 625 521 M 628 520 L 630 520 L 636 542 L 642 581 L 648 600 M 535 539 L 535 538 L 531 534 L 526 531 L 521 528 L 518 528 L 517 528 L 517 529 L 517 531 L 519 533 L 519 534 M 524 538 L 523 536 L 516 536 L 505 536 L 501 535 L 500 535 L 499 535 L 498 536 L 498 537 L 498 539 L 498 541 M 520 543 L 518 543 L 510 543 L 498 543 L 496 543 M 507 545 L 505 545 L 503 545 L 502 545 L 500 545 L 500 546 L 500 547 L 500 549 L 500 551 L 500 552 L 501 554 L 501 555 L 502 555 M 522 560 L 521 560 L 513 560 L 507 560 L 503 560 L 502 560 M 499 528 L 501 528 L 503 528 L 505 528 L 508 528 L 509 528 L 509 529 L 509 531 M 497 520 L 498 520 L 499 520 L 501 522 L 501 523 L 501 525 L 501 526 L 501 527 L 500 528 M 498 522 L 498 521 L 494 520 L 488 520 L 484 520 L 482 520 L 480 520 L 479 520 L 478 520 L 477 520 L 477 521 L 476 522 L 475 522 L 475 523 L 477 525 L 478 526 M 478 528 L 478 529 L 478 530 L 478 535 L 478 539 L 478 540 L 478 541 M 478 541 L 477 541 L 476 541 L 475 542 L 475 544 L 475 546 L 475 548 L 476 548 L 478 549 M 496 550 L 495 550 L 489 550 L 484 550 L 482 550 M 500 481 L 500 482 L 500 484 L 500 489 L 501 493 L 502 496 L 502 499 L 502 501 L 502 503 L 501 504 L 500 504 M 498 499 L 498 502 L 498 509 L 498 520 L 497 523 M 499 482 L 499 481 L 499 479 L 499 476 L 498 474 L 497 474 L 496 474 L 493 474 L 489 474 L 486 474 L 483 473 L 481 472 L 480 472 M 480 472 L 479 472 L 478 472 L 478 473 L 477 476 L 477 480 L 477 481 L 477 482 L 477 483 M 481 483 L 481 484 L 481 485 L 480 487 L 480 488 L 478 488 L 477 488 M 477 484 L 477 486 L 477 487 L 477 489 L 477 491 M 481 489 L 481 491 L 481 494 L 481 498 L 481 500 L 481 502 L 481 503 L 480 505 L 480 506 L 480 507 L 480 509 L 480 510 L 480 511 M 481 504 L 481 505 L 481 506 L 481 513 L 481 517 L 481 518 L 481 519 M 490 472 L 490 471 L 492 470 L 495 465 L 496 460 L 496 458 L 495 456 L 491 456 L 488 456 L 486 455 L 485 454 L 485 453 M 483 453 L 482 455 L 481 459 L 480 461 L 479 465 L 479 467 L 480 469 L 481 471 M 486 466 L 486 467 L 486 471 L 486 470 L 486 466 L 486 467 L 486 468 L 486 471 L 486 470 M 487 484 L 486 484 L 485 485 L 483 486 L 482 486 M 493 493 L 493 495 L 494 496 M 540 542 L 540 549 L 540 561 L 534 569 L 528 572 L 523 573 L 519 573 L 517 572 M 517 564 L 517 565 L 517 568 M 574 520 L 574 521 L 570 528 M 567 561 L 567 570 L 566 575 L 565 577 M 622 537 L 621 541 L 611 563 L 603 584 L 600 592 M 605 525 L 604 526 L 600 530 L 590 548 L 584 559 L 581 563 L 578 565 M 579 563 L 579 564 L 579 574 L 579 585 L 579 590 M 578 572 L 577 573 L 575 577 L 573 582 L 570 585 M 546 550 L 547 553 L 554 567 L 562 580 L 566 585 M 525 576 L 526 580 L 532 592 L 536 598 M 566 519 L 566 521 L 562 530 L 558 540 L 556 544 L 556 545 L 556 546 L 558 550 L 559 554 L 560 556 M 564 513 L 563 513 L 558 520 L 554 528 L 552 530 L 551 531 L 551 532 L 550 532 L 550 534 L 549 535 L 548 536 L 548 537 L 546 539 L 546 541 L 545 543 L 545 544 L 547 550 L 549 554 L 549 557 L 550 559 L 550 562 M 559 554 L 559 555 L 560 560 L 561 566 L 561 567 M 574 520 L 572 519 L 569 517 M 572 527 L 571 527 M 579 489 L 578 488 L 573 486 L 563 482 L 554 479 L 552 478 M 538 470 L 541 473 L 543 479 L 544 484 L 544 486 L 544 488 L 540 489 L 536 489 L 535 491 L 535 493 L 539 499 L 540 503 L 540 504 L 538 507 L 538 509 L 538 510 M 553 479 L 556 481 L 558 485 L 558 489 L 558 490 L 557 492 L 554 493 L 553 493 L 552 494 L 552 496 L 552 502 L 555 508 L 556 509 L 555 510 L 552 511 L 549 513 L 549 516 L 548 516 M 546 514 L 544 513 L 539 509 L 537 507 M 611 444 L 611 445 L 612 447 L 614 454 L 615 462 L 612 470 L 605 474 L 600 477 L 599 478 L 600 484 M 600 496 L 598 500 L 598 502 L 600 503 M 630 461 L 631 470 L 631 476 L 627 479 L 620 480 L 618 481 L 619 482 L 620 486 L 621 494 L 621 497 L 617 497 L 615 497 L 614 499 L 614 503 L 614 507 L 615 509 L 615 510 M 612 510 L 606 505 L 602 502 L 601 500 L 600 499 M 560 396 L 559 396 L 556 396 L 547 396 L 543 396 L 542 398 L 542 402 L 543 407 L 546 413 M 611 441 L 611 440 L 605 434 L 595 426 L 590 421 L 589 418 M 589 418 L 589 419 L 588 422 M 585 422 L 583 422 L 578 422 L 573 419 L 569 416 L 566 412 L 564 411 M 562 410 L 561 413 L 560 413 L 559 413 M 650 437 L 650 439 L 657 446 L 662 454 L 662 462 L 657 472 L 653 481 L 651 484 M 649 484 L 648 484 L 647 484 L 643 492 L 642 501 L 645 507 L 651 514 L 656 520 L 657 524 L 656 527 L 652 534 L 652 541 L 655 549 L 657 553 M 650 435 L 646 422 L 638 410 L 626 401 L 610 392 L 597 388 L 589 387 L 583 387 L 579 387 L 576 389 L 572 391 L 570 393 L 569 394 M 653 549 L 653 551 L 655 556 L 658 561 L 661 565 L 662 568 L 662 569 L 661 571 L 658 576 L 656 580 L 655 582 L 655 584 M 656 584 L 656 585 L 653 589 L 648 592 L 644 594 M 671 421 L 672 421 L 672 422 L 668 441 L 664 462 L 662 470 L 662 471 L 660 474 M 676 415 L 673 415 L 654 410 L 633 404 L 623 401 M 648 410 L 655 414 L 656 418 L 656 423 L 656 426 L 652 429 L 650 430 M 669 436 L 668 436 L 666 434 L 661 434 L 657 437 L 656 440 L 656 443 L 656 445 L 655 446 M 672 414 L 672 417 L 672 427 L 672 432 L 672 435 M 543 408 L 543 409 L 544 414 L 545 419 L 546 421 M 494 527 L 493 527 L 486 527 L 482 527 L 481 527 M 493 544 L 492 544 L 487 544 L 485 544 L 482 544 M 531 559 L 529 559 L 525 561 L 522 562 M 523 564 L 526 567 L 528 570 M 535 540 L 535 541 L 537 547 L 538 550 M 539 544 L 539 543 L 538 543 M 524 563 L 524 564 L 524 565 L 524 568 L 524 570 M 522 563 L 522 567 L 522 571 L 522 573 L 521 573 M 518 566 L 518 569 M 573 513 L 572 512 L 569 511 L 568 511 M 570 515 L 570 516 L 570 518 L 570 519 M 561 559 L 561 561 L 562 570 L 562 574 M 570 585 L 570 586 L 570 591 L 570 594 L 570 597 L 569 598 M 565 584 L 565 587 L 565 590 M 606 583 L 604 587 L 600 596 L 599 600 M 572 524 L 572 526 L 567 535 L 564 540 L 562 543 L 561 545 L 560 547 L 559 549 M 559 551 L 560 553 L 561 557 L 561 563 L 563 568 L 563 571 M 596 396 L 595 396 L 593 396 L 587 396 L 586 396 L 584 396 M 575 402 L 574 403 L 574 404 L 573 405 M 547 488 L 547 489 L 547 491 M 630 477 L 630 483 L 631 498 L 633 512 L 635 521 L 635 523 L 636 526 L 636 527 M 623 482 L 623 485 L 625 499 L 629 513 L 630 519 M 620 498 L 620 501 L 620 508 L 621 512 M 629 436 L 630 442 L 633 450 L 633 453 M 611 414 L 613 415 L 615 416 L 615 418 M 648 448 L 649 450 L 650 453 L 650 456 L 650 457 L 651 458 M 649 472 L 647 475 L 644 481 L 644 482 M 643 515 L 644 515 L 649 520 M 646 541 L 646 547 L 646 555 L 646 560 L 646 566 L 646 568 M 649 578 L 650 579 M 545 501 L 545 504 M 609 476 L 608 476 L 606 480 L 603 485 M 593 485 L 593 487 L 593 492 L 593 493 M 590 486 L 590 487 L 590 489 L 589 491 L 589 492 M 587 487 L 587 488 L 587 491 L 586 492 L 585 492 M 584 488 L 584 489 L 584 490 M 627 482 L 627 483 L 627 489 L 627 504 L 630 518 L 633 529 L 635 535 L 636 537 L 636 539 L 637 541 L 638 543 L 638 544 L 638 545 M 621 498 L 622 501 L 624 509 L 625 513 L 625 515 L 626 518 M 616 497 L 616 499 L 616 505 M 621 500 L 625 507 L 631 521 L 637 536 L 640 543 L 641 547 L 642 552 M 633 462 L 633 465 L 633 475 L 634 489 L 635 496 L 635 500 M 639 504 L 642 518 L 642 527 M 611 458 L 611 460 L 611 467 M 607 466 L 607 472 L 608 476 L 608 477 M 612 566 L 612 567 L 612 568 L 613 571 M 609 574 L 609 575 L 609 578 L 609 582 L 610 584 L 610 585 M 606 584 L 607 588 L 609 594 L 609 597 M 604 594 L 604 595 L 604 596 L 605 600 M 603 597 L 603 598 L 603 600 M 532 560 L 532 562 L 533 566 L 534 568 M 530 563 L 530 564 L 531 569 L 531 572 L 531 571 M 528 564 L 528 565 L 528 570 M 485 487 L 485 489 L 485 491 L 484 491 M 483 488 L 483 494 M 800 440 L 802 442 M 796 436 L 798 438 M 792 440 L 794 442 M 792 448 L 794 450 M 788 436 L 790 438 M 788 444 L 790 446 M 788 452 L 790 454 M 800 456 L 802 458 M 800 464 L 802 466 M 796 460 L 798 462 M 796 468 L 798 470 M 792 464 L 794 466 M 792 472 L 794 474 M 788 460 L 790 462 M 788 468 L 790 470 M 784 456 L 786 458 M 784 464 L 786 466 M 788 484 L 790 486 M 788 492 L 790 494 M 784 480 L 786 482 M 784 488 L 786 490 M 784 496 L 786 498 M 780 484 L 782 486 M 776 512 L 778 514 M 772 508 L 774 510 M 772 516 L 774 518 M 764 508 L 766 510 M 760 512 L 762 514 M 764 524 L 766 526 M 764 532 L 766 534 M 756 516 L 758 518 M 752 520 L 754 522 M 748 532 L 750 534 M 744 536 L 746 538 M 744 552 L 746 554 M 740 556 L 742 558 M 732 540 L 734 542 M 732 556 L 734 558 M 728 544 L 730 546 M 728 552 L 730 554 M 732 564 L 734 566 M 728 560 L 730 562 M 724 548 L 726 550 M 724 556 L 726 558 M 724 564 L 726 566 M 720 552 L 722 554 M 720 560 L 722 562 M 720 568 L 722 570 M 716 564 L 718 566 M 716 572 L 718 574 M 712 568 L 714 570 M 712 576 L 714 578 M 708 572 L 710 574 M 704 560 L 706 562 M 704 568 L 706 570 M 704 576 L 706 578 M 708 580 L 710 582 M 700 580 L 702 582 M 696 576 L 698 578 M 704 584 L 706 586 M 692 572 L 694 574 M 688 576 L 690 578 M 688 584 L 690 586 M 688 592 L 690 594 M 684 580 L 686 582 M 684 588 L 686 590 M 680 584 L 682 586 M 684 596 L 686 598 M 680 600 L 682 602 M 676 588 L 678 590 M 676 596 L 678 598 M 672 584 L 674 586 M 672 592 L 674 594 M 672 600 L 674 602 M 696 592 L 698 594 M 692 596 L 694 598 M 736 560 L 738 562 M 760 536 L 762 538 M 756 540 L 758 542 M 780 516 L 782 518 M 776 520 L 778 522 M 772 524 L 774 526 M 788 500 L 790 502 M 788 508 L 790 510 M 784 504 L 786 506 M 780 500 L 782 502 M 780 508 L 782 510 M 776 504 L 778 506 M 796 492 L 798 494 M 792 488 L 794 490 M 792 496 L 794 498 M 800 480 L 802 482 M 800 488 L 802 490 M 796 476 L 798 478 M 796 484 L 798 486 M 792 480 L 794 482 M 788 476 L 790 478 M 800 472 L 802 474 M 784 512 L 786 514 M 764 540 L 766 542 M 748 548 L 750 550 M 748 556 L 750 558 M 744 560 L 746 562 M 736 568 L 738 570 M 732 572 L 734 574 M 728 568 L 730 570 M 724 572 L 726 574 M 728 576 L 730 578 M 724 580 L 726 582 M 720 576 L 722 578 M 716 580 L 718 582 M 720 584 L 722 586 M 716 588 L 718 590 M 712 584 L 714 586 M 708 588 L 710 590 M 712 592 L 714 594 M 708 596 L 710 598 M 704 592 L 706 594 M 700 588 L 702 590 M 700 596 L 702 598 M 696 600 L 698 602 M 688 600 L 690 602 M 756 548 L 758 550 M 752 544 L 754 546 M 752 552 L 754 554 M 768 528 L 770 530 M 796 500 L 798 502 M 792 504 L 794 506 M 800 496 L 802 498 M 524 596 L 526 598 M 520 592 L 522 594 M 508 596 L 510 598 M 488 592 L 490 594 M 472 592 L 474 594 M 468 596 L 470 598 M 460 596 L 462 598 M 448 600 L 450 602 M 428 596 L 430 598 M 424 600 L 426 602 M 432 600 L 434 602 M 436 596 L 438 598 M 464 600 L 466 602 M 480 600 L 482 602 M 476 596 L 478 598 M 488 600 L 490 602 M 484 596 L 486 598 M 504 600 L 506 602 M 500 596 L 502 598 M 516 596 L 518 598 M 520 600 L 522 602 M 460 588 L 462 590 M 456 592 L 458 594 M 444 588 L 446 590 M 440 592 L 442 594 M 428 588 L 430 590 M 424 592 L 426 594 M 420 588 L 422 590 M 424 584 L 426 586 M 436 580 L 438 582 M 432 584 L 434 586 M 452 580 L 454 582 M 464 584 L 466 586 M 468 588 L 470 590 M 676 580 L 678 582 M 668 588 L 670 590 M 712 552 L 714 554 M 724 540 L 726 542 M 748 516 L 750 518 M 756 508 L 758 510 M 752 504 L 754 506 M 756 500 L 758 502 M 756 492 L 758 494 M 772 460 L 774 462 M 772 444 L 774 446 M 772 452 L 774 454 M 780 452 L 782 454 M 776 448 L 778 450 M 780 420 L 782 422 M 788 420 L 790 422 M 796 428 L 798 430 M 792 432 L 794 434 M 800 416 L 802 418 M 784 448 L 786 450 M 784 416 L 786 418 M 784 440 L 786 442 M 780 436 L 782 438 M 780 444 L 782 446 M 776 440 L 778 442 M 776 464 L 778 466 M 772 468 L 774 470 M 776 424 L 778 426 M 772 428 L 774 430 M 784 408 L 786 410 M 780 412 L 782 414 M 784 432 L 786 434 M 780 428 L 782 430 M 780 460 L 782 462 M 788 412 L 790 414 M 792 400 L 794 402 M 788 404 L 790 406 M 788 428 L 790 430 M 792 424 L 794 426 M 792 416 L 794 418 M 776 456 L 778 458 M 784 424 L 786 426 M 776 432 L 778 434 M 772 436 L 774 438 M 768 440 L 770 442 M 756 468 L 758 470 M 752 464 L 754 466 M 748 468 L 750 470 M 748 460 L 750 462 M 744 472 L 746 474 M 736 504 L 738 506 M 728 512 L 730 514 M 732 500 L 734 502 M 728 504 L 730 506 M 732 508 L 734 510 M 704 544 L 706 546 M 700 540 L 702 542 M 700 548 L 702 550 M 724 508 L 726 510 M 724 524 L 726 526 M 720 520 L 722 522 M 688 568 L 690 570 M 684 572 L 686 574 M 736 488 L 738 490 M 752 480 L 754 482 M 748 484 L 750 486 M 744 488 L 746 490 M 716 532 L 718 534 M 712 560 L 714 562 M 708 564 L 710 566 M 736 520 L 738 522 M 732 524 L 734 526 M 740 524 L 742 526 M 740 532 L 742 534 M 736 528 L 738 530 M 748 508 L 750 510 M 744 504 L 746 506 M 732 548 L 734 550 M 736 536 L 738 538 M 764 492 L 766 494 M 776 480 L 778 482 M 772 484 L 774 486 M 776 488 L 778 490 M 772 492 L 774 494 M 768 504 L 770 506 M 768 496 L 770 498 M 780 476 L 782 478 M 784 472 L 786 474 M 780 492 L 782 494 M 764 548 L 766 550 M 760 544 L 762 546 M 760 520 L 762 522 M 768 520 L 770 522 M 752 560 L 754 562 M 712 600 L 714 602 M 740 548 L 742 550 M 736 552 L 738 554 M 764 516 L 766 518 M 756 532 L 758 534 M 760 528 L 762 530 M 728 584 L 730 586 M 724 588 L 726 590 M 716 596 L 718 598 M 756 524 L 758 526 M 752 528 L 754 530 M 752 536 L 754 538 M 748 540 L 750 542 M 800 504 L 802 506 M 800 512 L 802 514 M 800 520 L 802 522 M 800 528 L 802 530 M 796 508 L 798 510 M 796 516 L 798 518 M 796 524 L 798 526 M 792 512 L 794 514 M 792 520 L 794 522 M 792 528 L 794 530 M 788 516 L 790 518 M 788 524 L 790 526 M 784 520 L 786 522 M 796 532 L 798 534 M 792 536 L 794 538 M 788 532 L 790 534 M 784 528 L 786 530 M 780 524 L 782 526 M 796 548 L 798 550 M 796 556 L 798 558 M 792 544 L 794 546 M 792 552 L 794 554 M 792 560 L 794 562 M 788 548 L 790 550 M 788 556 L 790 558 M 788 564 L 790 566 M 784 544 L 786 546 M 784 552 L 786 554 M 784 560 L 786 562 M 784 568 L 786 570 M 780 540 L 782 542 M 780 548 L 782 550 M 780 556 L 782 558 M 780 564 L 782 566 M 776 544 L 778 546 M 776 552 L 778 554 M 776 560 L 778 562 M 776 568 L 778 570 M 772 548 L 774 550 M 772 556 L 774 558 M 772 564 L 774 566 M 768 552 L 770 554 M 768 560 L 770 562 M 792 568 L 794 570 M 792 576 L 794 578 M 788 572 L 790 574 M 788 580 L 790 582 M 784 576 L 786 578 M 780 572 L 782 574 M 780 580 L 782 582 M 776 576 L 778 578 M 772 572 L 774 574 M 772 580 L 774 582 M 768 568 L 770 570 M 768 576 L 770 578 M 764 564 L 766 566 M 764 572 L 766 574 M 764 556 L 766 558 M 796 540 L 798 542 M 788 540 L 790 542 M 784 536 L 786 538 M 780 532 L 782 534 M 776 528 L 778 530 M 776 536 L 778 538 M 772 532 L 774 534 M 772 540 L 774 542 M 800 552 L 802 554 M 800 560 L 802 562 M 796 564 L 798 566 M 788 588 L 790 590 M 788 596 L 790 598 M 784 584 L 786 586 M 784 592 L 786 594 M 784 600 L 786 602 M 780 588 L 782 590 M 780 596 L 782 598 M 776 584 L 778 586 M 776 592 L 778 594 M 776 600 L 778 602 M 772 588 L 774 590 M 772 596 L 774 598 M 768 584 L 770 586 M 768 592 L 770 594 M 768 600 L 770 602 M 764 580 L 766 582 M 764 588 L 766 590 M 764 596 L 766 598 M 760 584 L 762 586 M 760 592 L 762 594 M 760 600 L 762 602 M 760 560 L 762 562 M 760 568 L 762 570 M 768 536 L 770 538 M 768 544 L 770 546 M 792 584 L 794 586 M 792 592 L 794 594 M 760 576 L 762 578 M 768 512 L 770 514 M 748 524 L 750 526 M 752 568 L 754 570 M 752 576 L 754 578 M 748 564 L 750 566 M 748 572 L 750 574 M 748 580 L 750 582 M 744 568 L 746 570 M 744 576 L 746 578 M 744 584 L 746 586 M 740 564 L 742 566 M 740 572 L 742 574 M 740 580 L 742 582 M 736 576 L 738 578 M 736 584 L 738 586 M 732 580 L 734 582 M 740 588 L 742 590 M 736 592 L 738 594 M 732 588 L 734 590 M 732 596 L 734 598 M 728 592 L 730 594 M 724 596 L 726 598 M 720 592 L 722 594 M 760 552 L 762 554 M 756 556 L 758 558 M 756 564 L 758 566 M 744 544 L 746 546 M 740 540 L 742 542 M 736 544 L 738 546 M 756 572 L 758 574 M 756 580 L 758 582 M 756 588 L 758 590 M 756 596 L 758 598 M 752 584 L 754 586 M 752 592 L 754 594 M 752 600 L 754 602 M 748 588 L 750 590 M 748 596 L 750 598 M 744 592 L 746 594 M 744 600 L 746 602 M 740 596 L 742 598 M 736 600 L 738 602 M 800 568 L 802 570 M 796 572 L 798 574 M 800 576 L 802 578 M 800 584 L 802 586 M 796 580 L 798 582 M 800 592 L 802 594 M 800 600 L 802 602 M 796 588 L 798 590 M 796 596 L 798 598 M 792 600 L 794 602 M 752 432 L 754 434 M 760 424 L 762 426 M 768 408 L 770 410 M 776 400 L 778 402 M 776 408 L 778 410 M 768 424 L 770 426 M 784 376 L 786 378 M 784 384 L 786 386 M 792 376 L 794 378 M 792 392 L 794 394 M 784 392 L 786 394 M 768 400 L 770 402 M 760 448 L 762 450 M 760 440 L 762 442 M 752 440 L 754 442 M 728 472 L 730 474 M 720 472 L 722 474 M 720 456 L 722 458 M 720 504 L 722 506 M 720 512 L 722 514 M 720 496 L 722 498 M 712 496 L 714 498 M 704 520 L 706 522 M 696 528 L 698 530 M 696 520 L 698 522 M 688 528 L 690 530 M 688 544 L 690 546 M 688 536 L 690 538 M 696 536 L 698 538 M 696 552 L 698 554 M 696 560 L 698 562 M 688 552 L 690 554 M 680 528 L 682 530 M 680 520 L 682 522 M 672 536 L 674 538 M 672 544 L 674 546 M 472 576 L 474 578 M 456 576 L 458 578 M 440 584 L 442 586 M 496 584 L 498 586 M 480 584 L 482 586 M 416 584 L 418 586 M 400 584 L 402 586 M 400 592 L 402 594 M 344 584 L 346 586 M 344 592 L 346 594 M 392 584 L 394 586 M 368 584 L 370 586 M 384 584 L 386 586 M 416 592 L 418 594 M 376 600 L 378 602 M 798 542 L 800 544 M 798 546 L 800 548 M 798 550 L 800 552 M 798 554 L 800 556 M 794 542 L 796 544 M 794 546 L 796 548 M 794 550 L 796 552 M 794 554 L 796 556 M 790 546 L 792 548 M 790 550 L 792 552 M 794 558 L 796 560 M 790 554 L 792 556 M 790 558 L 792 560 M 790 562 L 792 564 M 786 550 L 788 552 M 786 554 L 788 556 M 786 558 L 788 560 M 786 562 L 788 564 M 782 554 L 784 556 M 782 558 L 784 560 M 778 574 L 780 576 M 778 578 L 780 580 M 774 570 L 776 572 M 774 574 L 776 576 M 774 578 L 776 580 M 770 570 L 772 572 M 770 574 L 772 576 M 770 578 L 772 580 M 754 590 L 756 592 M 754 594 L 756 596 M 750 586 L 752 588 M 750 590 L 752 592 M 750 594 L 752 596 M 750 598 L 752 600 M 746 586 L 748 588 M 746 590 L 748 592 M 746 594 L 748 596 M 746 598 L 748 600 M 738 598 L 740 600 M 734 594 L 736 596 M 734 598 L 736 600 M 730 598 L 732 600 M 730 594 L 732 596 M 726 598 L 728 600 M 762 586 L 764 588 M 762 590 L 764 592 M 758 586 L 760 588 M 758 590 L 760 592 M 758 594 L 760 596 M 754 586 L 756 588 M 778 582 L 780 584 M 778 586 L 780 588 M 774 582 L 776 584 M 774 586 L 776 588 M 770 582 L 772 584 M 770 586 L 772 588 M 786 574 L 788 576 M 786 578 L 788 580 M 786 582 L 788 584 M 782 574 L 784 576 M 782 578 L 784 580 M 782 582 L 784 584 M 766 582 L 768 584 M 766 586 L 768 588 M 742 586 L 744 588 M 742 590 L 744 592 M 742 594 L 744 596 M 742 598 L 744 600 M 766 574 L 768 576 M 766 578 L 768 580 M 762 574 L 764 576 M 762 578 L 764 580 M 762 582 L 764 584 M 758 578 L 760 580 M 790 566 L 792 568 M 790 570 L 792 572 M 786 566 L 788 568 M 786 570 L 788 572 M 782 562 L 784 564 M 782 566 L 784 568 M 782 570 L 784 572 M 778 566 L 780 568 M 778 570 L 780 572 M 774 566 L 776 568 M 738 586 L 740 588 M 738 590 L 740 592 M 738 594 L 740 596 M 734 590 L 736 592 M 722 598 L 724 600 M 718 594 L 720 596 M 718 598 L 720 600 M 714 594 L 716 596 M 714 598 L 716 600 M 710 598 L 712 600 M 722 594 L 724 596 M 726 594 L 728 596 M 770 590 L 772 592 M 766 590 L 768 592 M 790 582 L 792 584 M 786 586 L 788 588 M 782 586 L 784 588 M 798 578 L 800 580 M 798 582 L 800 584 M 798 586 L 800 588 M 794 578 L 796 580 M 794 582 L 796 584 M 794 586 L 796 588 M 790 578 L 792 580 M 790 586 L 792 588 M 706 594 L 708 596 M 706 598 L 708 600 M 702 594 L 704 596 M 702 598 L 704 600 M 774 598 L 776 600 M 770 594 L 772 596 M 770 598 L 772 600 M 766 594 L 768 596 M 766 598 L 768 600 M 762 598 L 764 600 M 778 594 L 780 596 M 778 598 L 780 600 M 774 594 L 776 596 M 782 594 L 784 596 M 782 598 L 784 600 M 774 590 L 776 592 M 798 574 L 800 576 M 798 590 L 800 592 M 794 590 L 796 592 M 790 590 L 792 592 M 786 590 L 788 592 M 754 598 L 756 600 M 762 594 L 764 596 M 790 594 L 792 596 M 790 598 L 792 600 M 786 594 L 788 596 M 786 598 L 788 600 M 758 598 L 760 600 M 794 598 L 796 600 M 798 594 L 800 596 M 782 590 L 784 592 M 778 590 L 780 592 M 790 574 L 792 576 M 794 570 L 796 572 M 794 574 L 796 576 M 798 566 L 800 568 M 798 570 L 800 572 M 794 566 L 796 568 M 798 558 L 800 560 M 798 562 L 800 564 M 794 562 L 796 564 M 794 594 L 796 596 M 798 598 L 800 600 M 526 598 L 528 600 M 522 594 L 524 596 M 522 598 L 524 600 M 518 594 L 520 596 M 518 598 L 520 600 M 514 598 L 516 600 M 514 594 L 516 596 M 510 594 L 512 596 M 510 598 L 512 600 M 506 594 L 508 596 M 506 598 L 508 600 M 502 594 L 504 596 M 502 598 L 504 600 M 498 594 L 500 596 M 498 598 L 500 600 M 494 598 L 496 600 M 494 594 L 496 596 M 490 594 L 492 596 M 490 598 L 492 600 M 486 594 L 488 596 M 486 598 L 488 600 M 482 594 L 484 596 M 482 598 L 484 600 M 478 594 L 480 596 M 478 598 L 480 600 M 474 594 L 476 596 M 474 598 L 476 600 M 470 598 L 472 600 M 470 594 L 472 596 M 466 594 L 468 596 M 466 598 L 468 600 M 462 598 L 464 600 M 458 594 L 460 596 M 458 598 L 460 600 M 454 594 L 456 596 M 454 598 L 456 600 M 450 594 L 452 596 M 450 598 L 452 600 M 446 594 L 448 596 M 446 598 L 448 600 M 442 598 L 444 600 M 438 594 L 440 596 M 438 598 L 440 600 M 434 594 L 436 596 M 434 598 L 436 600 M 430 598 L 432 600 M 430 594 L 432 596 M 426 594 L 428 596 M 426 598 L 428 600 M 422 598 L 424 600 M 434 597 L 433 597 L 399 597 L 358 597 L 307 597 L 254 598 L 244 600 M 799 585 L 798 585 L 777 593 L 760 600 M 785 600 L 788 597 L 785 600 L 785 600 L 785 600 L 794 590 L 785 600 L 797 592 L 794 598 L 792 600 M 781 600 L 781 599 L 781 600 L 781 600 L 781 600 L 790 589 L 781 600 L 800 582 M 800 590 L 797 595 L 800 590 L 795 600 M 788 600 L 790 593 L 788 600 L 788 600 L 788 600 L 797 580 L 788 600 L 800 580"
    fill="none"
    stroke="black"
    stroke-width="3px"
    stroke-miterlimit="10"
    stroke-linecap="butt"
    stroke-linejoin="round"/>
</svg>