<svg viewBox="0 0 800 600" xmlns="http://www.w3.org/2000/svg">
  <rect width="800" height="600" fill="white"/>  <path
    d="M 539 465 L 550 485 L 561 497 L 579 509 L 600 517 L 622 518 L 641 518 L 659 518 L 676 510 L 692 498 L 708 484 L 718 467 L 726 450 L 727 430 L 727 410 L 726 392 L 720 375 M 565 453 L 564 452 L 564 449 L 572 437 L 580 428 L 590 425 L 596 424 L 601 424 L 607 424 L 611 424 M 646 409 L 645 407 L 649 395 L 658 383 L 668 376 L 676 371 L 682 371 L 687 371 L 691 372 L 693 373 M 665 405 L 665 406 L 666 414 L 669 420 L 669 423 L 668 421 L 667 418 L 665 410 L 665 413 M 665 431 L 666 431 L 667 431 L 676 432 L 688 429 L 698 424 L 702 419 M 608 438 L 608 440 L 608 446 L 610 451 L 611 453 L 612 455 L 612 450 L 610 450 L 610 452 L 611 455 M 591 479 L 591 480 L 592 480 L 600 480 L 609 476 L 615 472 L 619 470 L 623 467 L 624 464 M 681 560 L 685 564 M 580 512 L 574 516 M 581 558 L 593 564 L 605 569 L 616 575 L 623 578 L 631 581 M 641 584 L 647 585 L 653 589 L 658 591 L 663 592 L 665 592 L 667 592 L 668 592 M 740 442 L 741 442 M 756 488 L 746 517 L 743 531 L 741 536 L 740 539 L 739 545 L 738 549 L 737 552 L 735 557 L 734 562 M 719 483 L 719 489 L 715 522 L 710 550 L 710 561 M 642 472 L 643 472 L 644 474 L 653 479 L 658 482 L 659 482 L 660 482 L 660 480 L 660 469 L 660 463 L 660 459 M 685 564 L 686 566 L 686 567 L 686 574 L 681 584 L 674 590 L 670 593 M 691 571 L 691 568 L 691 567 L 693 566 L 694 565 L 697 565 L 698 568 L 699 575 L 701 582 L 701 585 M 680 593 L 680 599 L 680 600 M 714 566 L 714 567 L 716 571 L 721 571 L 726 571 L 728 569 M 606 532 L 609 533 L 616 538 L 662 560 L 681 569 L 685 572 L 686 572 L 688 574 L 695 577 M 620 529 L 619 529 L 619 533 L 620 535 M 601 568 L 600 568 L 601 574 M 625 588 L 626 588 L 628 588 M 642 586 L 645 585 L 647 584 M 669 560 L 670 560 M 747 567 L 749 567 M 711 573 L 711 574 L 712 577 L 717 585 L 724 592 L 732 595 L 736 597 L 737 597 M 734 572 L 735 572 L 737 573 L 742 579 L 743 582 L 743 584 L 743 585 M 732 591 L 732 592 L 735 592 L 740 587 M 641 519 L 642 520 L 645 521 L 659 525 L 665 527 L 669 528 L 671 528 M 625 522 L 626 525 L 642 534 L 659 539 L 665 541 L 668 542 L 670 543 M 671 530 L 671 531 L 671 534 L 671 539 M 681 508 L 680 508 L 679 510 L 676 518 L 674 521 L 674 525 L 673 527 L 676 529 L 681 532 L 683 534 L 684 534 M 693 499 L 693 505 L 691 522 L 688 531 L 688 534 L 688 536 M 664 566 L 666 566 L 679 566 L 686 566 L 692 565 L 697 562 L 700 560 L 702 557 L 703 556 L 703 555 M 665 539 L 667 540 L 672 545 L 682 551 L 687 554 L 688 556 M 690 533 L 690 534 L 690 538 L 689 552 L 689 558 M 672 533 L 672 534 L 675 538 L 677 542 L 680 544 M 680 530 L 680 531 L 680 538 L 681 543 L 682 545 M 587 513 L 582 518 L 577 531 L 576 539 L 577 546 L 580 551 L 581 554 L 583 556 L 584 556 M 722 465 L 724 465 L 739 471 L 746 476 L 749 478 M 751 479 L 751 486 L 750 495 L 749 501 M 691 579 L 692 578 L 698 581 L 700 588 L 700 593 L 700 596 M 676 596 L 676 597 L 676 600 M 751 516 L 751 520 L 751 529 L 751 541 L 751 549 L 750 554 L 750 556 L 750 557 L 750 559 M 699 562 L 699 563 L 698 571 L 697 577 L 697 582 L 697 585 L 698 589 L 704 593 L 710 598 L 713 600 M 738 567 L 739 567 L 745 567 L 767 575 L 784 582 L 790 585 M 756 558 L 756 560 L 756 562 L 755 568 M 644 593 L 643 594 L 642 598 L 641 600 M 616 578 L 617 579 L 619 582 L 633 592 L 639 596 L 640 596 M 517 405 L 516 397 L 515 366 L 532 331 L 557 306 L 581 291 L 608 288 L 637 288 L 662 288 L 675 288 L 684 289 L 693 287 L 705 279 M 711 278 L 712 289 L 716 300 L 716 310 M 509 404 L 509 405 L 501 409 L 489 417 L 488 424 L 488 439 L 494 453 L 500 461 L 508 472 L 517 486 L 522 496 L 525 506 L 527 513 L 528 522 L 528 529 L 522 534 L 515 536 L 509 538 M 505 539 L 505 543 L 511 544 L 527 544 L 538 540 L 542 537 M 547 528 L 546 534 L 546 544 L 547 551 M 550 555 L 556 553 L 566 542 L 574 534 M 718 323 L 718 327 L 720 332 L 732 363 L 738 385 L 740 392 L 745 403 L 750 413 L 754 416 L 760 417 L 765 417 L 769 410 L 770 406 L 771 404 M 772 403 L 773 404 L 773 414 L 771 421 L 769 426 L 766 431 L 763 434 M 736 448 L 736 450 L 736 453 L 746 465 L 756 469 L 762 471 L 766 471 L 765 465 L 763 452 M 765 449 L 764 449 L 765 447 L 770 439 L 774 436 L 776 433 L 776 432 L 776 431 L 776 430 L 774 430 L 773 430 L 771 430 L 769 430 M 530 421 L 529 422 L 547 424 L 577 425 L 596 422 L 601 419 L 602 415 M 602 414 L 597 407 L 595 398 L 593 392 M 591 385 L 595 385 L 597 385 L 614 385 L 630 379 L 642 373 M 643 372 L 643 370 L 640 366 L 638 361 M 638 357 L 650 357 L 662 359 L 671 359 L 684 357 L 688 355 M 545 429 L 545 431 L 543 442 L 536 471 M 679 351 L 693 355 L 714 366 L 723 369 L 724 369 L 725 369 M 536 468 L 537 468 L 538 472 L 538 480 L 540 485 M 544 482 L 544 484 L 544 489 L 544 501 L 544 506 M 555 488 L 553 491 L 551 506 M 558 496 L 558 498 L 556 515 L 555 526 L 554 531 L 554 532 M 565 505 L 565 511 L 562 526 L 559 540 L 559 547 M 575 508 L 575 510 L 572 526 L 571 534 L 572 536 M 578 516 L 578 520 L 578 526 M 735 415 L 735 416 L 736 417 L 739 422 L 741 424 M 732 421 L 732 423 L 738 432 L 743 439 L 745 443 L 745 444 M 732 442 L 732 443 L 740 457 L 747 467 M 596 328 L 606 331 L 620 340 L 628 342 M 636 351 L 637 351 M 551 376 L 551 375 L 559 378 L 579 381 M 511 416 L 513 416 L 514 416 L 523 420 M 690 351 L 691 351 L 693 349 L 700 340 L 702 334 M 637 316 L 639 317 L 651 323 L 673 325 L 683 325 L 686 325 M 703 314 L 704 314 L 705 313 M 660 518 L 659 518 L 659 519 L 660 522 L 661 523 M 663 518 L 664 519 L 665 523 L 666 527 L 666 528 L 667 528 M 668 517 L 669 519 L 670 528 L 670 530 M 673 515 L 674 516 L 674 521 L 674 523 M 674 526 L 674 528 L 676 535 L 676 540 M 678 530 L 678 532 L 679 537 L 680 539 M 712 559 L 711 559 L 709 561 L 702 578 L 700 587 M 706 556 L 706 558 L 703 571 M 706 570 L 706 573 L 706 581 L 706 587 L 706 589 L 706 588 M 711 577 L 712 579 L 712 590 L 713 594 M 719 585 L 719 586 L 719 594 L 720 599 M 736 561 L 736 563 L 736 570 L 736 571 L 737 571 L 738 571 M 743 564 L 744 566 L 744 571 L 744 580 L 744 585 L 744 588 L 744 587 M 750 567 L 750 568 L 750 584 L 748 597 L 748 600 M 756 580 L 755 587 L 755 600 M 755 600 L 756 599 M 767 576 L 766 586 L 764 600 M 776 577 L 776 596 L 774 600 M 780 581 L 780 584 L 780 596 L 780 600 M 781 600 L 782 599 M 789 579 L 789 585 L 788 595 M 653 589 L 653 592 L 652 597 L 652 600 M 660 587 L 660 593 L 660 600 M 667 596 L 667 600 M 674 597 L 674 600 M 676 600 L 677 598 M 682 585 L 682 589 L 682 598 L 683 599 L 688 591 M 693 576 L 693 583 L 692 599 L 692 600 M 282 306 L 284 308 M 290 306 L 292 308 M 282 314 L 284 316 M 274 314 L 276 316 M 274 322 L 276 324 M 282 322 L 284 324 M 290 314 L 292 316 M 290 322 L 292 324 M 322 338 L 324 340 M 330 338 L 332 340 M 314 338 L 316 340 M 314 346 L 316 348 M 322 346 L 324 348 M 330 346 L 332 348 M 362 378 L 364 380 M 362 386 L 364 388 M 354 386 L 356 388 M 362 394 L 364 396 M 370 394 L 372 396 M 370 386 L 372 388 M 354 378 L 356 380 M 370 378 L 372 380 M 370 298 L 372 300 M 370 306 L 372 308 M 362 298 L 364 300 M 362 306 L 364 308 M 362 314 L 364 316 M 370 314 L 372 316 M 282 394 L 284 396 M 290 394 L 292 396 M 290 402 L 292 404 M 298 394 L 300 396 M 298 402 L 300 404 M 290 386 L 292 388 M 298 386 L 300 388 M 402 418 L 404 420 M 410 418 L 412 420 M 402 426 L 404 428 M 410 426 L 412 428 M 410 434 L 412 436 M 450 458 L 452 460 M 458 458 L 460 460 M 450 466 L 452 468 M 450 474 L 452 476 M 458 474 L 460 476 M 458 466 L 460 468 M 442 458 L 444 460 M 442 466 L 444 468 M 370 474 L 372 476 M 378 474 L 380 476 M 378 466 L 380 468 M 370 466 L 372 468 M 450 370 L 452 372 M 458 370 L 460 372 M 450 378 L 452 380 M 450 386 L 452 388 M 458 386 L 460 388 M 458 378 L 460 380 M 330 426 L 332 428 M 330 434 L 332 436 M 322 434 L 324 436 M 282 474 L 284 476 M 290 474 L 292 476 M 282 482 L 284 484 M 290 482 L 292 484 M 410 330 L 412 332 M 410 338 L 412 340 M 410 346 L 412 348 M 418 338 L 420 340 M 418 330 L 420 332 M 458 290 L 460 292 M 458 298 L 460 300 M 450 298 L 452 300 M 450 306 L 452 308 M 458 306 L 460 308 M 418 258 L 420 260 M 410 258 L 412 260 M 410 266 L 412 268 M 418 266 L 420 268 M 530 282 L 532 284 M 538 282 L 540 284 M 530 290 L 532 292 M 530 298 L 532 300 M 538 290 L 540 292 M 538 298 L 540 300 M 490 250 L 492 252 M 490 258 L 492 260 M 482 250 L 484 252 M 482 258 L 484 260 M 490 266 L 492 268 M 498 258 L 500 260 M 498 250 L 500 252 M 530 210 L 532 212 M 538 210 L 540 212 M 530 218 L 532 220 M 522 218 L 524 220 M 538 218 L 540 220 M 578 242 L 580 244 M 578 250 L 580 252 M 586 242 L 588 244 M 578 258 L 580 260 M 586 250 L 588 252 M 586 258 L 588 260 M 626 202 L 628 204 M 626 210 L 628 212 M 618 210 L 620 212 M 626 218 L 628 220 M 634 210 L 636 212 M 674 234 L 676 236 M 674 242 L 676 244 M 666 242 L 668 244 M 666 250 L 668 252 M 674 250 L 676 252 M 666 258 L 668 260 M 674 258 L 676 260 M 682 250 L 684 252 M 682 258 L 684 260 M 682 242 L 684 244 M 666 162 L 668 164 M 674 162 L 676 164 M 674 170 L 676 172 M 666 170 L 668 172 M 682 170 L 684 172 M 682 162 L 684 164 M 722 194 L 724 196 M 722 202 L 724 204 M 722 210 L 724 212 M 730 202 L 732 204 M 730 194 L 732 196 M 714 194 L 716 196 M 770 154 L 772 156 M 770 146 L 772 148 M 762 154 L 764 156 M 762 162 L 764 164 M 770 162 L 772 164 M 770 74 L 772 76 M 762 74 L 764 76 M 762 82 L 764 84 M 770 82 L 772 84 M 778 82 L 780 84 M 778 74 L 780 76 M 778 66 L 780 68 M 770 66 L 772 68 M 762 242 L 764 244 M 762 250 L 764 252 M 754 250 L 756 252 M 762 258 L 764 260 M 770 258 L 772 260 M 770 250 L 772 252 M 770 242 L 772 244 M 730 306 L 732 308 M 730 314 L 732 316 M 738 314 L 740 316 M 738 306 L 740 308 M 738 298 L 740 300 M 746 306 L 748 308 M 378 538 L 380 540 M 378 546 L 380 548 M 378 554 L 380 556 M 386 546 L 388 548 M 386 538 L 388 540 M 386 554 L 388 556 M 466 538 L 468 540 M 458 538 L 460 540 M 458 546 L 460 548 M 466 546 L 468 548 M 458 554 L 460 556 M 466 554 L 468 556 M 474 546 L 476 548 M 474 538 L 476 540 M 418 514 L 420 516 M 426 514 L 428 516 M 426 506 L 428 508 M 514 490 L 516 492 M 514 498 L 516 500 M 522 498 L 524 500 M 522 490 L 524 492 M 506 490 L 508 492 M 506 498 L 508 500 M 514 386 L 516 388 M 514 394 L 516 396 M 506 386 L 508 388 M 506 394 L 508 396 M 498 322 L 500 324 M 506 322 L 508 324 M 498 330 L 500 332 M 506 330 L 508 332 M 514 330 L 516 332 M 514 322 L 516 324 M 770 370 L 772 372 M 770 378 L 772 380 M 778 370 L 780 372 M 778 378 L 780 380 M 770 362 L 772 364 M 778 362 L 780 364 M 762 362 L 764 364 M 762 370 L 764 372 M 538 578 L 540 580 M 530 578 L 532 580 M 530 586 L 532 588 M 538 570 L 540 572 M 530 570 L 532 572 M 570 546 L 572 548 M 562 546 L 564 548 M 570 554 L 572 556 M 578 546 L 580 548 M 290 538 L 292 540 M 290 546 L 292 548 M 290 554 L 292 556 M 298 546 L 300 548 M 298 554 L 300 556 M 298 538 L 300 540 M 282 538 L 284 540 M 282 546 L 284 548 M 338 506 L 340 508 M 338 514 L 340 516 M 346 514 L 348 516 M 346 506 L 348 508 M 242 514 L 244 516 M 250 514 L 252 516 M 242 506 L 244 508 M 250 506 L 252 508 M 234 506 L 236 508 M 234 514 L 236 516 M 178 482 L 180 484 M 186 482 L 188 484 M 178 490 L 180 492 M 186 490 L 188 492 M 194 490 L 196 492 M 194 482 L 196 484 M 138 514 L 140 516 M 130 522 L 132 524 M 138 522 L 140 524 M 146 522 L 148 524 M 146 514 L 148 516 M 194 554 L 196 556 M 194 562 L 196 564 M 186 554 L 188 556 M 186 562 L 188 564 M 202 562 L 204 564 M 202 554 L 204 556 M 258 586 L 260 588 M 250 586 L 252 588 M 242 586 L 244 588 M 242 594 L 244 596 M 250 594 L 252 596 M 338 586 L 340 588 M 330 586 L 332 588 M 330 594 L 332 596 M 338 594 L 340 596 M 346 586 L 348 588 M 434 578 L 436 580 M 434 586 L 436 588 M 442 586 L 444 588 M 442 578 L 444 580 M 226 450 L 228 452 M 234 450 L 236 452 M 234 442 L 236 444 M 242 450 L 244 452 M 242 442 L 244 444 M 250 450 L 252 452 M 250 442 L 252 444 M 138 586 L 140 588 M 138 594 L 140 596 M 146 586 L 148 588 M 146 594 L 148 596 M 146 578 L 148 580 M 90 554 L 92 556 M 90 562 L 92 564 M 82 554 L 84 556 M 82 562 L 84 564 M 90 570 L 92 572 M 98 562 L 100 564 M 98 554 L 100 556 M 34 522 L 36 524 M 42 522 L 44 524 M 34 530 L 36 532 M 42 530 L 44 532 M 26 586 L 28 588 M 34 586 L 36 588 M 26 594 L 28 596 M 34 594 L 36 596 M 194 402 L 196 404 M 186 402 L 188 404 M 178 410 L 180 412 M 186 410 L 188 412 M 178 418 L 180 420 M 186 418 L 188 420 M 194 410 L 196 412 M 194 418 L 196 420 M 770 466 L 772 468 M 770 474 L 772 476 M 778 466 L 780 468 M 778 474 L 780 476 M 778 482 L 780 484 M 770 554 L 772 556 M 770 562 L 772 564 M 778 562 L 780 564 M 778 554 L 780 556 M 794 514 L 796 516 M 794 306 L 796 308 M 794 314 L 796 316 M 794 298 L 796 300 M 794 322 L 796 324 M 794 202 L 796 204 M 794 194 L 796 196 M 794 106 L 796 108 M 794 114 L 796 116 M 475 358 L 473 358 L 470 356 L 452 345 L 441 340 L 440 340 L 445 348 L 458 355 L 464 357 L 453 361 L 434 366 L 427 372 L 439 377 L 450 379 L 453 382 L 453 384 L 448 391 L 436 402 L 434 407 L 434 408 L 439 409 L 451 409 M 545 352 L 549 353 L 557 356 L 562 358 M 581 367 L 583 367 L 587 367 L 601 370 M 711 307 L 711 309 L 711 318 L 711 326 L 711 331 M 712 343 L 713 343 L 715 350 L 715 357 L 718 361 L 719 363 M 537 440 L 537 442 L 536 450 L 536 456 L 536 458 M 530 467 L 530 473 L 529 478 M 501 434 L 501 436 L 507 447 L 509 450 M 612 299 L 619 299 L 631 299 L 639 299 L 642 299 M 664 299 L 667 299 L 676 299 L 681 299 M 580 310 L 579 310 L 571 312 L 569 314"
    fill="none"
    stroke="black"
    stroke-width="3px"
    stroke-miterlimit="10"
    stroke-linecap="butt"
    stroke-linejoin="round"/>
</svg>